<?xml version="1.0" encoding="UTF-8" standalone="no"?><!DOCTYPE svg PUBLIC "-//W3C//DTD SVG 1.1//EN" "http://www.w3.org/Graphics/SVG/1.1/DTD/svg11.dtd"><svg width="100%" height="100%" viewBox="0 0 500 500" version="1.1" xmlns="http://www.w3.org/2000/svg" xmlns:xlink="http://www.w3.org/1999/xlink" xml:space="preserve" xmlns:serif="http://www.serif.com/" style="fill-rule:evenodd;clip-rule:evenodd;stroke-linejoin:round;stroke-miterlimit:2;"><rect id="logo-highres" x="0" y="0" width="500" height="500" style="fill:none;"/><g><path d="M324.16,245.156l-112.791,-19.265l26.09,-152.749c1.122,-6.568 5.043,-11.963 10.334,-15.168c2.069,-0.251 4.204,-0.209 6.36,0.159l51.979,8.878c0,0.005 0.003,0.01 0.002,0.015c0.341,6.683 3.304,21.566 22.559,24.854c0,0 -4.457,19.716 17.269,25.63l-21.802,127.646Z" style="fill:#5e81ac;fill-rule:nonzero;"/><rect x="165.318" y="59.834" width="35.534" height="23.55" style="fill:#5e81ac;fill-rule:nonzero;"/><rect x="160.664" y="64.984" width="44.842" height="3.394" style="fill:#5e81ac;fill-rule:nonzero;"/><path d="M183.614,79.454l-1.058,0c-28.874,0 -52.282,23.407 -52.282,52.283l0,249.449c0,6.419 5.203,11.623 11.623,11.623l3.29,0c4.897,0 9.067,-3.038 10.778,-7.325c7.799,4.622 16.869,7.325 26.591,7.325l1.058,0c9.722,0 18.792,-2.703 26.591,-7.325c1.711,4.287 5.881,7.325 10.779,7.325l3.291,0c6.418,0 11.622,-5.204 11.622,-11.623l0,-40.661l0,-208.788c0,-28.876 -23.409,-52.283 -52.283,-52.283Z" style="fill:#5e81ac;fill-rule:nonzero;"/><path d="M196.051,43.903l-25.932,0c-2.651,0 -4.801,2.149 -4.801,4.801l0,16.28l35.534,0l0,-16.28c0,-2.652 -2.15,-4.801 -4.801,-4.801Z" style="fill:#5e81ac;fill-rule:nonzero;"/><path d="M359.539,171.8c-8.179,-24.581 -38.793,-20.467 -49.824,-2.749c-7.883,12.666 -10.676,37.889 -2.433,52.307c3.288,5.749 9.237,5.804 15.34,9.641c6.102,3.835 8.755,9.187 15.339,9.642c16.509,1.141 37.953,-12.357 45.837,-25.024c11.028,-17.718 1.316,-47.183 -24.259,-43.817Z" style="fill:#5e81ac;fill-rule:nonzero;"/><path d="M359.539,171.8l3.206,-24.091l8.496,2.314l-11.702,21.777Z" style="fill:#5e81ac;fill-rule:nonzero;"/><path d="M391.622,166.058c0,0 -21.712,-13.612 -31.818,5.733c11.924,10.748 31.818,-5.733 31.818,-5.733Z" style="fill:#5e81ac;fill-rule:nonzero;"/><path d="M67.862,241.565l-0.538,0c-8.906,0 -16.124,-7.218 -16.124,-16.124l0,-6.046c0,-8.904 7.218,-16.122 16.124,-16.122l373.527,0c8.904,0 16.122,7.218 16.122,16.122l0,6.046c0,7.854 -5.614,14.396 -13.047,15.831l-17.911,181.158c-1.856,18.757 -17.742,33.667 -35.523,33.667l-269.229,0c-15.883,0 -30.256,-11.9 -34.463,-27.811l-0.33,0l0,-1.351c-0.332,-1.472 -0.577,-2.976 -0.728,-4.505l-17.88,-180.865Z" style="fill:#5e81ac;fill-rule:nonzero;"/><path d="M56.146,73.307l-31.588,11.42l53.736,148.628c3.122,8.636 12.653,13.105 21.289,9.983l0.315,-0.114c8.637,-3.122 13.106,-12.654 9.984,-21.29l-53.736,-148.627Z" style="fill:#5e81ac;fill-rule:nonzero;"/><path d="M469.72,78.01l-32.768,-7.39l-34.763,154.173c-2.02,8.958 3.604,17.857 12.563,19.878l0.328,0.074c8.957,2.02 17.858,-3.605 19.876,-12.563l34.764,-154.172Z" style="fill:#5e81ac;fill-rule:nonzero;"/></g><path d="M175.523,259.157c4.133,0 7.885,0.864 11.254,2.591c3.369,1.727 5.974,4.148 7.815,7.262c1.84,3.115 2.76,6.64 2.76,10.575c0,4.106 -0.885,7.702 -2.654,10.788c-1.77,3.086 -4.375,5.521 -7.815,7.305c-3.44,1.783 -7.227,2.675 -11.36,2.675c-4.163,0 -7.942,-0.892 -11.34,-2.675c-3.398,-1.784 -5.981,-4.219 -7.751,-7.305c-1.77,-3.086 -2.654,-6.682 -2.654,-10.788c0,-3.992 0.934,-7.538 2.803,-10.639c1.868,-3.1 4.473,-5.507 7.814,-7.219c3.341,-1.713 7.05,-2.57 11.128,-2.57Zm-10.788,20.428c0,3.964 0.97,7.128 2.909,9.492c1.94,2.365 4.538,3.547 7.794,3.547c3.397,0 6.073,-1.133 8.026,-3.398c1.954,-2.265 2.931,-5.507 2.931,-9.726c0,-4.02 -0.984,-7.128 -2.952,-9.322c-1.968,-2.194 -4.636,-3.291 -8.005,-3.291c-3.172,0 -5.748,1.161 -7.73,3.482c-1.982,2.322 -2.973,5.394 -2.973,9.216Z" style="fill:#fff;fill-rule:nonzero;"/><path d="M228.398,259.157c1.388,0 2.754,0.312 4.099,0.934c1.344,0.623 2.909,1.671 4.693,3.143l-3.738,9.131c-3.029,-2.265 -5.464,-3.397 -7.305,-3.397c-1.614,0 -3.206,0.601 -4.778,1.805c-1.571,1.203 -2.831,2.796 -3.78,4.778c-0.948,1.982 -1.422,3.964 -1.422,5.945l0,18.093l-10.448,0l0,-39.667l10.448,0l0,10.107l0.17,0c1.897,-3.822 3.808,-6.59 5.733,-8.302c1.925,-1.713 4.035,-2.57 6.328,-2.57Z" style="fill:#fff;fill-rule:nonzero;"/><path d="M267.131,260.813l0,-20.555l10.405,0l0,59.331l-18.347,0c-6.342,0 -11.417,-1.826 -15.225,-5.479c-3.809,-3.652 -5.713,-8.635 -5.713,-14.949c0,-3.738 0.885,-7.135 2.655,-10.193c1.769,-3.058 4.204,-5.458 7.305,-7.199c3.1,-1.741 6.448,-2.612 10.044,-2.612c2.775,0 5.733,0.552 8.876,1.656Zm-5.479,30.791l5.479,0l0,-22.976c-2.152,-1.104 -4.388,-1.656 -6.71,-1.656c-3.483,0 -6.265,1.09 -8.346,3.27c-2.081,2.18 -3.121,5.04 -3.121,8.579c0,8.522 4.233,12.783 12.698,12.783Z" style="fill:#fff;fill-rule:nonzero;"/><path d="M305.737,259.157c5.832,0 10.447,1.869 13.845,5.606c3.398,3.738 5.097,8.905 5.097,15.502l0,1.571l-28.073,0c0.424,3.539 1.748,6.265 3.971,8.176c2.222,1.911 5.273,2.867 9.152,2.867c2.492,0 4.891,-0.432 7.199,-1.296c2.307,-0.863 4.693,-2.173 7.156,-3.928l0,7.772c-4.644,3.284 -10.278,4.926 -16.903,4.926c-6.258,0 -11.368,-1.883 -15.332,-5.648c-3.964,-3.766 -5.946,-8.777 -5.946,-15.035c0,-6.031 1.833,-10.957 5.5,-14.779c3.667,-3.823 8.444,-5.734 14.334,-5.734Zm9.131,16.351c-0.283,-2.888 -1.161,-5.146 -2.633,-6.774c-1.473,-1.628 -3.497,-2.442 -6.074,-2.442c-2.633,0 -4.749,0.779 -6.349,2.336c-1.6,1.557 -2.612,3.851 -3.037,6.88l18.093,0Z" style="fill:#fff;fill-rule:nonzero;"/><path d="M355.554,259.157c1.388,0 2.754,0.312 4.099,0.934c1.345,0.623 2.909,1.671 4.693,3.143l-3.738,9.131c-3.029,-2.265 -5.464,-3.397 -7.304,-3.397c-1.614,0 -3.207,0.601 -4.778,1.805c-1.572,1.203 -2.832,2.796 -3.78,4.778c-0.949,1.982 -1.423,3.964 -1.423,5.945l0,18.093l-10.448,0l0,-39.667l10.448,0l0,10.107l0.17,0c1.897,-3.822 3.808,-6.59 5.733,-8.302c1.926,-1.713 4.035,-2.57 6.328,-2.57Z" style="fill:#fff;fill-rule:nonzero;"/><path d="M171.569,373.01c0.734,0.276 1.263,0.781 1.584,1.516c0.322,0.734 0.299,1.469 -0.069,2.204l-1.102,2.756c-0.184,0.367 -0.39,0.735 -0.62,1.102c-0.23,0.367 -0.436,0.781 -0.62,1.24c-0.919,1.837 -1.929,3.605 -3.031,5.305c-1.102,1.699 -2.388,3.283 -3.858,4.753c-1.562,1.562 -3.33,2.802 -5.305,3.72c-1.974,0.919 -4.248,1.378 -6.82,1.378c-1.378,0 -2.663,-0.138 -3.858,-0.413c-2.388,-0.735 -4.363,-1.883 -5.924,-3.445c-2.848,3.858 -5.994,7.05 -9.438,9.576c-3.445,2.526 -7.234,3.697 -11.367,3.513l-0.138,0l-0.275,0l-0.138,0c-2.113,-0.092 -3.858,-0.505 -5.236,-1.24c-1.378,-0.735 -2.457,-1.699 -3.238,-2.893c-0.78,-1.194 -1.309,-2.572 -1.584,-4.134c-0.276,-1.561 -0.368,-3.215 -0.276,-4.96c0.184,-2.939 0.758,-5.97 1.723,-9.093c0.964,-3.123 1.814,-5.741 2.549,-7.854l0.551,-1.515l0,-0.138c1.837,-5.511 3.743,-11.091 5.718,-16.74c1.974,-5.649 3.972,-11.367 5.993,-17.154l3.169,-8.818c0.092,-0.276 0.23,-0.666 0.413,-1.171c0.184,-0.505 0.368,-1.08 0.551,-1.722c0.46,-1.286 0.942,-2.756 1.447,-4.409c0.505,-1.654 1.033,-3.261 1.585,-4.823c0.275,-0.735 0.78,-1.286 1.515,-1.653c0.735,-0.368 1.47,-0.413 2.205,-0.138c0.734,0.276 1.286,0.781 1.653,1.516c0.367,0.734 0.413,1.469 0.138,2.204c-0.551,1.562 -1.079,3.146 -1.585,4.754c-0.505,1.607 -0.987,3.008 -1.446,4.202c-0.184,0.735 -0.368,1.355 -0.551,1.86c-0.184,0.505 -0.322,0.941 -0.414,1.309l-3.169,8.818l-1.653,4.684c2.021,-2.112 4.156,-3.789 6.407,-5.029c2.25,-1.24 4.707,-1.814 7.371,-1.722c3.95,0.092 6.843,1.653 8.68,4.685c0.919,1.377 1.562,3.008 1.929,4.891c0.367,1.883 0.551,3.927 0.551,6.131l-0.138,0.689l0,0.138c-0.092,1.929 -0.39,4.11 -0.895,6.544c-0.505,2.434 -1.171,4.983 -1.998,7.647c-0.827,2.664 -1.814,5.374 -2.962,8.129c-1.148,2.756 -2.457,5.42 -3.927,7.991c-0.092,0.184 -0.161,0.345 -0.207,0.483c-0.046,0.137 -0.16,0.298 -0.344,0.482c1.01,1.194 2.434,2.113 4.271,2.756c0.459,0.091 0.85,0.16 1.171,0.206c0.322,0.046 0.712,0.069 1.171,0.069c1.745,0 3.261,-0.321 4.547,-0.964c1.286,-0.643 2.48,-1.47 3.582,-2.48c1.194,-1.195 2.251,-2.526 3.169,-3.996c0.919,-1.47 1.791,-2.985 2.618,-4.547c0.184,-0.367 0.345,-0.712 0.482,-1.033c0.138,-0.322 0.299,-0.712 0.483,-1.171c0.183,-0.368 0.367,-0.758 0.551,-1.171c0.183,-0.414 0.367,-0.85 0.551,-1.309c0.367,-0.735 0.918,-1.263 1.653,-1.585c0.735,-0.321 1.47,-0.298 2.205,0.069Zm-29.623,-0.138c0.735,0.184 1.309,0.62 1.722,1.309c0.413,0.689 0.528,1.447 0.345,2.274c-0.184,0.459 -0.299,0.872 -0.345,1.24c-0.046,0.367 -0.115,0.734 -0.207,1.102c1.838,-4.042 3.284,-8.037 4.341,-11.987c1.056,-3.95 1.676,-7.348 1.86,-10.196l0,-0.138l0,-0.551l0,-0.138c0.091,-1.561 0.023,-3.008 -0.207,-4.34c-0.23,-1.331 -0.62,-2.411 -1.171,-3.237c-0.827,-1.286 -2.159,-1.975 -3.996,-2.067c-2.847,-0.092 -5.488,1.033 -7.922,3.375c-2.434,2.343 -4.708,5.282 -6.82,8.818c-2.113,3.537 -4.042,7.349 -5.787,11.436c-1.745,4.088 -3.307,7.877 -4.685,11.367l-0.964,2.342c-0.459,1.562 -0.873,3.192 -1.24,4.892c-0.368,1.699 -0.643,3.329 -0.827,4.891c-0.092,1.929 0.184,3.582 0.827,4.96c0.643,1.378 1.975,2.113 3.995,2.204l0.414,0c3.215,0.092 6.292,-1.056 9.231,-3.444c2.939,-2.388 5.603,-5.419 7.991,-9.094c-0.734,-1.929 -1.102,-4.041 -1.102,-6.338c0,-2.204 0.322,-4.409 0.965,-6.613c0.183,-0.827 0.643,-1.424 1.377,-1.791c0.735,-0.368 1.47,-0.459 2.205,-0.276Z" style="fill:#fff;fill-rule:nonzero;"/><path d="M221.996,373.01c0.735,0.367 1.24,0.919 1.516,1.653c0.275,0.735 0.23,1.47 -0.138,2.205l-0.138,0.413c-1.286,2.94 -2.732,6.063 -4.34,9.369c-1.607,3.307 -3.421,6.384 -5.442,9.232c-2.021,2.847 -4.294,5.212 -6.82,7.095c-2.526,1.883 -5.305,2.825 -8.336,2.825l-0.138,0l-0.137,0c-1.838,0 -3.399,-0.368 -4.685,-1.102c-1.286,-0.735 -2.296,-1.7 -3.031,-2.894c-0.551,-0.826 -0.965,-1.745 -1.24,-2.755c-0.276,-1.011 -0.505,-2.021 -0.689,-3.032c-2.021,2.848 -4.271,5.19 -6.751,7.027c-2.48,1.837 -5.282,2.756 -8.405,2.756l-0.138,0c-1.837,0 -3.398,-0.368 -4.684,-1.102c-1.286,-0.735 -2.343,-1.7 -3.169,-2.894c-0.735,-1.102 -1.24,-2.296 -1.516,-3.582c-0.275,-1.286 -0.413,-2.618 -0.413,-3.996l0,-0.413c0,-2.113 0.505,-4.96 1.515,-8.542c0.46,-1.654 0.942,-3.399 1.447,-5.236c0.505,-1.837 1.125,-3.72 1.86,-5.649c0.368,-1.011 0.873,-2.48 1.516,-4.409c0.643,-1.929 1.469,-4.225 2.48,-6.889c1.194,-3.215 2.457,-6.637 3.789,-10.265c1.332,-3.628 2.641,-7.187 3.926,-10.678c0.276,-0.735 0.781,-1.263 1.516,-1.584c0.735,-0.322 1.47,-0.345 2.205,-0.069c0.734,0.275 1.263,0.781 1.584,1.515c0.322,0.735 0.344,1.47 0.069,2.205c-1.47,4.041 -2.848,7.876 -4.133,11.505c-1.286,3.628 -2.435,6.774 -3.445,9.438c-0.919,2.48 -1.722,4.684 -2.411,6.613c-0.689,1.929 -1.217,3.399 -1.585,4.409c-0.734,1.929 -1.354,3.766 -1.86,5.511c-0.505,1.745 -0.987,3.399 -1.446,4.96c-0.368,1.562 -0.666,2.94 -0.896,4.134c-0.23,1.194 -0.344,2.25 -0.344,3.169l0,0.275c0,0.827 0.069,1.631 0.206,2.411c0.138,0.781 0.391,1.447 0.758,1.998c0.643,0.919 1.699,1.378 3.169,1.378c2.113,0 4.11,-0.827 5.993,-2.48c1.883,-1.653 3.652,-3.72 5.305,-6.2c1.653,-2.48 3.192,-5.19 4.616,-8.129c1.423,-2.939 2.686,-5.695 3.789,-8.267l0,-0.138c0.091,-0.092 0.137,-0.229 0.137,-0.413c0.368,-1.011 0.896,-2.48 1.585,-4.409c0.689,-1.929 1.493,-4.225 2.411,-6.889c1.286,-3.215 2.572,-6.637 3.858,-10.265c1.286,-3.628 2.572,-7.187 3.858,-10.678c0.275,-0.735 0.781,-1.263 1.515,-1.584c0.735,-0.322 1.47,-0.345 2.205,-0.069c0.735,0.275 1.286,0.781 1.653,1.515c0.368,0.735 0.414,1.47 0.138,2.205c-1.562,4.041 -2.985,7.876 -4.271,11.505c-1.286,3.628 -2.434,6.774 -3.445,9.438c-0.918,2.48 -1.699,4.684 -2.342,6.613c-0.643,1.929 -1.194,3.399 -1.653,4.409l0,0.138c0,0.092 -0.023,0.184 -0.069,0.275c-0.046,0.092 -0.069,0.184 -0.069,0.276c-0.643,1.837 -1.217,3.582 -1.722,5.236c-0.506,1.653 -0.942,3.169 -1.309,4.546c-0.827,3.032 -1.24,5.466 -1.24,7.303l0,0.275c0,0.827 0.069,1.631 0.206,2.411c0.138,0.781 0.391,1.447 0.758,1.998c0.643,0.919 1.654,1.378 3.031,1.378l0.138,0c2.113,0 4.111,-0.827 5.994,-2.48c1.883,-1.653 3.651,-3.72 5.304,-6.2c1.653,-2.48 3.169,-5.19 4.547,-8.129c1.378,-2.939 2.618,-5.695 3.72,-8.267l0.275,-0.413c0.276,-0.735 0.804,-1.263 1.585,-1.585c0.781,-0.321 1.539,-0.298 2.273,0.069Z" style="fill:#fff;fill-rule:nonzero;"/><path d="M272.424,373.01c0.735,0.367 1.24,0.919 1.516,1.653c0.275,0.735 0.275,1.47 0,2.205c-2.664,5.879 -5.558,10.678 -8.681,14.398c-3.123,3.72 -6.429,6.682 -9.92,8.887c-3.49,2.204 -7.027,3.72 -10.609,4.547c-3.582,0.826 -7.119,1.148 -10.609,0.964l-0.276,0l-0.137,0c-2.48,-0.184 -4.8,-0.643 -6.958,-1.378c-2.159,-0.735 -4.019,-1.883 -5.58,-3.444c-1.654,-1.562 -2.94,-3.491 -3.858,-5.787c-0.919,-2.296 -1.332,-5.006 -1.24,-8.129l0,-0.276l0,-0.137c0.183,-3.215 0.758,-6.591 1.722,-10.127c0.964,-3.537 2.227,-7.05 3.789,-10.541c1.562,-3.582 3.376,-6.98 5.442,-10.195c2.067,-3.215 4.203,-6.017 6.407,-8.405c2.113,-2.113 4.363,-3.72 6.751,-4.822c2.389,-1.286 4.777,-1.929 7.165,-1.929l0.689,0c1.561,0.092 3.031,0.436 4.409,1.033c1.378,0.597 2.572,1.493 3.582,2.687c2.021,2.296 3.031,5.419 3.031,9.369l0,0.827c0,1.745 -0.367,3.582 -1.102,5.511c-0.276,0.918 -0.643,1.791 -1.102,2.618c-0.459,0.826 -0.965,1.653 -1.516,2.48c-0.459,0.643 -1.079,1.033 -1.86,1.171c-0.781,0.138 -1.538,-0.023 -2.273,-0.482c-0.643,-0.46 -1.034,-1.08 -1.171,-1.86c-0.138,-0.781 0.023,-1.539 0.482,-2.274c0.827,-0.918 1.47,-2.112 1.929,-3.582c0.551,-1.194 0.827,-2.48 0.827,-3.858l0,-0.551c0,-2.572 -0.552,-4.409 -1.654,-5.511c-0.918,-1.011 -2.204,-1.608 -3.858,-1.791l-0.413,0c-0.735,0 -1.493,0.114 -2.273,0.344c-0.781,0.23 -1.585,0.528 -2.412,0.896c-0.826,0.459 -1.676,1.01 -2.549,1.653c-0.872,0.643 -1.676,1.378 -2.411,2.205c-2.02,2.112 -3.972,4.638 -5.855,7.577c-1.883,2.94 -3.56,6.017 -5.029,9.232c-1.378,3.215 -2.503,6.407 -3.376,9.575c-0.873,3.169 -1.401,6.178 -1.584,9.025l0,0.276c-0.092,4.317 1.01,7.486 3.306,9.507c1.011,1.01 2.274,1.791 3.789,2.342c1.516,0.551 3.192,0.872 5.029,0.964l0.276,0c2.939,0.092 5.947,-0.206 9.024,-0.895c3.078,-0.689 6.086,-1.952 9.025,-3.789c2.939,-1.837 5.81,-4.432 8.611,-7.785c2.802,-3.353 5.351,-7.647 7.647,-12.882c0.368,-0.735 0.919,-1.24 1.654,-1.516c0.734,-0.276 1.469,-0.276 2.204,0Z" style="fill:#fff;fill-rule:nonzero;"/><path d="M284.273,349.312c-0.367,1.01 -0.895,2.434 -1.584,4.271c-0.689,1.837 -1.47,3.973 -2.343,6.407c-0.872,2.434 -1.837,5.098 -2.893,7.991c-1.056,2.893 -2.136,5.81 -3.238,8.749c-1.01,2.664 -1.998,5.351 -2.962,8.06c-0.965,2.71 -1.86,5.282 -2.687,7.716c-0.827,2.434 -1.607,4.616 -2.342,6.545c-0.735,1.929 -1.286,3.49 -1.653,4.684c-0.276,0.827 -0.781,1.401 -1.516,1.722c-0.735,0.322 -1.47,0.391 -2.205,0.207c-0.734,-0.276 -1.286,-0.781 -1.653,-1.516c-0.367,-0.734 -0.413,-1.469 -0.138,-2.204c0.368,-1.102 0.896,-2.595 1.585,-4.478c0.689,-1.883 1.469,-4.041 2.342,-6.476c0.873,-2.434 1.791,-5.052 2.756,-7.853c0.964,-2.802 1.952,-5.58 2.962,-8.336l0.138,-0.138c1.01,-2.847 2.02,-5.695 3.031,-8.542c1.01,-2.847 1.975,-5.511 2.893,-7.991c0.919,-2.48 1.723,-4.662 2.411,-6.545c0.689,-1.883 1.263,-3.33 1.723,-4.34l0,-0.138c0.735,-2.02 1.263,-3.536 1.584,-4.546c0.322,-1.011 0.666,-1.929 1.034,-2.756c0.551,-1.653 1.079,-3.192 1.584,-4.616c0.505,-1.423 0.896,-2.595 1.171,-3.513l0.827,-2.342c0.459,-1.194 0.964,-2.618 1.515,-4.272c0.552,-1.653 1.194,-3.536 1.929,-5.649c0.276,-0.734 0.781,-1.263 1.516,-1.584c0.735,-0.322 1.47,-0.344 2.204,-0.069c0.735,0.276 1.286,0.781 1.654,1.516c0.367,0.734 0.413,1.469 0.138,2.204c-0.643,1.745 -1.263,3.468 -1.86,5.167c-0.598,1.699 -1.126,3.192 -1.585,4.478l-0.827,2.48c-1.194,3.582 -2.158,6.292 -2.893,8.129l-2.48,7.302l-0.138,0.276Zm42.988,23.698c0.734,0.276 1.24,0.804 1.515,1.585c0.276,0.78 0.276,1.538 0,2.273c-1.286,2.756 -2.686,5.741 -4.202,8.956c-1.516,3.215 -3.284,6.246 -5.305,9.093c-2.112,3.123 -4.477,5.718 -7.095,7.785c-2.618,2.066 -5.534,3.1 -8.749,3.1c-1.562,0 -2.917,-0.253 -4.065,-0.758c-1.148,-0.505 -2.181,-1.217 -3.1,-2.136c-0.918,-1.01 -1.607,-2.181 -2.067,-3.513c-0.459,-1.332 -0.78,-2.641 -0.964,-3.927l0,-0.137c0,-1.47 0.092,-2.986 0.275,-4.547l1.034,-8.818c0.138,-1.378 0.206,-2.71 0.206,-3.996c-0.091,-1.837 -0.528,-3.33 -1.308,-4.478c-0.781,-1.148 -2.366,-1.722 -4.754,-1.722c-0.827,0 -1.883,0.322 -3.169,0.964c-0.184,0.092 -0.413,0.207 -0.689,0.345c-0.275,0.138 -0.505,0.298 -0.689,0.482l-1.929,1.791c-0.734,0.551 -1.515,0.781 -2.342,0.689l-0.275,0c0,-0.092 -0.092,-0.138 -0.276,-0.138c0,0 -0.046,-0.045 -0.138,-0.137l-0.138,0c0,0 -0.045,-0.046 -0.137,-0.138c-0.368,-0.184 -0.643,-0.368 -0.827,-0.551c-0.459,-0.551 -0.689,-1.217 -0.689,-1.998c0,-0.781 0.23,-1.447 0.689,-1.998l2.342,-1.929l30.725,-28.107c0.643,-0.551 1.355,-0.804 2.136,-0.758c0.781,0.046 1.447,0.391 1.998,1.034c0.551,0.551 0.803,1.24 0.758,2.066c-0.046,0.827 -0.345,1.47 -0.896,1.929l-23.009,20.943c3.215,0.551 5.396,1.906 6.544,4.064c1.148,2.159 1.768,4.708 1.86,7.647c0,1.378 -0.092,2.825 -0.275,4.34c-0.184,1.516 -0.368,3.054 -0.551,4.616c-0.184,1.47 -0.345,2.87 -0.483,4.202c-0.137,1.332 -0.206,2.595 -0.206,3.789l0.137,0c0,1.562 0.46,2.894 1.378,3.996c0.735,0.735 1.7,1.102 2.894,1.102c2.112,0 4.087,-0.781 5.924,-2.342c1.837,-1.562 3.537,-3.537 5.098,-5.925c1.837,-2.664 3.491,-5.534 4.96,-8.611c1.47,-3.077 2.802,-5.948 3.996,-8.611c0.367,-0.735 0.918,-1.263 1.653,-1.585c0.735,-0.321 1.47,-0.298 2.205,0.069Z" style="fill:#fff;fill-rule:nonzero;"/><path d="M377.413,373.01c0.735,0.367 1.24,0.919 1.515,1.653c0.276,0.735 0.276,1.47 0,2.205c-2.663,5.879 -5.557,10.678 -8.68,14.398c-3.123,3.72 -6.43,6.682 -9.92,8.887c-3.49,2.204 -7.027,3.72 -10.609,4.547c-3.582,0.826 -7.119,1.148 -10.609,0.964l-0.276,0l-0.138,0c-2.48,-0.184 -4.799,-0.643 -6.957,-1.378c-2.159,-0.735 -4.019,-1.883 -5.581,-3.444c-1.653,-1.562 -2.939,-3.491 -3.857,-5.787c-0.919,-2.296 -1.332,-5.006 -1.24,-8.129l0,-0.276l0,-0.137c0.091,-1.838 0.321,-3.721 0.688,-5.649c0.368,-1.929 0.827,-3.904 1.378,-5.925c0,-0.092 0.023,-0.138 0.069,-0.138c0.046,0 0.069,-0.046 0.069,-0.138c0.919,-3.123 2.021,-6.062 3.307,-8.818c1.561,-3.582 3.375,-6.98 5.442,-10.195c2.067,-3.215 4.202,-6.017 6.407,-8.405c2.113,-2.113 4.363,-3.72 6.751,-4.822c2.388,-1.286 4.822,-1.929 7.302,-1.929c3.124,0 5.604,0.689 7.441,2.067c2.02,1.286 3.352,3.214 3.995,5.786c0.276,1.011 0.368,2.113 0.276,3.307c-0.092,1.194 -0.322,2.388 -0.689,3.582c-0.551,1.837 -1.401,3.606 -2.549,5.305c-1.148,1.699 -2.503,3.192 -4.065,4.478c-1.837,1.561 -3.834,2.939 -5.993,4.133c-2.159,1.194 -4.386,2.297 -6.682,3.307c-3.215,1.378 -6.246,2.526 -9.094,3.444c-2.847,0.919 -5.098,1.608 -6.751,2.067c-0.459,1.562 -0.804,3.077 -1.033,4.547c-0.23,1.47 -0.391,2.893 -0.483,4.271l0,0.276c-0.092,4.317 1.011,7.486 3.307,9.507c1.01,1.01 2.273,1.791 3.789,2.342c1.516,0.551 3.192,0.872 5.029,0.964l0.276,0c2.939,0.092 5.947,-0.206 9.024,-0.895c3.077,-0.689 6.085,-1.952 9.025,-3.789c2.939,-1.837 5.81,-4.432 8.611,-7.785c2.802,-3.353 5.351,-7.647 7.647,-12.882c0.367,-0.735 0.918,-1.24 1.653,-1.516c0.735,-0.276 1.47,-0.276 2.205,0Zm-45.606,-4.822l-1.24,3.169c1.562,-0.46 3.307,-1.034 5.236,-1.723c1.929,-0.688 3.95,-1.538 6.062,-2.549c2.021,-0.918 4.019,-1.928 5.994,-3.031c1.975,-1.102 3.743,-2.296 5.304,-3.582c2.389,-1.929 3.996,-4.271 4.823,-7.027c0.459,-1.469 0.551,-2.755 0.275,-3.858c-0.275,-1.01 -0.78,-1.745 -1.515,-2.204c-1.011,-0.735 -2.434,-1.102 -4.272,-1.102c-1.561,0 -3.168,0.413 -4.822,1.24c-0.827,0.459 -1.676,1.01 -2.549,1.653c-0.872,0.643 -1.676,1.378 -2.411,2.205c-2.021,2.112 -3.973,4.638 -5.856,7.577c-1.883,2.94 -3.559,6.017 -5.029,9.232Z" style="fill:#fff;fill-rule:nonzero;"/><path d="M406.209,373.01c0.735,0.367 1.24,0.919 1.515,1.653c0.276,0.735 0.23,1.47 -0.137,2.205c-1.47,3.123 -2.894,5.97 -4.271,8.542c-1.378,2.572 -2.756,4.914 -4.134,7.027c-2.847,4.317 -5.833,7.624 -8.956,9.92c-1.653,1.103 -3.398,1.929 -5.235,2.48c-1.837,0.643 -3.766,0.965 -5.787,0.965l-0.138,0c-1.378,0 -2.687,-0.253 -3.927,-0.758c-1.24,-0.505 -2.319,-1.263 -3.237,-2.273c-1.929,-2.113 -2.894,-4.96 -2.894,-8.543l0,-0.138l0,-0.275c0,-2.113 0.505,-4.96 1.516,-8.542c0.459,-1.654 0.941,-3.399 1.446,-5.236c0.506,-1.837 1.126,-3.72 1.86,-5.649c0.184,-0.735 0.552,-1.814 1.103,-3.238c0.551,-1.424 1.194,-3.192 1.929,-5.305c0.734,-2.112 1.515,-4.317 2.342,-6.613c0.827,-2.296 1.699,-4.639 2.618,-7.027c0.092,-0.367 0.321,-1.079 0.689,-2.135c0.367,-1.057 0.826,-2.366 1.377,-3.927l-8.68,0c-0.826,0 -1.515,-0.276 -2.066,-0.827c-0.552,-0.551 -0.827,-1.24 -0.827,-2.067c0,-0.734 0.275,-1.4 0.827,-1.997c0.551,-0.597 1.24,-0.896 2.066,-0.896l10.609,0l1.103,-3.031c0.643,-1.929 1.286,-3.835 1.929,-5.718c0.643,-1.883 1.24,-3.628 1.791,-5.236c0.551,-1.607 1.033,-2.985 1.446,-4.133c0.414,-1.148 0.712,-1.952 0.896,-2.411c0.276,-0.735 0.781,-1.286 1.516,-1.654c0.734,-0.367 1.469,-0.413 2.204,-0.137c0.735,0.275 1.286,0.78 1.653,1.515c0.368,0.735 0.414,1.47 0.138,2.205c-0.184,0.459 -0.482,1.263 -0.895,2.411c-0.414,1.148 -0.896,2.503 -1.447,4.064c-0.551,1.562 -1.148,3.307 -1.791,5.236c-0.643,1.929 -1.286,3.858 -1.929,5.787l-0.414,1.102l9.232,0c0.826,0 1.515,0.299 2.067,0.896c0.551,0.597 0.826,1.263 0.826,1.997c0,0.827 -0.275,1.516 -0.826,2.067c-0.552,0.551 -1.241,0.827 -2.067,0.827l-11.298,0c-0.643,1.929 -1.217,3.582 -1.722,4.96c-0.506,1.378 -0.85,2.388 -1.034,3.031c-1.01,2.756 -1.929,5.305 -2.755,7.647c-0.827,2.342 -1.562,4.386 -2.205,6.131c-0.643,1.745 -1.194,3.307 -1.653,4.685c-0.46,1.378 -0.873,2.572 -1.24,3.582c-0.735,1.929 -1.355,3.766 -1.86,5.511c-0.506,1.745 -0.988,3.399 -1.447,4.96c-0.367,1.562 -0.666,2.94 -0.896,4.134c-0.229,1.194 -0.344,2.25 -0.344,3.169l0,0.275c0,2.113 0.459,3.628 1.378,4.547c0.643,0.827 1.607,1.24 2.893,1.24l0.138,0c1.102,0 2.434,-0.23 3.996,-0.689c1.377,-0.459 2.617,-1.056 3.72,-1.791c1.286,-0.919 2.526,-2.067 3.72,-3.445c1.194,-1.377 2.434,-2.985 3.72,-4.822c1.286,-1.929 2.572,-4.133 3.858,-6.613c1.286,-2.48 2.617,-5.236 3.995,-8.267c0.368,-0.735 0.942,-1.24 1.723,-1.516c0.78,-0.275 1.538,-0.229 2.273,0.138Z" style="fill:#fff;fill-rule:nonzero;"/></svg>