<?xml version="1.0" encoding="UTF-8" standalone="no"?>
<!DOCTYPE svg PUBLIC "-//W3C//DTD SVG 1.1//EN" "http://www.w3.org/Graphics/SVG/1.1/DTD/svg11.dtd">
<svg width="100%" height="100%" viewBox="0 0 101 101" version="1.1" xmlns="http://www.w3.org/2000/svg" xmlns:xlink="http://www.w3.org/1999/xlink" xml:space="preserve" xmlns:serif="http://www.serif.com/" style="fill-rule:evenodd;clip-rule:evenodd;stroke-linecap:round;stroke-linejoin:round;">
    <g transform="matrix(1,0,0,1,-263,-155)">
        <g id="database" transform="matrix(1,0,0,1.00503,263.737,154.907)">
            <rect x="0" y="0.5" width="100" height="99.5" style="fill:none;"/>
            <g transform="matrix(4.13096,0,0,4.1103,0.428417,0.922277)">
                <ellipse cx="12" cy="2.501" rx="4" ry="2" style="fill:none;stroke:black;stroke-width:1px;"/>
                <path d="M8,5.5C8,6.6 9.791,7.5 12,7.5C14.209,7.5 16,6.6 16,5.5" style="fill:none;fill-rule:nonzero;stroke:black;stroke-width:1px;"/>
                <path d="M16,2.5L16,8.5C16,9.6 14.209,10.5 12,10.5C9.791,10.5 8,9.6 8,8.5L8,2.5" style="fill:none;fill-rule:nonzero;stroke:black;stroke-width:1px;"/>
                <path d="M3.5,23.501L8.5,23.501" style="fill:none;fill-rule:nonzero;stroke:black;stroke-width:1px;"/>
                <path d="M6,21.501L6,23.501" style="fill:none;fill-rule:nonzero;stroke:black;stroke-width:1px;"/>
                <path d="M1,19.501L11,19.501" style="fill:none;fill-rule:nonzero;stroke:black;stroke-width:1px;"/>
                <path d="M9.5,14.5C10.323,14.5 11,15.177 11,16L11,19.912C11.024,20.759 10.347,21.476 9.5,21.5L2.5,21.5C1.654,21.475 0.977,20.759 1,19.913L1,16C1,15.177 1.677,14.5 2.5,14.5L9.5,14.5Z" style="fill:none;fill-rule:nonzero;stroke:black;stroke-width:1px;"/>
                <path d="M15.5,23.501L20.5,23.501" style="fill:none;fill-rule:nonzero;stroke:black;stroke-width:1px;"/>
                <path d="M18,21.501L18,23.501" style="fill:none;fill-rule:nonzero;stroke:black;stroke-width:1px;"/>
                <path d="M13,19.501L23,19.501" style="fill:none;fill-rule:nonzero;stroke:black;stroke-width:1px;"/>
                <path d="M21.5,14.5C22.323,14.5 23,15.177 23,16L23,19.912C23.024,20.759 22.347,21.476 21.5,21.5L14.5,21.5C13.654,21.475 12.977,20.759 13,19.913L13,16C13,15.177 13.677,14.5 14.5,14.5L21.5,14.5Z" style="fill:none;fill-rule:nonzero;stroke:black;stroke-width:1px;"/>
                <path d="M18,6.501L21,6.501L21,11.501" style="fill:none;fill-rule:nonzero;stroke:black;stroke-width:1px;"/>
                <path d="M6,6.501L3,6.501L3,11.501" style="fill:none;fill-rule:nonzero;stroke:black;stroke-width:1px;"/>
            </g>
        </g>
    </g>
</svg>
