<?xml version="1.0" encoding="UTF-8" standalone="no"?>
<!DOCTYPE svg PUBLIC "-//W3C//DTD SVG 1.1//EN" "http://www.w3.org/Graphics/SVG/1.1/DTD/svg11.dtd">
<svg width="100%" height="100%" viewBox="0 0 101 101" version="1.1" xmlns="http://www.w3.org/2000/svg" xmlns:xlink="http://www.w3.org/1999/xlink" xml:space="preserve" xmlns:serif="http://www.serif.com/" style="fill-rule:evenodd;clip-rule:evenodd;stroke-linejoin:round;stroke-miterlimit:2;">
    <g transform="matrix(1,0,0,1,-131,-439)">
        <g id="linkedin" transform="matrix(1,0,0,1.00503,131.673,438.87)">
            <rect x="0" y="0.5" width="100" height="99.5" style="fill:none;"/>
            <g transform="matrix(0.182248,0,0,0.181337,3.67611,4.15859)">
                <g transform="matrix(1,0,0,1,-1.83,-1.82)">
                    <path d="M485,29.72C496.45,44.85 501.61,69.93 504.15,100.42C507.51,145.92 508.86,200.52 510.15,256.94C508.48,314.41 507.8,372.37 504.15,413.46C501.27,445 495.15,466.12 484.93,478.93C471.93,491.72 446.99,502.52 411.43,505.08C368.18,508.77 314.82,508.73 255.95,510.18C190.51,509.06 146.13,509.54 99.57,505.1C63.25,502.58 39.49,491.91 24.87,479.03C14.04,464.49 10.87,449.03 7.87,412.79C4.12,370.94 3.29,314.23 1.87,257.25C4,200.57 4.13,143.44 7.9,100.74C10.43,67.05 14.42,44.4 24.65,30C39,17.77 63.48,11.69 100,8.69C150,2.84 202.06,1.69 255.88,1.82C311.27,1.91 364.44,3.49 411.88,8.16C443.88,10.72 470.36,16.23 484.95,29.72L485,29.72Z" style="fill:rgb(0,119,181);"/>
                </g>
                <g id="Flat_copy" transform="matrix(1,0,0,1,-1.83,-1.82)">
                    <path d="M400.76,392.14L400.76,281.39C400.76,222.05 369.08,194.39 326.85,194.39C292.77,194.39 277.49,213.14 268.98,226.3L268.98,199L204.78,199C205.63,217.13 204.78,392.17 204.78,392.17L269,392.17L269,284.26C269,278.5 269.41,272.73 271.12,268.61C275.75,257.07 286.32,245.13 304.05,245.13C327.29,245.13 336.58,262.84 336.58,288.8L336.58,392.15L400.78,392.15L400.76,392.14ZM137.13,172.6C159.51,172.6 173.47,157.75 173.47,139.21C173.06,120.26 159.52,105.85 137.56,105.85C115.6,105.85 101.23,120.26 101.23,139.21C101.23,157.75 115.17,172.6 136.72,172.6L137.13,172.6ZM169.24,392.14L169.24,199L105,199L105,392.14L169.24,392.14Z" style="fill:white;fill-rule:nonzero;"/>
                </g>
            </g>
        </g>
    </g>
</svg>
