<?xml version="1.0" encoding="UTF-8" standalone="no"?>
<!DOCTYPE svg PUBLIC "-//W3C//DTD SVG 1.1//EN" "http://www.w3.org/Graphics/SVG/1.1/DTD/svg11.dtd">
<svg width="100%" height="100%" viewBox="0 0 101 101" version="1.1" xmlns="http://www.w3.org/2000/svg" xmlns:xlink="http://www.w3.org/1999/xlink" xml:space="preserve" xmlns:serif="http://www.serif.com/" style="fill-rule:evenodd;clip-rule:evenodd;stroke-linejoin:round;stroke-miterlimit:2;">
    <g transform="matrix(1,0,0,1,-385,-439)">
        <g id="vaadin" transform="matrix(1,0,0,1.00503,385.284,438.87)">
            <rect x="0" y="0.5" width="100" height="99.5" style="fill:none;"/>
            <g transform="matrix(0.182248,0,0,0.181337,3.40959,3.82855)">
                <path d="M485,29.72C496.45,44.85 501.61,69.93 504.15,100.42C507.51,145.92 508.86,200.52 510.15,256.94C508.48,314.41 507.8,372.37 504.15,413.46C501.27,445 495.15,466.12 484.93,478.93C471.93,491.72 446.99,502.52 411.43,505.08C368.18,508.77 314.82,508.73 255.95,510.18C190.51,509.06 146.13,509.54 99.57,505.1C63.25,502.58 39.49,491.91 24.87,479.03C14.04,464.49 10.87,449.03 7.87,412.79C4.12,370.94 3.29,314.23 1.87,257.25C4,200.57 4.13,143.44 7.9,100.74C10.43,67.05 14.42,44.4 24.65,30C39,17.77 63.48,11.69 100,8.69C150,2.84 202.06,1.69 255.88,1.82C311.27,1.91 364.44,3.49 411.88,8.16C443.88,10.72 470.36,16.23 484.95,29.72L485,29.72Z" style="fill:rgb(0,180,240);"/>
            </g>
            <g id="Layer.-1" transform="matrix(0.14822,0,0,0.147479,-5.4103,-15.6963)">
                <path d="M210.225,278.502L318.575,278.502C367.878,278.502 371.676,316.424 373.295,335.384C376.008,316.424 379.799,278.502 429.093,278.502L537.456,278.502C560.208,278.502 569.961,268.211 569.961,253.041L569.961,239.491C569.961,225.405 577.542,215.113 594.338,215.113C610.047,215.113 618.722,225.405 618.722,239.491L618.722,279.586C618.722,326.715 596.506,350.019 546.664,350.019L436.142,350.019C403.096,350.019 399.837,364.095 399.837,377.645C399.837,395.525 386.845,403.655 373.837,403.655C360.839,403.655 347.827,395.525 347.827,377.645C347.827,364.095 344.585,350.019 311.532,350.019L201.01,350.019C151.162,350.019 128.952,326.715 128.952,279.586L128.952,239.491C128.952,225.405 137.624,215.113 153.333,215.113C170.129,215.113 177.72,225.405 177.72,239.491L177.72,253.041C177.72,268.211 187.47,278.502 210.225,278.502M342.982,661.959L285.3,491.102L281.689,491.102C262.937,491.102 253.471,476.467 253.471,462.881C253.471,449.298 262.937,434.661 281.689,434.661L304.042,434.661C316.008,434.661 326.202,442.422 330.097,452.041L374.288,601.59L418.563,451.852C422.566,442.889 432.348,434.661 444.537,434.661L466.887,434.661C485.642,434.661 495.107,449.298 495.107,462.881C495.107,476.467 485.642,491.102 466.887,491.102L463.279,491.102L405.6,661.959C401.614,671.21 394.473,679.199 374.36,679.199C354.142,679.199 346.978,671.236 342.982,661.959" style="fill:white;fill-rule:nonzero;"/>
            </g>
        </g>
    </g>
</svg>
