<?xml version="1.0" encoding="UTF-8" standalone="no"?><!DOCTYPE svg PUBLIC "-//W3C//DTD SVG 1.1//EN" "http://www.w3.org/Graphics/SVG/1.1/DTD/svg11.dtd"><svg width="100%" height="100%" viewBox="0 0 600 600" version="1.1" xmlns="http://www.w3.org/2000/svg" xmlns:xlink="http://www.w3.org/1999/xlink" xml:space="preserve" xmlns:serif="http://www.serif.com/" style="fill-rule:evenodd;clip-rule:evenodd;stroke-linecap:round;stroke-linejoin:round;"><circle cx="340.215" cy="200.444" r="18.827" style="fill:none;stroke:#000;stroke-width:4.71px;"/><circle cx="410.817" cy="200.444" r="18.827" style="fill:none;stroke:#000;stroke-width:4.71px;"/><path d="M370.809,200.449l26.754,-35.989l-36.167,12.45l-21.181,23.534l30.594,0l-15.297,-37.654" style="fill:none;fill-rule:nonzero;stroke:#000;stroke-width:4.71px;"/><path d="M410.817,200.444l-15.565,-42.253c-0.096,-0.261 -0.145,-0.536 -0.145,-0.814c0,-1.076 0.738,-2.022 1.783,-2.283l6.867,-1.718" style="fill:none;fill-rule:nonzero;stroke:#000;stroke-width:4.71px;"/><path d="M349.629,162.79l14.12,0" style="fill:none;fill-rule:nonzero;stroke:#000;stroke-width:4.71px;"/><clipPath id="_clip1"><rect x="163.865" y="242.805" width="112.963" height="112.963"/></clipPath><g clip-path="url(#_clip1)"><path d="M220.346,245.159c-0.017,-0.001 -0.034,-0.001 -0.051,-0.001c-29.694,0 -54.128,24.435 -54.128,54.129c0,23.261 14.994,44.039 37.07,51.37c2.702,0.47 3.558,-1.116 3.558,-2.547c0,-1.294 0.029,-4.881 0,-9.413c-15.061,3.266 -18.173,-7.131 -18.173,-7.131c-0.992,-3.27 -3.124,-6.08 -6.005,-7.917c-4.914,-3.361 0.367,-3.295 0.367,-3.295c3.474,0.477 6.539,2.537 8.293,5.573c2.021,3.682 5.901,5.979 10.101,5.979c1.978,0 3.924,-0.509 5.648,-1.479c0.25,-2.736 1.469,-5.294 3.436,-7.211c-12.017,-1.374 -24.654,-6.015 -24.654,-26.763c-0.077,-5.377 1.922,-10.581 5.577,-14.525c-1.656,-4.665 -1.467,-9.792 0.527,-14.323c1.995,-4.531 4.552,-1.454 14.883,5.554c8.873,-2.434 18.239,-2.434 27.111,0c10.355,-7.003 14.869,-5.554 14.869,-5.554c1.996,4.53 2.188,9.656 0.537,14.323c3.656,3.946 5.652,9.156 5.568,14.535c0,20.804 -12.657,25.374 -24.715,26.706c2.619,2.632 3.971,6.275 3.704,9.978l0,14.987c0,1.445 0.875,3.045 3.624,2.523c22.076,-7.331 37.07,-28.109 37.07,-51.37c0,-29.694 -24.434,-54.129 -54.128,-54.129c-0.03,0 -0.059,0 -0.089,0.001Z" style="fill:none;fill-rule:nonzero;stroke:#000;stroke-width:4.71px;"/></g><path d="M565.35,125.135l-61.188,0l-7.95,-31.808c-0.093,-0.373 -0.14,-0.755 -0.14,-1.139c0,-2.582 2.124,-4.706 4.706,-4.707l67.956,0c2.582,0.001 4.706,2.125 4.706,4.707c0,0.384 -0.047,0.766 -0.14,1.139l-7.95,31.808Z" style="fill:none;fill-rule:nonzero;stroke:#000;stroke-width:4.71px;"/><path d="M482.981,125.135l103.55,0" style="fill:none;fill-rule:nonzero;stroke:#000;stroke-width:4.71px;"/><path d="M534.756,73.36l0,7.061" style="fill:none;fill-rule:nonzero;stroke:#000;stroke-width:4.71px;"/><path d="M540.249,38.059c3.698,0.004 7.359,-0.744 10.76,-2.198c-1.046,-8.128 -8.042,-14.282 -16.237,-14.282c-5.833,0 -11.241,3.117 -14.165,8.164c5.149,5.314 12.242,8.318 19.642,8.316Z" style="fill:none;fill-rule:nonzero;stroke:#000;stroke-width:4.71px;"/><circle cx="534.756" cy="38.059" r="16.474" style="fill:none;stroke:#000;stroke-width:4.71px;"/><circle cx="534.756" cy="105.131" r="5.883" style="fill:none;stroke:#000;stroke-width:4.71px;"/><path d="M557.09,78.067c-3.017,-9.769 -12.109,-16.478 -22.334,-16.478c-10.225,0 -19.318,6.709 -22.334,16.478" style="fill:none;fill-rule:nonzero;stroke:#000;stroke-width:4.71px;"/><circle cx="65.213" cy="186.324" r="54.128" style="fill:none;stroke:#000;stroke-width:4.71px;"/><path d="M58.153,200.444c0,6.455 -5.312,11.767 -11.767,11.767c-6.456,0 -11.767,-5.312 -11.767,-11.767c0.059,-6.517 5.437,-11.847 11.954,-11.847c2.419,0 4.781,0.734 6.774,2.104" style="fill:none;fill-rule:nonzero;stroke:#000;stroke-width:4.71px;"/><circle cx="88.747" cy="200.444" r="11.767" style="fill:none;stroke:#000;stroke-width:4.71px;"/><path d="M46.386,200.444l16.473,0l16.474,-21.181l-21.18,4.707l-11.767,16.474Z" style="fill:none;fill-rule:nonzero;stroke:#000;stroke-width:4.71px;"/><path d="M62.859,200.444l-8.072,-28.26" style="fill:none;fill-rule:nonzero;stroke:#000;stroke-width:4.71px;"/><path d="M48.739,172.203l11.767,0" style="fill:none;fill-rule:nonzero;stroke:#000;stroke-width:4.71px;"/><path d="M88.747,200.444l-14.591,-32.792c-0.134,-0.301 -0.203,-0.626 -0.203,-0.955c0,-1.057 0.713,-1.99 1.732,-2.269l6.002,-1.638" style="fill:none;fill-rule:nonzero;stroke:#000;stroke-width:4.71px;"/><path d="M427.291,383.051c0,-2.598 -2.109,-4.707 -4.707,-4.707l-94.136,0c-2.597,0 -4.706,2.109 -4.706,4.707l0,61.188c0,2.598 2.109,4.707 4.706,4.707l94.136,0c2.598,0 4.707,-2.109 4.707,-4.707l0,-61.188Z" style="fill:none;stroke:#000;stroke-width:4.71px;"/><path d="M323.742,392.465l14.12,0c2.582,0 4.707,2.124 4.707,4.706l0,32.948c0,2.582 -2.125,4.707 -4.707,4.707l-14.12,0" style="fill:none;fill-rule:nonzero;stroke:#000;stroke-width:4.71px;"/><path d="M427.291,434.826l-14.12,0c-2.582,0 -4.707,-2.125 -4.707,-4.707l0,-32.948c0,-2.582 2.125,-4.706 4.707,-4.706l14.12,0" style="fill:none;fill-rule:nonzero;stroke:#000;stroke-width:4.71px;"/><path d="M375.516,378.344l0,70.602" style="fill:none;fill-rule:nonzero;stroke:#000;stroke-width:4.71px;"/><circle cx="375.516" cy="413.645" r="14.12" style="fill:none;stroke:#000;stroke-width:4.71px;"/><clipPath id="_clip2"><rect x="8.731" y="357.164" width="112.963" height="112.963"/></clipPath><g clip-path="url(#_clip2)"><path d="M50.772,394.818l28.881,0" style="fill:none;fill-rule:nonzero;stroke:#000;stroke-width:4.71px;"/><path d="M76.98,368.017c0,0.001 0,0.002 0,0.003c0,1.291 -1.063,2.354 -2.354,2.354c-0.252,0 -0.504,-0.041 -0.743,-0.121l-3.963,-1.322l-3.653,1.826c-0.663,0.332 -1.446,0.332 -2.109,0l-3.652,-1.826l-3.963,1.322c-0.24,0.08 -0.491,0.121 -0.744,0.121c-1.291,0 -2.353,-1.063 -2.353,-2.354c0,-0.001 0,-0.002 0,-0.003l0,-3.793c0,-2.582 2.124,-4.707 4.707,-4.707l14.12,0c2.582,0 4.707,2.125 4.707,4.707l0,3.793Z" style="fill:none;fill-rule:nonzero;stroke:#000;stroke-width:4.71px;"/><path d="M72.273,369.717c0.311,22.856 14.12,27.666 14.12,46.282c0,18.827 -7.06,21.754 -7.06,33.234c-0.117,4.002 0.995,7.946 3.187,11.297c0.488,0.759 0.748,1.643 0.748,2.546c0,2.582 -2.125,4.707 -4.707,4.707c-0.001,0 -0.003,0 -0.004,0l-26.688,0c-0.002,0 -0.003,0 -0.005,0c-2.582,0 -4.706,-2.125 -4.706,-4.707c0,-0.903 0.259,-1.787 0.748,-2.546c2.192,-3.353 3.304,-7.298 3.186,-11.301c0,-11.476 -7.06,-14.403 -7.06,-33.23c0,-18.616 13.805,-23.426 14.121,-46.282" style="fill:none;fill-rule:nonzero;stroke:#000;stroke-width:4.71px;"/><path d="M58.153,405.408c0.645,0 1.176,0.531 1.176,1.177c0,0.645 -0.531,1.177 -1.176,1.177c-0.646,0 -1.177,-0.532 -1.177,-1.177c0,-0.646 0.531,-1.177 1.177,-1.177" style="fill:none;fill-rule:nonzero;stroke:#000;stroke-width:4.71px;"/><path d="M73.45,408.938c0.645,0 1.176,0.532 1.176,1.177c0,0.646 -0.531,1.177 -1.176,1.177" style="fill:none;fill-rule:nonzero;stroke:#000;stroke-width:4.71px;"/><path d="M73.45,411.292c-0.646,0 -1.177,-0.531 -1.177,-1.177c0,-0.645 0.531,-1.177 1.177,-1.177" style="fill:none;fill-rule:nonzero;stroke:#000;stroke-width:4.71px;"/><path d="M54.622,420.705c0.646,0 1.177,0.532 1.177,1.177c0,0.646 -0.531,1.177 -1.177,1.177c-0.645,0 -1.176,-0.531 -1.176,-1.177c0,-0.645 0.531,-1.177 1.176,-1.177" style="fill:none;fill-rule:nonzero;stroke:#000;stroke-width:4.71px;"/><path d="M73.45,427.766c0.645,0 1.176,0.531 1.176,1.176c0,0.646 -0.531,1.177 -1.176,1.177c-0.646,0 -1.177,-0.531 -1.177,-1.177c0,-0.645 0.531,-1.176 1.177,-1.176" style="fill:none;fill-rule:nonzero;stroke:#000;stroke-width:4.71px;"/><path d="M61.683,437.179c0.645,0 1.176,0.531 1.176,1.177c0,0.645 -0.531,1.177 -1.176,1.177c-0.646,0 -1.177,-0.532 -1.177,-1.177c0,-0.646 0.531,-1.177 1.177,-1.177" style="fill:none;fill-rule:nonzero;stroke:#000;stroke-width:4.71px;"/><path d="M68.743,453.653c0.645,0 1.177,0.531 1.177,1.177c0,0.645 -0.532,1.176 -1.177,1.176c-0.646,0 -1.177,-0.531 -1.177,-1.176c0,-0.646 0.531,-1.177 1.177,-1.177" style="fill:none;fill-rule:nonzero;stroke:#000;stroke-width:4.71px;"/></g><path d="M201.204,524.255l28.871,0" style="fill:none;fill-rule:nonzero;stroke:#000;stroke-width:4.71px;"/><path d="M225.053,561.909c0,6.59 -9.414,11.767 -9.414,11.767c0,0 -9.413,-5.177 -9.413,-11.767c0,-6.589 6.425,-7.06 9.413,-7.06c2.989,0 9.414,0.471 9.414,7.06Z" style="fill:none;fill-rule:nonzero;stroke:#000;stroke-width:4.71px;"/><path d="M215.639,481.894l0,-4.707" style="fill:none;fill-rule:nonzero;stroke:#000;stroke-width:4.71px;"/><path d="M229.76,493.661l-14.121,-11.767l-14.12,11.767c-4.134,3.413 -5.966,8.909 -4.707,14.12l9.414,35.301l18.827,0l9.414,-35.301c1.259,-5.211 -0.573,-10.707 -4.707,-14.12Z" style="fill:none;fill-rule:nonzero;stroke:#000;stroke-width:4.71px;"/><path d="M201.204,524.255l-4.011,2.076c-3.12,1.614 -5.087,4.846 -5.088,8.359l0,13.41c0.001,1.29 1.063,2.352 2.354,2.352c0.464,0 0.917,-0.137 1.304,-0.394l10.463,-6.976" style="fill:none;fill-rule:nonzero;stroke:#000;stroke-width:4.71px;"/><path d="M230.075,524.255l4.01,2.076c3.121,1.614 5.088,4.846 5.088,8.359l0,13.41c0,1.29 -1.062,2.352 -2.353,2.352c-0.464,0 -0.918,-0.137 -1.304,-0.394l-10.463,-6.976" style="fill:none;fill-rule:nonzero;stroke:#000;stroke-width:4.71px;"/><circle cx="215.639" cy="505.428" r="7.06" style="fill:none;stroke:#000;stroke-width:4.71px;"/><path d="M194.459,559.556c-4.467,0 -9.414,2.593 -9.414,7.06c0,0.362 -0.047,2 0,2.353l-2.353,0c-0.099,-0.002 -0.197,-0.003 -0.296,-0.003c-6.295,0 -11.475,5.18 -11.475,11.475c0,0.098 0.001,0.197 0.004,0.295" style="fill:none;fill-rule:nonzero;stroke:#000;stroke-width:4.71px;"/><path d="M234.467,559.556c4.466,0 9.413,2.593 9.413,7.06c0,0.362 0.047,2 0,2.353l2.354,0c0.098,-0.002 0.197,-0.003 0.295,-0.003c6.295,0 11.475,5.18 11.475,11.475c0,0.098 -0.001,0.197 -0.003,0.295" style="fill:none;fill-rule:nonzero;stroke:#000;stroke-width:4.71px;"/><path d="M220.346,19.581c10.186,-0.015 20.167,2.875 28.768,8.331c22.357,14.172 24.005,43.443 6.19,64.845c-10.166,12.209 -21.356,23.528 -33.447,33.833c-0.871,0.729 -2.151,0.729 -3.022,0c-12.091,-10.308 -23.28,-21.628 -33.446,-33.838c-17.811,-21.397 -16.168,-50.668 6.189,-64.84c8.601,-5.456 18.583,-8.346 28.768,-8.331Z" style="fill:none;fill-rule:nonzero;stroke:#000;stroke-width:4.71px;"/><path d="M239.173,52.528c0,-2.598 -2.109,-4.707 -4.706,-4.707l-28.241,0c-2.598,0 -4.707,2.109 -4.707,4.707l0,28.241c0,2.598 2.109,4.707 4.707,4.707l28.241,0c2.597,0 4.706,-2.109 4.706,-4.707l0,-28.241Z" style="fill:none;stroke:#000;stroke-width:4.71px;"/><path d="M201.519,66.649l37.654,0" style="fill:none;fill-rule:nonzero;stroke:#000;stroke-width:4.71px;"/><path d="M210.933,74.885c0.645,0 1.176,0.532 1.176,1.177" style="fill:none;fill-rule:nonzero;stroke:#000;stroke-width:4.71px;"/><path d="M209.756,76.062c0,-0.645 0.531,-1.177 1.177,-1.177" style="fill:none;fill-rule:nonzero;stroke:#000;stroke-width:4.71px;"/><path d="M210.933,77.239c-0.646,0 -1.177,-0.531 -1.177,-1.177" style="fill:none;fill-rule:nonzero;stroke:#000;stroke-width:4.71px;"/><path d="M212.109,76.062c0,0.646 -0.531,1.177 -1.176,1.177" style="fill:none;fill-rule:nonzero;stroke:#000;stroke-width:4.71px;"/><path d="M229.76,74.885c0.645,0 1.177,0.532 1.177,1.177" style="fill:none;fill-rule:nonzero;stroke:#000;stroke-width:4.71px;"/><path d="M228.583,76.062c0,-0.645 0.531,-1.177 1.177,-1.177" style="fill:none;fill-rule:nonzero;stroke:#000;stroke-width:4.71px;"/><path d="M229.76,77.239c-0.646,0 -1.177,-0.531 -1.177,-1.177" style="fill:none;fill-rule:nonzero;stroke:#000;stroke-width:4.71px;"/><path d="M230.937,76.062c0,0.646 -0.532,1.177 -1.177,1.177" style="fill:none;fill-rule:nonzero;stroke:#000;stroke-width:4.71px;"/><path d="M215.639,38.408l9.414,0" style="fill:none;fill-rule:nonzero;stroke:#000;stroke-width:4.71px;"/><path d="M206.226,85.476l-12.567,16.756" style="fill:none;fill-rule:nonzero;stroke:#000;stroke-width:4.71px;"/><path d="M234.467,85.476l12.567,16.756" style="fill:none;fill-rule:nonzero;stroke:#000;stroke-width:4.71px;"/><clipPath id="_clip3"><rect x="478.306" y="242.805" width="112.963" height="112.963"/></clipPath><g clip-path="url(#_clip3)"><g><path d="M584.91,314.73c-1.709,-2.886 -4.415,-4.905 -7.616,-5.681c-1.708,-0.419 -3.44,-0.419 -5.111,-0.085c0.24,-2.325 0.405,-4.683 0.405,-7.093c0,-1.299 -1.055,-2.354 -2.354,-2.354l-80.025,0c-1.299,0 -2.353,1.055 -2.353,2.354c0,22.051 10.364,41.034 25.176,49.487l-22.752,0c-1.299,0 -2.354,1.054 -2.354,2.353c0,1.299 1.055,2.354 2.354,2.354l79.785,0c1.299,0 2.353,-1.055 2.353,-2.354c0,-1.299 -1.054,-2.353 -2.353,-2.353l-22.654,0c7.799,-4.453 14.341,-11.833 18.808,-21.049c1.53,1.464 3.375,2.547 5.474,3.055c0.932,0.231 1.878,0.339 2.824,0.339c2.222,0 4.406,-0.626 6.34,-1.845c5.696,-3.577 7.512,-11.259 4.053,-17.128Zm-54.688,36.628c-20.164,0 -36.68,-20.936 -37.622,-47.134l75.238,0c-0.936,26.198 -17.452,47.134 -37.616,47.134Zm48.127,-23.482c-1.671,1.054 -3.634,1.384 -5.55,0.913c-1.873,-0.452 -3.454,-1.624 -4.513,-3.281c1.369,-3.596 2.442,-7.404 3.167,-11.386c1.488,-0.691 3.135,-0.889 4.726,-0.503c1.958,0.475 3.624,1.718 4.674,3.502c2.184,3.695 1.059,8.514 -2.504,10.755Z" style="fill-rule:nonzero;"/><path d="M524.715,289.638c0.08,0.009 0.15,0.009 0.226,0.009c1.181,0 2.184,-0.894 2.32,-2.099c0.141,-1.276 -0.786,-2.433 -2.066,-2.594c-0.076,-0.004 -1.803,-0.235 -2.528,-1.774c-0.55,-1.163 -1.238,-4.815 4.26,-13.518c5.337,-8.434 7.187,-15.019 5.502,-19.571c-1.266,-3.422 -4.015,-4.354 -4.321,-4.448c-1.214,-0.362 -2.457,0.297 -2.871,1.492c-0.414,1.196 0.236,2.528 1.417,2.984c0.099,0.038 0.974,0.41 1.412,1.742c0.584,1.765 0.692,6.105 -5.112,15.288c-5.008,7.912 -6.519,14.021 -4.495,18.144c1.521,3.107 4.651,4.194 6.256,4.345Z" style="fill-rule:nonzero;"/><path d="M540.313,289.638c0.08,0.004 0.151,0.009 0.226,0.009c1.167,0 2.142,-0.875 2.292,-2.061c0.16,-1.262 -0.753,-2.429 -2.01,-2.627c-0.051,-0.009 -0.503,-0.094 -0.673,-0.456c-0.127,-0.287 -0.63,-1.968 2.377,-6.717c3.257,-5.159 4.316,-9.098 3.229,-12.045c-0.678,-1.826 -2.099,-2.838 -3.111,-3.149c-1.262,-0.371 -2.641,0.288 -3.027,1.53c-0.381,1.243 0.24,2.532 1.478,2.914c0.033,0.019 0.189,0.117 0.287,0.485c0.142,0.545 0.353,2.715 -2.838,7.756c-3.092,4.895 -3.949,8.6 -2.612,11.325c1.313,2.673 4.071,3.008 4.382,3.036Z" style="fill-rule:nonzero;"/></g></g><circle cx="497.107" cy="564.289" r="14.124" style="fill:none;stroke:#000;stroke-width:4.71px;"/><rect x="520.647" y="550.164" width="28.249" height="28.249" style="fill:none;stroke:#000;stroke-width:4.71px;"/><path d="M572.436,550.164l-14.124,28.249l28.249,0l-14.125,-28.249Z" style="fill:none;fill-rule:nonzero;stroke:#000;stroke-width:4.71px;"/><path d="M541.834,526.624l-14.125,0" style="fill:none;fill-rule:nonzero;stroke:#000;stroke-width:4.71px;"/><path d="M548.896,500.729c-0.218,-7.663 -6.461,-13.906 -14.124,-14.124c-7.664,0.218 -13.907,6.461 -14.125,14.124c0.108,4.891 2.798,9.374 7.062,11.771l0,4.708l14.125,0l0,-4.708c4.263,-2.398 6.952,-6.881 7.062,-11.771Z" style="fill:none;fill-rule:nonzero;stroke:#000;stroke-width:4.71px;"/><path d="M497.107,550.164l0,-11.77c0,-1.291 1.062,-2.354 2.354,-2.354l70.621,0c1.292,0 2.354,1.063 2.354,2.354l0,11.77" style="fill:none;fill-rule:nonzero;stroke:#000;stroke-width:4.71px;"/><path d="M534.772,526.624l0,21.186" style="fill:none;fill-rule:nonzero;stroke:#000;stroke-width:4.71px;"/><path d="M534.772,474.835l0,4.708" style="fill:none;fill-rule:nonzero;stroke:#000;stroke-width:4.71px;"/><path d="M553.081,482.42l-3.328,3.328" style="fill:none;fill-rule:nonzero;stroke:#000;stroke-width:4.71px;"/><path d="M560.666,498.375l-4.708,0" style="fill:none;fill-rule:nonzero;stroke:#000;stroke-width:4.71px;"/><path d="M516.462,482.42l3.328,3.328" style="fill:none;fill-rule:nonzero;stroke:#000;stroke-width:4.71px;"/><path d="M508.877,498.375l4.708,0" style="fill:none;fill-rule:nonzero;stroke:#000;stroke-width:4.71px;"/></svg>