<svg width="100%" height="100%" viewBox="0 0 600 600" version="1.1" xmlns="http://www.w3.org/2000/svg" xml:space="preserve" fill-rule="evenodd" clip-rule="evenodd" stroke-linecap="round" stroke-linejoin="round"><g transform="matrix(1,0,0,1,76.8426,-2.5656)"><path d="M220.346,245.159C220.329,245.158 220.312,245.158 220.295,245.158C190.601,245.158 166.167,269.593 166.167,299.287C166.167,322.548 181.161,343.326 203.237,350.657C205.939,351.127 206.795,349.541 206.795,348.11C206.795,346.816 206.824,343.229 206.795,338.697C191.734,341.963 188.622,331.566 188.622,331.566C187.63,328.296 185.498,325.486 182.617,323.649C177.703,320.288 182.984,320.354 182.984,320.354C186.458,320.831 189.523,322.891 191.277,325.927C193.298,329.609 197.178,331.906 201.378,331.906C203.356,331.906 205.302,331.397 207.026,330.427C207.276,327.691 208.495,325.133 210.462,323.216C198.445,321.842 185.808,317.201 185.808,296.453C185.731,291.076 187.73,285.872 191.385,281.928C189.729,277.263 189.918,272.136 191.912,267.605C193.907,263.074 196.464,266.151 206.795,273.159C215.668,270.725 225.034,270.725 233.906,273.159C244.261,266.156 248.775,267.605 248.775,267.605C250.771,272.135 250.963,277.261 249.312,281.928C252.968,285.874 254.964,291.084 254.88,296.463C254.88,317.267 242.223,321.837 230.165,323.169C232.784,325.801 234.136,329.444 233.869,333.147L233.869,348.134C233.869,349.579 234.744,351.179 237.493,350.657C259.569,343.326 274.563,322.548 274.563,299.287C274.563,269.593 250.129,245.158 220.435,245.158C220.405,245.158 220.376,245.158 220.346,245.159Z" fill="none" fill-rule="nonzero" stroke="#000" stroke-width="4.71px"/></g><g transform="matrix(1,0,0,1,-112.34,54.233)" fill="none" stroke="#000" stroke-width="4.71px"><path d="M565.35 125.135L504.162 125.135 496.212 93.327C496.119 92.954 496.072 92.572 496.072 92.188 496.072 89.606 498.196 87.482 500.778 87.481L568.734 87.481C571.316 87.482 573.44 89.606 573.44 92.188 573.44 92.572 573.393 92.954 573.3 93.327L565.35 125.135zM482.981 125.135L586.531 125.135M534.756 73.36L534.756 80.421M540.249 38.059C543.947 38.063 547.608 37.315 551.009 35.861 549.963 27.733 542.967 21.579 534.772 21.579 528.939 21.579 523.531 24.696 520.607 29.743 525.756 35.057 532.849 38.061 540.249 38.059z" fill-rule="nonzero"/><circle cx="534.756" cy="38.059" r="16.474"/><circle cx="534.756" cy="105.131" r="5.883"/><path d="M557.09,78.067C554.073,68.298 544.981,61.589 534.756,61.589C524.531,61.589 515.438,68.298 512.422,78.067" fill-rule="nonzero"/></g><g transform="matrix(1,0,0,1,-192.354,-286.055)" fill="none" stroke="#000" stroke-width="4.71px"><path d="M427.291,383.051C427.291,380.453 425.182,378.344 422.584,378.344L328.448,378.344C325.851,378.344 323.742,380.453 323.742,383.051L323.742,444.239C323.742,446.837 325.851,448.946 328.448,448.946L422.584,448.946C425.182,448.946 427.291,446.837 427.291,444.239L427.291,383.051Z"/><path d="M323.742 392.465L337.862 392.465C340.444 392.465 342.569 394.589 342.569 397.171L342.569 430.119C342.569 432.701 340.444 434.826 337.862 434.826L323.742 434.826M427.291 434.826L413.171 434.826C410.589 434.826 408.464 432.701 408.464 430.119L408.464 397.171C408.464 394.589 410.589 392.465 413.171 392.465L427.291 392.465M375.516 378.344L375.516 448.946" fill-rule="nonzero"/><circle cx="375.516" cy="413.645" r="14.12"/></g><g transform="matrix(1,0,0,1,117.95,58.94)"><g fill="none" fill-rule="nonzero" stroke="#000" stroke-width="4.71px"><path d="M50.772 394.818L79.653 394.818M76.98 364.224L76.98 368.02C76.98 369.311 75.917 370.374 74.626 370.374 74.374 370.374 74.122 370.333 73.883 370.253L69.92 368.931 66.267 370.757C65.604 371.089 64.821 371.089 64.158 370.757L60.506 368.931 56.543 370.253C56.303 370.333 56.052 370.374 55.799 370.374 54.508 370.374 53.446 369.311 53.446 368.02L53.446 364.224C53.446 361.642 55.57 359.517 58.153 359.517L72.273 359.517C74.855 359.517 76.98 361.642 76.98 364.224z"/><path d="M72.273,369.717C72.584,392.573 86.393,397.383 86.393,415.999C86.393,434.826 79.333,437.753 79.333,449.233C79.216,453.235 80.328,457.179 82.52,460.53C83.008,461.289 83.268,462.173 83.268,463.076C83.268,465.658 81.143,467.783 78.561,467.783L51.864,467.783C49.282,467.783 47.158,465.658 47.158,463.076C47.158,462.173 47.417,461.289 47.906,460.53C50.098,457.177 51.21,453.232 51.092,449.229C51.092,437.753 44.032,434.826 44.032,415.999C44.032,397.383 57.837,392.573 58.153,369.717"/><path d="M58.153 405.408C58.798 405.408 59.329 405.939 59.329 406.585 59.329 407.23 58.798 407.762 58.153 407.762 57.507 407.762 56.976 407.23 56.976 406.585 56.976 405.939 57.507 405.408 58.153 405.408M73.45 408.938C74.095 408.938 74.626 409.47 74.626 410.115 74.626 410.761 74.095 411.292 73.45 411.292M73.45 411.292C72.804 411.292 72.273 410.761 72.273 410.115 72.273 409.47 72.804 408.938 73.45 408.938M54.622 420.705C55.268 420.705 55.799 421.237 55.799 421.882 55.799 422.528 55.268 423.059 54.622 423.059 53.977 423.059 53.446 422.528 53.446 421.882 53.446 421.237 53.977 420.705 54.622 420.705M73.45 427.766C74.095 427.766 74.626 428.297 74.626 428.942 74.626 429.588 74.095 430.119 73.45 430.119 72.804 430.119 72.273 429.588 72.273 428.942 72.273 428.297 72.804 427.766 73.45 427.766M61.683 437.179C62.328 437.179 62.859 437.71 62.859 438.356 62.859 439.001 62.328 439.533 61.683 439.533 61.037 439.533 60.506 439.001 60.506 438.356 60.506 437.71 61.037 437.179 61.683 437.179M68.743 453.653C69.388 453.653 69.92 454.184 69.92 454.83 69.92 455.475 69.388 456.006 68.743 456.006 68.097 456.006 67.566 455.475 67.566 454.83 67.566 454.184 68.097 453.653 68.743 453.653"/></g></g><g transform="matrix(1,0,0,1,-134.792,-234.374)" fill="none" stroke="#000" stroke-width="4.71px"><path d="M201.204 524.255L230.075 524.255M225.053 561.909C225.053 568.499 215.639 573.676 215.639 573.676 215.639 573.676 206.226 568.499 206.226 561.909 206.226 555.32 212.651 554.849 215.639 554.849 218.628 554.849 225.053 555.32 225.053 561.909zM215.639 481.894L215.639 477.187M229.76 493.661L215.639 481.894 201.519 493.661C197.385 497.074 195.553 502.57 196.812 507.781L206.226 543.082 225.053 543.082 234.467 507.781C235.726 502.57 233.894 497.074 229.76 493.661zM201.204 524.255L197.193 526.331C194.073 527.945 192.106 531.177 192.105 534.69L192.105 548.1C192.106 549.39 193.168 550.452 194.459 550.452 194.923 550.452 195.376 550.315 195.763 550.058L206.226 543.082M230.075 524.255L234.085 526.331C237.206 527.945 239.173 531.177 239.173 534.69L239.173 548.1C239.173 549.39 238.111 550.452 236.82 550.452 236.356 550.452 235.902 550.315 235.516 550.058L225.053 543.082" fill-rule="nonzero"/><circle cx="215.639" cy="505.428" r="7.06"/><path d="M194.459 559.556C189.992 559.556 185.045 562.149 185.045 566.616 185.045 566.978 184.998 568.616 185.045 568.969L182.692 568.969C182.593 568.967 182.495 568.966 182.396 568.966 176.101 568.966 170.921 574.146 170.921 580.441 170.921 580.539 170.922 580.638 170.925 580.736M234.467 559.556C238.933 559.556 243.88 562.149 243.88 566.616 243.88 566.978 243.927 568.616 243.88 568.969L246.234 568.969C246.332 568.967 246.431 568.966 246.529 568.966 252.824 568.966 258.004 574.146 258.004 580.441 258.004 580.539 258.003 580.638 258.001 580.736" fill-rule="nonzero"/></g><g transform="matrix(1,0,0,1,-22.7924,-6.21643)"><g><g fill-rule="nonzero"><path d="M584.91 314.73C583.201 311.844 580.495 309.825 577.294 309.049 575.586 308.63 573.854 308.63 572.183 308.964 572.423 306.639 572.588 304.281 572.588 301.871 572.588 300.572 571.533 299.517 570.234 299.517L490.209 299.517C488.91 299.517 487.856 300.572 487.856 301.871 487.856 323.922 498.22 342.905 513.032 351.358L490.28 351.358C488.981 351.358 487.926 352.412 487.926 353.711 487.926 355.01 488.981 356.065 490.28 356.065L570.065 356.065C571.364 356.065 572.418 355.01 572.418 353.711 572.418 352.412 571.364 351.358 570.065 351.358L547.411 351.358C555.21 346.905 561.752 339.525 566.219 330.309 567.749 331.773 569.594 332.856 571.693 333.364 572.625 333.595 573.571 333.703 574.517 333.703 576.739 333.703 578.923 333.077 580.857 331.858 586.553 328.281 588.369 320.599 584.91 314.73zM530.222 351.358C510.058 351.358 493.542 330.422 492.6 304.224L567.838 304.224C566.902 330.422 550.386 351.358 530.222 351.358zM578.349 327.876C576.678 328.93 574.715 329.26 572.799 328.789 570.926 328.337 569.345 327.165 568.286 325.508 569.655 321.912 570.728 318.104 571.453 314.122 572.941 313.431 574.588 313.233 576.179 313.619 578.137 314.094 579.803 315.337 580.853 317.121 583.037 320.816 581.912 325.635 578.349 327.876zM524.715 289.638C524.795 289.647 524.865 289.647 524.941 289.647 526.122 289.647 527.125 288.753 527.261 287.548 527.402 286.272 526.475 285.115 525.195 284.954 525.119 284.95 523.392 284.719 522.667 283.18 522.117 282.017 521.429 278.365 526.927 269.662 532.264 261.228 534.114 254.643 532.429 250.091 531.163 246.669 528.414 245.737 528.108 245.643 526.894 245.281 525.651 245.94 525.237 247.135 524.823 248.331 525.473 249.663 526.654 250.119 526.753 250.157 527.628 250.529 528.066 251.861 528.65 253.626 528.758 257.966 522.954 267.149 517.946 275.061 516.435 281.17 518.459 285.293 519.98 288.4 523.11 289.487 524.715 289.638zM540.313 289.638C540.393 289.642 540.464 289.647 540.539 289.647 541.706 289.647 542.681 288.772 542.831 287.586 542.991 286.324 542.078 285.157 540.821 284.959 540.77 284.95 540.318 284.865 540.148 284.503 540.021 284.216 539.518 282.535 542.525 277.786 545.782 272.627 546.841 268.688 545.754 265.741 545.076 263.915 543.655 262.903 542.643 262.592 541.381 262.221 540.002 262.88 539.616 264.122 539.235 265.365 539.856 266.654 541.094 267.036 541.127 267.055 541.283 267.153 541.381 267.521 541.523 268.066 541.734 270.236 538.543 275.277 535.451 280.172 534.594 283.877 535.931 286.602 537.244 289.275 540.002 289.61 540.313 289.638z"/></g></g></g><g transform="matrix(1,0,0,1,-112.37,-51.87)" fill="none" stroke="#000" stroke-width="4.71px"><circle cx="497.107" cy="564.289" r="14.124"/><rect x="520.647" y="550.164" width="28.249" height="28.249"/><path d="M572.436 550.164L558.312 578.413 586.561 578.413 572.436 550.164zM541.834 526.624L527.709 526.624M548.896 500.729C548.678 493.066 542.435 486.823 534.772 486.605 527.108 486.823 520.865 493.066 520.647 500.729 520.755 505.62 523.445 510.103 527.709 512.5L527.709 517.208 541.834 517.208 541.834 512.5C546.097 510.102 548.786 505.619 548.896 500.729zM497.107 550.164L497.107 538.394C497.107 537.103 498.169 536.04 499.461 536.04L570.082 536.04C571.374 536.04 572.436 537.103 572.436 538.394L572.436 550.164M534.772 526.624L534.772 547.81M534.772 474.835L534.772 479.543M553.081 482.42L549.753 485.748M560.666 498.375L555.958 498.375M516.462 482.42L519.79 485.748M508.877 498.375L513.585 498.375" fill-rule="nonzero"/></g></svg>