<?xml version="1.0" encoding="UTF-8" standalone="no"?><!DOCTYPE svg PUBLIC "-//W3C//DTD SVG 1.1//EN" "http://www.w3.org/Graphics/SVG/1.1/DTD/svg11.dtd"><svg width="100%" height="100%" viewBox="0 0 900 400" version="1.1" xmlns="http://www.w3.org/2000/svg" xmlns:xlink="http://www.w3.org/1999/xlink" xml:space="preserve" xmlns:serif="http://www.serif.com/" style="fill-rule:evenodd;clip-rule:evenodd;stroke-linejoin:round;stroke-miterlimit:2;"><circle cx="646.994" cy="200" r="188.126"/><circle cx="253.006" cy="200" r="188.126" style="fill:#00b4f0;"/><path id="Layer.-1" d="M164.134,120.424l58.855,0c26.781,0 28.844,20.599 29.723,30.898c1.474,-10.299 3.533,-30.898 30.309,-30.898l58.861,0c12.359,0 17.657,-5.59 17.657,-13.83l0,-7.36c0,-7.652 4.118,-13.242 13.241,-13.242c8.533,0 13.245,5.59 13.245,13.242l0,21.779c0,25.6 -12.067,38.258 -39.141,38.258l-60.034,0c-17.95,0 -19.721,7.646 -19.721,15.006c0,9.713 -7.057,14.129 -14.123,14.129c-7.06,0 -14.128,-4.416 -14.128,-14.129c0,-7.36 -1.761,-15.006 -19.715,-15.006l-60.034,0c-27.077,0 -39.141,-12.658 -39.141,-38.258l0,-21.779c0,-7.652 4.71,-13.242 13.243,-13.242c9.123,0 13.247,5.59 13.247,13.242l0,7.36c0,8.24 5.296,13.83 17.656,13.83m72.112,208.289l-31.332,-92.807l-1.961,0c-10.186,0 -15.328,-7.95 -15.328,-15.329c0,-7.379 5.142,-15.329 15.328,-15.329l12.142,0c6.499,0 12.037,4.215 14.152,9.44l24.004,81.234l24.05,-81.336c2.174,-4.869 7.488,-9.338 14.109,-9.338l12.14,0c10.188,0 15.329,7.95 15.329,15.329c0,7.379 -5.141,15.329 -15.329,15.329l-1.96,0l-31.33,92.807c-2.165,5.025 -6.044,9.365 -16.97,9.365c-10.982,0 -14.873,-4.325 -17.044,-9.365" style="fill:#fff;fill-rule:nonzero;"/><g><path d="M530.827,173.178c1.837,0 3.407,0.495 4.712,1.486c1.305,0.991 2.272,2.187 2.9,3.588l16.673,39.146c0.483,1.208 0.725,2.296 0.725,3.262c0,1.402 -0.496,2.598 -1.486,3.588c-0.991,0.991 -2.187,1.487 -3.589,1.487c-2.512,0 -4.325,-1.45 -5.436,-4.35l-3.263,-8.337l-22.472,0l-3.263,8.337c-1.111,2.9 -2.923,4.35 -5.436,4.35c-1.402,0 -2.598,-0.496 -3.589,-1.487c-0.99,-0.99 -1.486,-2.186 -1.486,-3.588c0,-0.435 0.061,-0.918 0.182,-1.45c0.12,-0.531 0.253,-0.966 0.398,-1.304l0.145,-0.508l16.674,-39.146c0.628,-1.401 1.594,-2.597 2.899,-3.588c1.305,-0.991 2.876,-1.486 4.712,-1.486Zm-0.218,11.961l-7.393,18.486l15.223,0l-7.394,-18.486l-0.436,0Z" style="fill:#fff;fill-rule:nonzero;"/><path d="M564.608,174.628l14.571,0c6.766,0 12.312,2.03 16.637,6.089c4.325,4.06 6.488,9.062 6.488,15.006l0,8.554c0,5.944 -2.163,10.946 -6.488,15.006c-4.325,4.059 -9.871,6.089 -16.637,6.089l-14.571,0c-1.45,0 -2.658,-0.483 -3.625,-1.45c-0.966,-0.966 -1.449,-2.174 -1.449,-3.624l0,-40.596c0,-1.45 0.483,-2.658 1.449,-3.624c0.967,-0.967 2.175,-1.45 3.625,-1.45Zm5.075,41.32l9.496,0c3.866,0 6.995,-1.099 9.388,-3.298c2.392,-2.199 3.588,-4.99 3.588,-8.373l0,-8.554c0,-3.383 -1.196,-6.174 -3.588,-8.373c-2.393,-2.199 -5.522,-3.298 -9.388,-3.298l-9.496,0l0,31.896Z" style="fill:#fff;fill-rule:nonzero;"/><path d="M613.973,174.628l14.571,0c6.766,0 12.312,2.03 16.636,6.089c4.326,4.06 6.489,9.062 6.489,15.006l0,8.554c0,5.944 -2.163,10.946 -6.489,15.006c-4.324,4.059 -9.87,6.089 -16.636,6.089l-14.571,0c-1.45,0 -2.658,-0.483 -3.625,-1.45c-0.966,-0.966 -1.449,-2.174 -1.449,-3.624l0,-40.596c0,-1.45 0.483,-2.658 1.449,-3.624c0.967,-0.967 2.175,-1.45 3.625,-1.45Zm5.075,41.32l9.496,0c3.866,0 6.995,-1.099 9.388,-3.298c2.392,-2.199 3.588,-4.99 3.588,-8.373l0,-8.554c0,-3.383 -1.196,-6.174 -3.588,-8.373c-2.393,-2.199 -5.522,-3.298 -9.388,-3.298l-9.496,0l0,31.896Z" style="fill:#fff;fill-rule:nonzero;"/><path d="M684.365,205.074l-26.097,0c-1.256,0 -2.295,-0.41 -3.117,-1.232c-0.822,-0.821 -1.232,-1.86 -1.232,-3.117c0,-1.257 0.41,-2.296 1.232,-3.117c0.822,-0.822 1.861,-1.233 3.117,-1.233l26.097,0c1.257,0 2.296,0.411 3.117,1.233c0.822,0.821 1.233,1.86 1.233,3.117c0,1.257 -0.411,2.296 -1.233,3.117c-0.821,0.822 -1.86,1.232 -3.117,1.232Z" style="fill:#fff;fill-rule:nonzero;"/><path d="M736.995,194.201l0,11.598c0,5.896 -2.151,10.874 -6.452,14.933c-4.301,4.06 -9.762,6.09 -16.383,6.09c-6.621,0 -12.082,-2.03 -16.383,-6.09c-4.302,-4.059 -6.452,-9.037 -6.452,-14.933l0,-11.598c0,-5.896 2.15,-10.874 6.452,-14.933c4.301,-4.06 9.762,-6.09 16.383,-6.09c6.621,0 12.082,2.03 16.383,6.09c4.301,4.059 6.452,9.037 6.452,14.933Zm-22.835,23.197c3.769,0 6.826,-1.1 9.17,-3.298c2.344,-2.199 3.516,-4.966 3.516,-8.301l0,-11.598c0,-3.335 -1.172,-6.102 -3.516,-8.301c-2.344,-2.198 -5.401,-3.298 -9.17,-3.298c-3.77,0 -6.826,1.1 -9.17,3.298c-2.344,2.199 -3.516,4.966 -3.516,8.301l0,11.598c0,3.335 1.172,6.102 3.516,8.301c2.344,2.198 5.4,3.298 9.17,3.298Z" style="fill:#fff;fill-rule:nonzero;"/><path d="M777.663,207.249l0.362,0l0,-27.909c0,-1.498 0.447,-2.719 1.342,-3.661c0.894,-0.942 2.138,-1.414 3.733,-1.414c1.595,0 2.839,0.472 3.733,1.414c0.894,0.942 1.341,2.163 1.341,3.661l0,41.32c0,1.45 -0.483,2.658 -1.449,3.625c-0.967,0.966 -2.175,1.45 -3.625,1.45c-2.126,0 -3.818,-0.846 -5.075,-2.538l-23.559,-30.446l-0.363,0l0,27.909c0,1.498 -0.447,2.719 -1.341,3.661c-0.894,0.942 -2.138,1.414 -3.733,1.414c-1.595,0 -2.839,-0.472 -3.733,-1.414c-0.895,-0.942 -1.342,-2.163 -1.342,-3.661l0,-41.32c0,-1.45 0.484,-2.658 1.45,-3.625c0.967,-0.966 2.175,-1.45 3.625,-1.45c2.126,0 3.818,0.846 5.074,2.538l23.56,30.446Z" style="fill:#fff;fill-rule:nonzero;"/></g></svg>