<?xml version="1.0" encoding="UTF-8" standalone="no"?><!DOCTYPE svg PUBLIC "-//W3C//DTD SVG 1.1//EN" "http://www.w3.org/Graphics/SVG/1.1/DTD/svg11.dtd"><svg width="100%" height="100%" viewBox="0 0 1473 850" version="1.1" xmlns="http://www.w3.org/2000/svg" xmlns:xlink="http://www.w3.org/1999/xlink" xml:space="preserve" style="fill-rule:evenodd;clip-rule:evenodd;stroke-linejoin:round;stroke-miterlimit:1.41421;"><g><circle cx="1099.16" cy="425" r="346.337"/><circle cx="373.837" cy="425" r="346.337" style="fill:#00b4f0;"/><path id="Layer.-1" d="M210.225,278.502l108.35,0c49.303,0 53.101,37.922 54.72,56.882c2.713,-18.96 6.504,-56.882 55.798,-56.882l108.363,0c22.752,0 32.505,-10.291 32.505,-25.461l0,-13.55c0,-14.086 7.581,-24.378 24.377,-24.378c15.709,0 24.384,10.292 24.384,24.378l0,40.095c0,47.129 -22.216,70.433 -72.058,70.433l-110.522,0c-33.046,0 -36.305,14.076 -36.305,27.626c0,17.88 -12.992,26.01 -26,26.01c-12.998,0 -26.01,-8.13 -26.01,-26.01c0,-13.55 -3.242,-27.626 -36.295,-27.626l-110.522,0c-49.848,0 -72.058,-23.304 -72.058,-70.433l0,-40.095c0,-14.086 8.672,-24.378 24.381,-24.378c16.796,0 24.387,10.292 24.387,24.378l0,13.55c0,15.17 9.75,25.461 32.505,25.461m132.757,383.457l-57.682,-170.857l-3.611,0c-18.752,0 -28.218,-14.635 -28.218,-28.221c0,-13.583 9.466,-28.22 28.218,-28.22l22.353,0c11.966,0 22.16,7.761 26.055,17.38l44.191,149.549l44.275,-149.738c4.003,-8.963 13.785,-17.191 25.974,-17.191l22.35,0c18.755,0 28.22,14.637 28.22,28.22c0,13.586 -9.465,28.221 -28.22,28.221l-3.608,0l-57.679,170.857c-3.986,9.251 -11.127,17.24 -31.24,17.24c-20.218,0 -27.382,-7.963 -31.378,-17.24" style="fill:#fff;fill-rule:nonzero;"/><g><path d="M885.3,375.621c3.381,0 6.272,0.912 8.674,2.736c2.403,1.824 4.182,4.026 5.339,6.606l30.694,72.066c0.89,2.225 1.335,4.227 1.335,6.006c0,2.58 -0.912,4.782 -2.736,6.606c-1.824,1.824 -4.026,2.736 -6.606,2.736c-4.626,0 -7.963,-2.669 -10.009,-8.007l-6.006,-15.348l-41.371,0l-6.006,15.348c-2.046,5.338 -5.382,8.007 -10.009,8.007c-2.58,0 -4.782,-0.912 -6.606,-2.736c-1.824,-1.824 -2.736,-4.026 -2.736,-6.606c0,-0.801 0.112,-1.69 0.334,-2.669c0.222,-0.979 0.467,-1.78 0.734,-2.402l0.267,-0.935l30.695,-72.066c1.156,-2.58 2.936,-4.782 5.338,-6.606c2.402,-1.824 5.294,-2.736 8.675,-2.736Zm-0.401,22.021l-13.612,34.031l28.026,0l-13.613,-34.031l-0.801,0Z" style="fill:#fff;fill-rule:nonzero;"/><path d="M947.49,378.29l26.825,0c12.456,0 22.665,3.737 30.628,11.211c7.963,7.473 11.944,16.682 11.944,27.625l0,15.748c0,10.943 -3.981,20.152 -11.944,27.625c-7.963,7.474 -18.172,11.211 -30.628,11.211l-26.825,0c-2.669,0 -4.893,-0.89 -6.673,-2.67c-1.779,-1.779 -2.669,-4.003 -2.669,-6.672l0,-74.736c0,-2.669 0.89,-4.893 2.669,-6.672c1.78,-1.78 4.004,-2.67 6.673,-2.67Zm9.342,76.07l17.483,0c7.117,0 12.878,-2.024 17.282,-6.072c4.404,-4.048 6.606,-9.186 6.606,-15.414l0,-15.748c0,-6.228 -2.202,-11.366 -6.606,-15.414c-4.404,-4.048 -10.165,-6.072 -17.282,-6.072l-17.483,0l0,58.72Z" style="fill:#fff;fill-rule:nonzero;"/><path d="M1038.37,378.29l26.824,0c12.456,0 22.666,3.737 30.628,11.211c7.963,7.473 11.945,16.682 11.945,27.625l0,15.748c0,10.943 -3.982,20.152 -11.945,27.625c-7.962,7.474 -18.172,11.211 -30.628,11.211l-26.824,0c-2.669,0 -4.894,-0.89 -6.673,-2.67c-1.78,-1.779 -2.669,-4.003 -2.669,-6.672l0,-74.736c0,-2.669 0.889,-4.893 2.669,-6.672c1.779,-1.78 4.004,-2.67 6.673,-2.67Zm9.342,76.07l17.482,0c7.118,0 12.879,-2.024 17.283,-6.072c4.404,-4.048 6.606,-9.186 6.606,-15.414l0,-15.748c0,-6.228 -2.202,-11.366 -6.606,-15.414c-4.404,-4.048 -10.165,-6.072 -17.283,-6.072l-17.482,0l0,58.72Z" style="fill:#fff;fill-rule:nonzero;"/><path d="M1167.96,434.342l-48.044,0c-2.313,0 -4.226,-0.756 -5.738,-2.269c-1.513,-1.512 -2.269,-3.425 -2.269,-5.738c0,-2.314 0.756,-4.227 2.269,-5.739c1.512,-1.513 3.425,-2.269 5.738,-2.269l48.044,0c2.314,0 4.226,0.756 5.739,2.269c1.512,1.512 2.269,3.425 2.269,5.739c0,2.313 -0.757,4.226 -2.269,5.738c-1.513,1.513 -3.425,2.269 -5.739,2.269Z" style="fill:#fff;fill-rule:nonzero;"/><path d="M1264.85,414.324l0,21.352c0,10.855 -3.959,20.019 -11.877,27.492c-7.919,7.474 -17.972,11.211 -30.161,11.211c-12.189,0 -22.243,-3.737 -30.161,-11.211c-7.919,-7.473 -11.878,-16.637 -11.878,-27.492l0,-21.352c0,-10.855 3.959,-20.019 11.878,-27.492c7.918,-7.474 17.972,-11.211 30.161,-11.211c12.189,0 22.242,3.737 30.161,11.211c7.918,7.473 11.877,16.637 11.877,27.492Zm-42.038,42.705c6.939,0 12.567,-2.024 16.882,-6.072c4.315,-4.048 6.473,-9.142 6.473,-15.281l0,-21.352c0,-6.139 -2.158,-11.233 -6.473,-15.281c-4.315,-4.048 -9.943,-6.072 -16.882,-6.072c-6.94,0 -12.567,2.024 -16.882,6.072c-4.315,4.048 -6.473,9.142 -6.473,15.281l0,21.352c0,6.139 2.158,11.233 6.473,15.281c4.315,4.048 9.942,6.072 16.882,6.072Z" style="fill:#fff;fill-rule:nonzero;"/><path d="M1339.72,438.346l0.667,0l0,-51.381c0,-2.758 0.823,-5.005 2.469,-6.739c1.646,-1.735 3.937,-2.603 6.873,-2.603c2.936,0 5.227,0.868 6.873,2.603c1.646,1.734 2.469,3.981 2.469,6.739l0,76.07c0,2.669 -0.889,4.893 -2.669,6.673c-1.779,1.779 -4.004,2.669 -6.673,2.669c-3.914,0 -7.028,-1.557 -9.342,-4.671l-43.373,-56.052l-0.667,0l0,51.381c0,2.758 -0.823,5.005 -2.469,6.739c-1.646,1.735 -3.937,2.603 -6.873,2.603c-2.936,0 -5.227,-0.868 -6.873,-2.603c-1.646,-1.734 -2.469,-3.981 -2.469,-6.739l0,-76.07c0,-2.669 0.89,-4.893 2.669,-6.673c1.78,-1.779 4.004,-2.669 6.673,-2.669c3.915,0 7.029,1.557 9.342,4.671l43.373,56.052Z" style="fill:#fff;fill-rule:nonzero;"/></g></g></svg>