<?xml version="1.0" encoding="utf-8"?>
<svg version="1.1" xmlns="http://www.w3.org/2000/svg" xmlns:xlink="http://www.w3.org/1999/xlink" x="0px" y="0px"
     viewBox="0 0 1020 810" enable-background="new 0 0 1020 810" xml:space="preserve" preserveAspectRatio="none">
  <g>
    <path d="M7.19,553.427c0.954,-1.688 1.027,-5.87 2.055,-8.731c0.073,-2.568 0.366,-5.65 0.733,-8.951c0.367,-3.302 0.881,-6.677 1.468,-9.905c-0.881,8.584 -0.147,13.426 -1.394,23.111c0.513,-1.541 0.587,-5.723 0.953,-8.217c0.367,1.614 0,5.062 0,7.703c0.367,0.147 0.294,-2.054 0.441,-2.934c0.44,3.375 -0.587,7.924 0.953,12.546c0.587,-5.283 0.367,-7.484 0.881,-10.052c-0.073,4.989 -0.587,10.932 -0.22,14.234c0.147,-2.128 1.027,-6.677 1.761,-11.372c-0.074,-5.063 -0.147,-10.125 -0.22,-15.114c-0.441,-30.375 -1.028,-60.824 -1.615,-91.199c-0.587,-30.008 -1.174,-60.016 -1.76,-90.024c-0.514,-29.568 -1.028,-59.136 -1.321,-88.704c-0.147,-13.06 -0.22,-26.193 -0.147,-39.253c0.074,-29.861 0.514,-68.82 -1.687,-98.608c-1.174,-16.655 0.17,-89.85 -1.297,-111.274c-6.65,-4.705 4.793,-11.445 11.238,-11.871l214.496,0.764c8.291,0.22 12.033,0.367 8.291,0.587c45.269,1.174 98.315,-0.293 118.125,1.101c-2.641,0 -5.209,0 -4.402,0.146c18.416,0.147 66.986,0.367 86.796,0.514c5.503,-0.514 11.005,-1.027 16.508,-1.541c4.622,-0.513 14.381,0.44 19.076,-0.073c4.696,-0.514 9.391,-1.101 14.087,-1.541c2.348,-0.22 4.696,-0.44 6.97,-0.66c2.348,-0.22 4.623,-0.367 6.897,-0.587c4.622,-0.367 9.098,-0.661 13.573,-0.954c8.951,-0.514 19.432,-2.348 27.723,-2.568l-546.152,0l0,695.397c0.073,-1.614 8.957,-0.434 9.03,-2.121c1.248,-24.286 -4.995,-118.205 -1.84,-139.849Z" style="fill:#fff;fill-rule:nonzero;"/>
    <path d="M1019.12,5.191c0.22,-0.881 -0.234,-0.128 -0.674,-0.569c0.073,2.055 0,137.568 -0.734,136.248c0.074,4.035 0,4.695 -0.367,6.97c-0.44,-1.394 0.22,-4.402 -0.366,-6.017c0.073,4.696 -0.661,10.345 -0.514,12.547c-0.734,-2.495 -0.88,73.516 -1.321,69.627c-0.293,1.981 0.147,3.669 -1.027,6.97c-0.88,-2.568 -0.293,235.957 -1.247,235.663c-0.294,-2.054 -0.294,-4.842 -0.881,-6.016c-0.073,2.054 0.367,5.209 0,6.457c0.074,-7.631 -1.174,-11.226 -1.614,-18.049c-0.073,5.136 -0.146,10.858 0.294,14.82c-0.661,2.348 -0.294,5.576 -1.248,6.017c-0.44,17.975 -0.807,37.271 -1.54,55.761c-0.367,7.923 -0.807,190.54 -1.248,234.635c-3.375,1.835 -6.676,3.596 -10.051,5.21c-0.22,2.641 3.888,-0.587 6.089,2.568c-1.54,2.054 -3.888,3.888 -6.016,5.722c2.935,-1.027 1.541,0.954 1.981,2.422c-1.541,0.44 -3.081,0.953 -2.861,2.054c2.714,-1.027 5.502,-2.054 6.089,-0.073c-3.008,1.174 -4.402,0.66 -6.089,2.641c1.614,-0.147 3.668,-0.807 4.182,0.587c-2.642,1.687 -5.65,0.587 -6.824,2.421c2.568,-0.293 5.283,-0.88 5.797,1.614c3.595,0 4.842,1.027 6.383,1.834c-3.962,1.028 -8.658,-9.684 -8.584,-6.089c-2.348,1.027 -4.036,1.247 -5.21,0.807c1.101,2.274 0.441,3.962 0.22,6.383c-1.54,0.367 -3.081,0.734 -4.622,1.101c-3.081,0.733 -6.163,1.54 -9.318,2.274c-3.155,0.66 -6.456,1.394 -9.758,2.128c-13.5,2.788 -28.908,5.356 -49.304,7.19c-30.082,2.788 -54.294,-0.587 -53.047,-0.587c-8.951,-1.614 -32.649,-1.247 -44.021,-0.954c-25.533,0.807 -52.313,0.22 -77.992,-2.641c-5.356,-0.587 -11.813,-1.174 -19.003,-1.761c-3.815,-0.294 -7.777,-0.587 -11.812,-0.954c-4.696,-0.44 -9.172,-1.247 -13.574,-2.054c-8.731,-1.761 -53.413,-4.109 -57.448,-5.283c-4.035,-1.174 -14.747,-1.174 -12.326,-0.367c-0.074,-1.394 -13.647,-6.456 -18.856,-7.337c-5.136,-0.88 -10.785,-1.394 -15.995,-1.614c-5.209,-0.293 -9.905,-0.146 -13.133,-0.22c-4.182,0.074 -6.163,-0.293 -6.163,-0.587c0.073,-0.293 2.201,-0.513 6.09,0.074c9.098,-0.807 17.315,-0.587 25.679,-0.074c8.364,0.587 -13.051,-2.532 -3.147,-2.606c7.117,1.321 7.266,-2.585 14.456,-1.045c-20.763,-8.364 -15.75,-5.321 -26.276,-5.667c-67.06,-2.201 -436.036,-6.236 -467.438,-11.886l-110.127,0c0.366,-18.342 0.66,-36.684 0.807,-54.953c-1.615,-0.734 -2.935,-3.816 -4.256,-4.769c-1.687,2.201 -2.494,-2.642 -4.035,-1.908c-1.027,1.467 -2.275,-3.742 -3.008,1.101c-1.468,0.22 -1.269,-21.521 -2.37,-19.173c-0.293,-3.522 -1.519,8.754 -1.739,4.792l-0.082,129.553l1019.76,0l0.155,-804.406c-0.147,-1.614 0.014,-1.193 -0.72,-0.532Z" style="fill:#fff;fill-rule:nonzero;"/>
    <path d="M520.486,0c0.22,2.274 25.971,3.889 17.973,5.723c4.402,1.32 13.94,1.541 16.142,3.375c70.067,0.44 217.1,0.66 282.546,0.44c84.595,-0.293 129.277,-1.981 182.617,-3.302l0,-6.236l-499.278,0Z" style="fill:#fff;fill-rule:nonzero;"/></g>
</svg>
