<?xml version="1.0" encoding="UTF-8" standalone="no"?><!DOCTYPE svg PUBLIC "-//W3C//DTD SVG 1.1//EN" "http://www.w3.org/Graphics/SVG/1.1/DTD/svg11.dtd"><svg width="100%" height="100%" viewBox="0 0 229 288" version="1.1" xmlns="http://www.w3.org/2000/svg" xmlns:xlink="http://www.w3.org/1999/xlink" xml:space="preserve" xmlns:serif="http://www.serif.com/" style="fill-rule:evenodd;clip-rule:evenodd;stroke-linejoin:round;stroke-miterlimit:1.41421;"><g><path d="M114.09,3.04c-13.596,0 -24.657,11.062 -24.657,24.658c0,13.596 11.061,24.658 24.657,24.658c13.598,0 24.658,-11.062 24.658,-24.658c0,-13.596 -11.06,-24.658 -24.658,-24.658m0,52.356c-15.272,0 -27.697,-12.425 -27.697,-27.698c0,-15.273 12.425,-27.698 27.697,-27.698c15.273,0 27.699,12.425 27.699,27.698c0,15.273 -12.426,27.698 -27.699,27.698" style="fill-rule:nonzero;"/><path d="M114.09,18.139c-5.271,0 -9.559,4.288 -9.559,9.56c0,5.271 4.288,9.559 9.559,9.559c5.271,0 9.561,-4.288 9.561,-9.559c0,-5.272 -4.29,-9.56 -9.561,-9.56m0,22.159c-6.946,0 -12.599,-5.652 -12.599,-12.599c0,-6.948 5.653,-12.6 12.599,-12.6c6.949,0 12.6,5.652 12.6,12.6c0,6.947 -5.651,12.599 -12.6,12.599" style="fill-rule:nonzero;"/><path d="M97.215,27.798c-1.008,0.135 -2.017,0.264 -3.025,0.388c0.045,1.758 0.316,3.459 0.788,5.077c0.898,-0.516 1.831,-0.982 2.761,-1.453c-0.324,-1.287 -0.515,-2.627 -0.524,-4.012" style="fill-rule:nonzero;"/><path d="M99.365,19.498l-2.479,-1.803c-0.803,1.377 -1.447,2.86 -1.904,4.42c1.12,-0.143 2.24,-0.293 3.362,-0.444c0.288,-0.752 0.632,-1.476 1.021,-2.173" style="fill-rule:nonzero;"/><path d="M130.944,28.331c-0.064,1.646 -0.357,3.231 -0.861,4.725c0.924,0.469 1.791,1.027 2.643,1.61c0.645,-1.719 1.061,-3.546 1.212,-5.449c-0.99,-0.323 -1.988,-0.623 -2.994,-0.886" style="fill-rule:nonzero;"/><path d="M129.959,22.004c1.156,0.204 2.293,0.471 3.414,0.788c-2.193,-8.614 -9.994,-15.013 -19.283,-15.013c-5.195,0 -9.922,2.008 -13.468,5.28l2.519,1.831c2.947,-2.531 6.767,-4.071 10.949,-4.071c7.306,0 13.527,4.676 15.869,11.185" style="fill-rule:nonzero;"/><path d="M127.225,38.275c-3.098,3.838 -7.83,6.302 -13.135,6.302c-5.846,0 -11.006,-2.991 -14.035,-7.521c-0.905,0.487 -1.774,1.01 -2.581,1.6c3.568,5.392 9.681,8.961 16.616,8.961c6.43,0 12.141,-3.075 15.785,-7.817c-0.841,-0.597 -1.709,-1.143 -2.65,-1.525" style="fill-rule:nonzero;"/><path d="M115.611,70.841l0,-16.965l-3.041,0l0,17.262c1.016,-0.084 2.029,-0.18 3.041,-0.297" style="fill-rule:nonzero;"/><path d="M115.611,127.47l0,-16.123c-0.941,0.401 -1.967,0.632 -3.041,0.665l0,15.68c1.014,-0.092 2.027,-0.167 3.041,-0.222" style="fill-rule:nonzero;"/><path d="M115.611,217.801l0,-48.435c-1.006,0.169 -2.036,0.177 -3.041,0.033l0,50.225c1.015,-0.605 2.031,-1.207 3.041,-1.823" style="fill-rule:nonzero;"/><path d="M112.57,226.706l0,6.429c0.983,-0.901 1.998,-1.768 3.041,-2.607l0,-5.758c-1.032,0.616 -2.054,1.249 -3.041,1.936" style="fill-rule:nonzero;"/><path d="M112.91,241.108c-0.11,0.108 -0.226,0.189 -0.34,0.277l0,18.898l3.041,0l0,-21.845c-0.911,0.883 -1.808,1.777 -2.701,2.67" style="fill-rule:nonzero;"/><path d="M101.419,72.373l0,-20.046c3.906,2.015 8.237,3.07 12.671,3.07c4.435,0 8.766,-1.055 12.674,-3.071l0,16.543c1.011,-0.177 2.023,-0.336 3.039,-0.479l0,-18.7c0,-0.556 -0.305,-1.068 -0.793,-1.335c-0.488,-0.266 -1.084,-0.243 -1.553,0.059c-3.988,2.58 -8.609,3.943 -13.367,3.943c-4.756,0 -9.377,-1.363 -13.365,-3.942c-0.468,-0.303 -1.065,-0.326 -1.552,-0.059c-0.489,0.266 -0.794,0.778 -0.794,1.335l0,23.457c1.005,-0.314 2.019,-0.567 3.04,-0.775" style="fill-rule:nonzero;"/><path d="M129.803,125.606l0,-16.021c-0.326,0.136 -0.664,0.26 -1.02,0.358c-0.658,0.181 -1.337,0.263 -2.019,0.274l0,15.863c1.012,-0.168 2.023,-0.329 3.039,-0.474" style="fill-rule:nonzero;"/><path d="M46.391,234.745c0.835,-0.666 1.685,-1.313 2.551,-1.937c-7.241,-6.341 -12.905,-12.768 -16.918,-17.895c18.035,14.7 38.75,24.416 60.567,28.315c0.709,0.196 1.392,0.295 2.029,0.295c3.133,0 5.191,-2.187 6.116,-6.5c0.692,-3.231 0.688,-7.204 0.684,-10.709l-0.001,-55.401c-0.976,0.314 -1.999,0.443 -3.04,0.362l0,55.041c0.005,3.355 0.009,7.155 -0.616,10.07c-0.879,4.096 -2.524,4.096 -3.143,4.096c-0.378,0 -0.806,-0.066 -1.271,-0.199c-0.05,-0.014 -0.1,-0.026 -0.151,-0.036c-25.249,-4.497 -49.009,-16.985 -68.708,-36.111c-0.543,-0.525 -1.39,-0.574 -1.988,-0.113c-0.598,0.463 -0.766,1.294 -0.394,1.951c0.323,0.573 8.081,14.139 23.314,27.909c0.316,0.285 0.643,0.575 0.969,0.862" style="fill-rule:nonzero;"/><path d="M66.483,245.519c-1.334,-0.784 -2.647,-1.58 -3.92,-2.401c-0.733,0.778 -1.517,1.504 -2.34,2.187c1.283,0.835 2.617,1.654 3.977,2.46c0.767,-0.742 1.52,-1.498 2.283,-2.246" style="fill-rule:nonzero;"/><path d="M205.125,205.367c-0.465,-0.808 -1.695,-0.985 -2.369,-0.343c-19.498,18.6 -42.904,30.774 -67.694,35.209c-1.332,0.085 -2.294,-0.218 -3.041,-0.966c-2.23,-2.234 -2.224,-8.173 -2.218,-12.945l0,-59.399c-0.338,0.045 -0.678,0.076 -1.018,0.076c-0.711,0 -1.383,-0.09 -2.021,-0.242l0,58.811l-0.002,0.752c-0.006,5.611 -0.012,11.97 3.109,15.095c1.389,1.39 3.195,2.011 5.492,1.845c0.053,-0.004 0.104,-0.01 0.155,-0.02c22.013,-3.923 42.953,-13.797 61.132,-28.744c-11.017,15.107 -38.099,44.267 -82.561,44.267c-16.151,0 -30.203,-4.19 -42.096,-10.233c-0.8,0.734 -1.577,1.493 -2.347,2.257c12.238,6.336 27.121,11.017 44.443,11.017c57.772,0 86.903,-47.568 90.034,-52.993c1.15,-1.987 1.496,-2.589 1.002,-3.444" style="fill-rule:nonzero;"/><path d="M57.562,239.687c-1.333,-0.966 -2.629,-1.946 -3.883,-2.938c-0.912,0.618 -1.807,1.251 -2.657,1.897c1.304,1.043 2.666,2.086 4.084,3.123c0.825,-0.611 1.658,-1.312 2.456,-2.082" style="fill-rule:nonzero;"/><path d="M100.206,130.175c0.403,-0.138 0.806,-0.277 1.213,-0.403l0,-15.862c-0.802,0.255 -1.652,0.392 -2.529,0.392c-0.172,0 -0.341,-0.016 -0.511,-0.026l0,16.262c0.17,-0.045 0.334,-0.096 0.513,-0.133c0.436,-0.091 0.876,-0.155 1.314,-0.23" style="fill-rule:nonzero;"/><path d="M57.558,239.691c-1.333,-0.966 -2.63,-1.948 -3.884,-2.938c-0.911,0.616 -1.804,1.248 -2.652,1.893c1.304,1.043 2.666,2.086 4.084,3.123c0.823,-0.611 1.655,-1.31 2.452,-2.078" style="fill-rule:nonzero;"/><path d="M66.48,245.522c-1.334,-0.784 -2.647,-1.582 -3.92,-2.403c-0.732,0.778 -1.515,1.504 -2.337,2.185c1.283,0.835 2.617,1.655 3.977,2.46c0.766,-0.74 1.518,-1.496 2.28,-2.242" style="fill-rule:nonzero;"/><path d="M188.838,194.459l13.943,11.142c-4.56,7.683 -33.89,53.163 -88.692,53.163c-16.15,0 -30.204,-4.191 -42.099,-10.23c-0.798,0.733 -1.575,1.489 -2.343,2.253c12.237,6.336 27.12,11.017 44.442,11.017c32.071,0 55.356,-15.154 69.245,-27.867c15.035,-13.765 22.447,-27.415 22.754,-27.99l0.6,-1.116l-12.205,-9.754l28.269,-13.86c-21.387,57.274 -52.437,85.842 -97.498,89.803l-0.605,0.052l-10.56,11.988l-10.546,-11.965l-0.608,-0.052c-45.633,-3.848 -75.815,-31.594 -97.509,-89.828l28.271,13.862l-12.227,9.772l0.638,1.126c0.323,0.572 8.081,14.138 23.314,27.908c0.315,0.285 0.643,0.575 0.969,0.862c0.833,-0.664 1.679,-1.309 2.545,-1.932c-13.311,-11.655 -21.257,-23.604 -23.515,-27.23l13.92,-11.124l-39.341,-19.289l1.269,3.529c22.146,61.657 53.253,91.085 100.799,95.321l12.023,13.637l12.036,-13.663c46.971,-4.364 79.006,-34.661 100.785,-95.295l1.268,-3.528l-39.342,19.288Z" style="fill-rule:nonzero;"/><path d="M40.282,82.217l0,38.144l146.942,-19.769l0,-38.144l-146.942,19.769Zm-3.041,41.621c0,0 0,-33.859 0,-42.361c0,-1.098 0.813,-2.028 1.902,-2.174c17.579,-2.365 151.122,-20.331 151.122,-20.331l0,44.278l-153.024,20.588Z" style="fill-rule:nonzero;"/><path d="M61.226,66.097l-16.828,12.499l16.828,-2.264l0,-10.235Zm-22.465,16.311c-0.611,0 -1.172,-0.37 -1.407,-0.948c-0.261,-0.642 -0.055,-1.38 0.502,-1.793l23.983,-17.813c0.461,-0.342 1.077,-0.395 1.589,-0.137c0.514,0.257 0.838,0.783 0.838,1.358l0,14.586c0,0.761 -0.563,1.405 -1.317,1.506l-23.984,3.227c-0.068,0.009 -0.136,0.014 -0.204,0.014" style="fill-rule:nonzero;"/><path d="M15.722,73.967l14.405,9.28c0.364,0.235 0.611,0.613 0.678,1.041c0.067,0.429 -0.051,0.865 -0.325,1.2l-13.988,17.081l20.75,-7.781l0,-13.9c0,-0.481 0.227,-0.934 0.614,-1.22l18.56,-13.786l-40.694,8.085Zm-3.983,33.528c-0.481,0 -0.945,-0.227 -1.237,-0.634c-0.4,-0.559 -0.376,-1.317 0.06,-1.849l16.486,-20.132l-16.134,-10.393c-0.52,-0.336 -0.786,-0.954 -0.67,-1.562c0.116,-0.609 0.589,-1.086 1.198,-1.207l51.008,-10.134c0.7,-0.142 1.397,0.224 1.685,0.874c0.288,0.651 0.088,1.413 -0.483,1.837l-23.369,17.358l0,14.189c0,0.633 -0.394,1.2 -0.987,1.422l-27.024,10.135c-0.175,0.066 -0.356,0.096 -0.533,0.096" style="fill-rule:nonzero;"/><path d="M40.282,139.342l0,38.145l146.942,-19.77l0,-38.144l-146.942,19.769Zm-3.041,41.62l0,-44.278l153.024,-20.587l0,44.279l-153.024,20.586Z" style="fill-rule:nonzero;"/><path d="M166.281,163.602l0,10.235l16.828,-12.498l-16.828,2.263Zm-1.52,14.777c-0.234,0 -0.466,-0.052 -0.683,-0.162c-0.514,-0.258 -0.836,-0.783 -0.836,-1.357l0,-14.586c0,-0.762 0.562,-1.405 1.316,-1.507l23.983,-3.227c0.687,-0.094 1.349,0.292 1.611,0.934c0.262,0.642 0.055,1.379 -0.502,1.793l-23.982,17.814c-0.268,0.198 -0.586,0.298 -0.907,0.298" style="fill-rule:nonzero;"/><path d="M190.266,145.309l0,13.737c0,0.481 -0.229,0.933 -0.615,1.221l-18.793,13.958l41.277,-7.381l-13.849,-10.74c-0.342,-0.266 -0.555,-0.665 -0.584,-1.098c-0.03,-0.433 0.126,-0.858 0.429,-1.167l12.949,-13.213l-20.814,4.683Zm-25.506,33.07c-0.596,0 -1.15,-0.352 -1.392,-0.916c-0.282,-0.648 -0.079,-1.404 0.488,-1.823l23.369,-17.359l0,-14.188c0,-0.712 0.492,-1.327 1.187,-1.484l27.024,-6.08c0.652,-0.149 1.332,0.155 1.662,0.743c0.326,0.589 0.229,1.323 -0.242,1.804l-15.358,15.671l15.204,11.79c0.474,0.368 0.687,0.981 0.543,1.565c-0.143,0.583 -0.616,1.028 -1.208,1.133l-51.007,9.12c-0.09,0.016 -0.18,0.024 -0.27,0.024" style="fill-rule:nonzero;"/><path d="M99.278,115.784l-48.322,19.055l76.939,-10.351l48.653,-19.341l-77.27,10.637Zm-60.518,23.75c-0.681,0 -1.293,-0.461 -1.468,-1.138c-0.195,-0.743 0.198,-1.515 0.913,-1.797l60.128,-23.711c0.112,-0.044 0.229,-0.075 0.35,-0.091l89.855,-12.369c0.761,-0.107 1.482,0.375 1.678,1.118c0.195,0.743 -0.196,1.516 -0.909,1.8l-60.463,24.037c-0.113,0.045 -0.234,0.077 -0.357,0.093l-89.522,12.044c-0.069,0.009 -0.136,0.014 -0.205,0.014" style="fill-rule:nonzero;"/><path d="M172.389,98.147l10.139,-1.342l-0.401,-3.013l-9.67,1.279c-0.011,1.027 -0.035,2.052 -0.068,3.076" style="fill-rule:nonzero;"/><path d="M57.906,113.298l95.732,-12.67c-0.074,-1.013 -0.144,-2.025 -0.201,-3.039l-95.487,12.637c-0.008,1.025 -0.022,2.049 -0.044,3.072" style="fill-rule:nonzero;"/><path d="M51.964,111.019l-7.659,1.014l0.398,3.013l7.202,-0.953c0.028,-1.024 0.048,-2.049 0.059,-3.074" style="fill-rule:nonzero;"/><path d="M159.385,96.802c0.047,1.015 0.104,2.029 0.176,3.042l6.818,-0.902c0.043,-1.025 0.068,-2.051 0.084,-3.077l-7.078,0.937Z" style="fill-rule:nonzero;"/><path d="M172.938,155.677l10.137,-1.342l-0.399,-3.014l-9.67,1.28c-0.011,1.025 -0.035,2.051 -0.068,3.076" style="fill-rule:nonzero;"/><path d="M69.107,169.418l85.081,-11.26c-0.076,-1.012 -0.144,-2.026 -0.199,-3.039l-84.695,11.208c-0.094,1.026 -0.161,2.057 -0.187,3.091" style="fill-rule:nonzero;"/><path d="M63.295,167.121l-4.796,0.635c-0.008,1.023 -0.021,2.049 -0.044,3.072l4.727,-0.625c0.012,-1.03 0.051,-2.057 0.113,-3.082" style="fill-rule:nonzero;"/><path d="M52.513,168.548l-7.659,1.014l0.398,3.014l7.202,-0.954c0.028,-1.023 0.047,-2.049 0.059,-3.074" style="fill-rule:nonzero;"/><path d="M159.934,154.331c0.047,1.016 0.102,2.03 0.176,3.043l6.818,-0.902c0.041,-1.024 0.068,-2.052 0.086,-3.077l-7.08,0.936Z" style="fill-rule:nonzero;"/><path d="M83.134,101.664l-2.26,-18.171l11.042,-1.373l0.351,2.816l-8.001,0.996l0.632,5.084l6.954,-0.865l0.353,2.842l-6.954,0.865l0.924,7.428l-3.041,0.378Z" style="fill-rule:nonzero;"/><path d="M94.934,100.196l-2.26,-18.17l5.135,-0.639c0.997,-0.124 1.923,-0.104 2.779,0.059c0.855,0.164 1.601,0.459 2.236,0.887c0.635,0.427 1.156,0.986 1.563,1.678c0.406,0.692 0.667,1.495 0.78,2.409c0.062,0.498 0.074,1.003 0.037,1.514c-0.038,0.511 -0.136,1.012 -0.294,1.505c-0.158,0.492 -0.388,0.955 -0.688,1.389c-0.3,0.434 -0.674,0.822 -1.121,1.164c0.438,0.536 0.866,1.061 1.285,1.574c0.418,0.513 0.841,1.03 1.268,1.551c0.428,0.52 0.87,1.056 1.326,1.607c0.457,0.55 0.953,1.147 1.488,1.789l-3.664,0.456c-0.892,-1.071 -1.735,-2.084 -2.529,-3.04c-0.794,-0.955 -1.556,-1.86 -2.287,-2.714l-0.249,0.031l-2.542,0.316l0.778,6.256l-3.041,0.378Zm1.906,-9.501l2.443,-0.303c0.631,-0.079 1.141,-0.252 1.53,-0.52c0.388,-0.267 0.688,-0.571 0.899,-0.909c0.211,-0.338 0.344,-0.692 0.4,-1.062c0.055,-0.37 0.064,-0.704 0.027,-1.003c-0.035,-0.283 -0.121,-0.597 -0.257,-0.943c-0.136,-0.346 -0.344,-0.661 -0.624,-0.947c-0.28,-0.286 -0.641,-0.511 -1.083,-0.675c-0.443,-0.165 -0.988,-0.207 -1.636,-0.126l-2.468,0.307l0.769,6.181Z" style="fill-rule:nonzero;"/><path d="M106.032,89.628c-0.157,-1.263 -0.061,-2.49 0.289,-3.681c0.35,-1.191 0.891,-2.262 1.625,-3.214c0.734,-0.952 1.63,-1.746 2.69,-2.384c1.06,-0.638 2.229,-1.037 3.509,-1.196c1.263,-0.157 2.49,-0.057 3.682,0.301c1.192,0.358 2.264,0.908 3.217,1.65c0.953,0.742 1.745,1.648 2.376,2.717c0.63,1.069 1.024,2.235 1.181,3.498c0.159,1.279 0.064,2.51 -0.287,3.693c-0.351,1.182 -0.898,2.246 -1.641,3.19c-0.743,0.945 -1.649,1.729 -2.719,2.351c-1.07,0.622 -2.237,1.012 -3.5,1.169c-1.279,0.159 -2.51,0.068 -3.691,-0.275c-1.182,-0.342 -2.244,-0.881 -3.188,-1.615c-0.943,-0.735 -1.73,-1.633 -2.36,-2.694c-0.629,-1.06 -1.024,-2.23 -1.183,-3.51Zm3.066,-0.381c0.109,0.88 0.374,1.687 0.794,2.419c0.42,0.733 0.953,1.35 1.597,1.852c0.645,0.502 1.366,0.872 2.163,1.11c0.798,0.239 1.637,0.303 2.518,0.194c0.847,-0.106 1.628,-0.372 2.343,-0.798c0.715,-0.427 1.315,-0.961 1.8,-1.603c0.485,-0.643 0.842,-1.371 1.07,-2.184c0.228,-0.813 0.287,-1.66 0.177,-2.54c-0.109,-0.881 -0.378,-1.687 -0.806,-2.418c-0.429,-0.732 -0.962,-1.353 -1.599,-1.864c-0.637,-0.512 -1.355,-0.886 -2.152,-1.125c-0.798,-0.238 -1.628,-0.303 -2.492,-0.196c-0.864,0.107 -1.654,0.374 -2.369,0.801c-0.714,0.426 -1.314,0.965 -1.798,1.616c-0.485,0.65 -0.841,1.382 -1.069,2.195c-0.228,0.813 -0.287,1.66 -0.177,2.541Z" style="fill-rule:nonzero;"/><path d="M124.225,77.292c0.098,0.106 0.313,0.345 0.646,0.717c0.333,0.372 0.748,0.826 1.245,1.363c0.497,0.538 1.052,1.131 1.664,1.78c0.613,0.65 1.235,1.311 1.867,1.983c0.632,0.672 1.249,1.329 1.852,1.972c0.603,0.642 1.149,1.228 1.636,1.758c0.488,0.53 0.902,0.972 1.241,1.326c0.339,0.354 0.549,0.577 0.627,0.669c0.028,-0.054 0.151,-0.285 0.37,-0.692c0.219,-0.407 0.498,-0.918 0.834,-1.534c0.337,-0.615 0.718,-1.316 1.144,-2.103c0.425,-0.787 0.865,-1.589 1.32,-2.405c0.456,-0.816 0.9,-1.622 1.332,-2.418c0.433,-0.796 0.832,-1.521 1.198,-2.174c0.366,-0.653 0.672,-1.206 0.92,-1.658c0.247,-0.453 0.405,-0.742 0.474,-0.869l2.359,18.968l-3.265,0.406l-1.153,-9.272c-0.017,-0.133 -0.018,-0.276 -0.003,-0.43c0.014,-0.154 0.02,-0.247 0.016,-0.28l-4.932,9.396c-0.095,-0.089 -0.333,-0.338 -0.713,-0.747c-0.38,-0.408 -0.832,-0.892 -1.357,-1.451c-0.525,-0.559 -1.081,-1.16 -1.667,-1.805c-0.587,-0.644 -1.138,-1.242 -1.653,-1.794c-0.516,-0.551 -0.954,-1.02 -1.314,-1.405c-0.36,-0.386 -0.561,-0.61 -0.603,-0.672c0.004,0.033 0.032,0.122 0.084,0.268c0.052,0.145 0.086,0.284 0.103,0.417l1.153,9.273l-3.066,0.381l-2.359,-18.968Z" style="fill-rule:nonzero;"/><path d="M61.52,161.97l-2.26,-18.17l3.066,-0.381l0.943,7.577l8.674,-1.079l-0.943,-7.577l3.091,-0.385l0.618,4.973c0.16,1.288 0.327,2.659 0.499,4.114c0.173,1.455 0.339,2.827 0.499,4.114l0.619,4.973l-3.066,0.381l-0.955,-7.677l-8.674,1.079l0.955,7.677l-3.066,0.381Z" style="fill-rule:nonzero;"/><path d="M89.571,158.482c-0.064,-0.11 -0.177,-0.307 -0.339,-0.591c-0.162,-0.283 -0.361,-0.63 -0.598,-1.039c-0.236,-0.41 -0.495,-0.862 -0.776,-1.359c-0.281,-0.497 -0.573,-1.013 -0.876,-1.549l-6.256,0.778l-1.399,5.034l-3.016,0.375c0.048,-0.158 0.16,-0.547 0.336,-1.168c0.175,-0.621 0.396,-1.391 0.661,-2.31c0.266,-0.919 0.56,-1.942 0.884,-3.071c0.324,-1.129 0.657,-2.28 1.001,-3.453c0.343,-1.173 0.677,-2.324 1,-3.453c0.324,-1.128 0.618,-2.152 0.884,-3.071c0.265,-0.919 0.486,-1.689 0.662,-2.31c0.176,-0.621 0.288,-1.01 0.335,-1.168c0.085,0.142 0.293,0.491 0.624,1.049c0.331,0.558 0.738,1.25 1.22,2.076c0.483,0.825 1.019,1.746 1.609,2.761c0.591,1.015 1.196,2.049 1.816,3.102c0.621,1.054 1.226,2.088 1.816,3.103c0.59,1.015 1.127,1.935 1.609,2.761c0.483,0.826 0.885,1.518 1.208,2.077c0.322,0.559 0.526,0.909 0.611,1.051l-3.016,0.375Zm-8.118,-6.457l4.138,-0.515l-2.334,-4.114c-0.019,-0.014 -0.074,-0.121 -0.167,-0.321c-0.092,-0.199 -0.165,-0.38 -0.219,-0.542c-0.012,0.17 -0.039,0.363 -0.08,0.579c-0.04,0.216 -0.06,0.333 -0.058,0.349l-1.28,4.564Z" style="fill-rule:nonzero;"/><path d="M90.188,139.143c0.098,0.106 0.313,0.345 0.646,0.717c0.333,0.372 0.748,0.827 1.246,1.364c0.497,0.537 1.051,1.131 1.664,1.78c0.612,0.649 1.234,1.31 1.866,1.983c0.632,0.672 1.25,1.329 1.853,1.971c0.603,0.642 1.148,1.228 1.636,1.758c0.487,0.53 0.901,0.972 1.24,1.327c0.34,0.354 0.549,0.577 0.628,0.668c0.027,-0.054 0.15,-0.284 0.369,-0.691c0.22,-0.407 0.498,-0.918 0.835,-1.534c0.336,-0.615 0.717,-1.317 1.143,-2.104c0.425,-0.786 0.865,-1.588 1.321,-2.404c0.455,-0.816 0.899,-1.622 1.331,-2.418c0.433,-0.796 0.832,-1.521 1.198,-2.174c0.366,-0.653 0.673,-1.206 0.92,-1.658c0.248,-0.453 0.406,-0.743 0.474,-0.869l2.359,18.968l-3.265,0.406l-1.153,-9.272c-0.017,-0.133 -0.018,-0.277 -0.003,-0.43c0.015,-0.154 0.02,-0.247 0.016,-0.281l-4.932,9.397c-0.095,-0.09 -0.333,-0.339 -0.713,-0.747c-0.379,-0.408 -0.832,-0.892 -1.357,-1.451c-0.525,-0.559 -1.081,-1.161 -1.667,-1.805c-0.586,-0.644 -1.138,-1.242 -1.653,-1.794c-0.516,-0.552 -0.954,-1.02 -1.314,-1.406c-0.36,-0.385 -0.561,-0.609 -0.603,-0.671c0.005,0.033 0.033,0.122 0.084,0.268c0.052,0.145 0.086,0.284 0.103,0.417l1.153,9.272l-3.066,0.382l-2.359,-18.969Z" style="fill-rule:nonzero;"/><path d="M114.096,139.789l0.614,4.936l2.293,-0.286c0.848,-0.105 1.444,-0.432 1.789,-0.981c0.345,-0.55 0.474,-1.173 0.387,-1.871c-0.101,-0.814 -0.425,-1.386 -0.972,-1.714c-0.547,-0.329 -1.244,-0.44 -2.092,-0.335l-2.019,0.251Zm0.936,7.528l0.636,5.109l2.393,-0.297c0.448,-0.056 0.865,-0.163 1.251,-0.32c0.385,-0.158 0.715,-0.359 0.988,-0.604c0.273,-0.245 0.473,-0.54 0.598,-0.884c0.126,-0.345 0.162,-0.733 0.109,-1.166c-0.06,-0.481 -0.21,-0.872 -0.45,-1.171c-0.239,-0.299 -0.538,-0.528 -0.895,-0.686c-0.357,-0.158 -0.753,-0.252 -1.187,-0.283c-0.434,-0.03 -0.875,-0.017 -1.324,0.038l-2.119,0.264Zm-2.061,8.254l-2.26,-18.17l4.96,-0.617c0.898,-0.112 1.723,-0.126 2.476,-0.042c0.752,0.083 1.41,0.28 1.971,0.59c0.562,0.31 1.018,0.751 1.367,1.323c0.35,0.573 0.577,1.283 0.683,2.13c0.058,0.465 0.068,0.924 0.032,1.376c-0.037,0.451 -0.136,0.877 -0.297,1.277c-0.161,0.399 -0.391,0.761 -0.688,1.085c-0.297,0.324 -0.686,0.591 -1.165,0.803c0.425,0.031 0.862,0.121 1.311,0.267c0.448,0.147 0.86,0.37 1.235,0.669c0.374,0.3 0.697,0.69 0.968,1.171c0.271,0.481 0.448,1.062 0.533,1.743c0.11,0.881 0.033,1.654 -0.23,2.319c-0.263,0.666 -0.649,1.233 -1.156,1.701c-0.507,0.468 -1.114,0.839 -1.823,1.112c-0.708,0.274 -1.453,0.459 -2.234,0.557l-5.683,0.706Z" style="fill-rule:nonzero;"/><path d="M132.547,153.339c-0.98,0.122 -1.918,0.074 -2.814,-0.143c-0.896,-0.218 -1.696,-0.578 -2.4,-1.081c-0.704,-0.503 -1.29,-1.143 -1.758,-1.92c-0.467,-0.778 -0.763,-1.665 -0.887,-2.662l-1.454,-11.69l3.041,-0.378l1.444,11.615c0.066,0.532 0.232,1.018 0.498,1.457c0.265,0.44 0.599,0.812 0.999,1.116c0.401,0.305 0.855,0.531 1.363,0.679c0.507,0.147 1.044,0.186 1.609,0.116c0.565,-0.07 1.079,-0.24 1.544,-0.509c0.464,-0.268 0.857,-0.6 1.18,-0.994c0.322,-0.395 0.558,-0.837 0.708,-1.329c0.149,-0.491 0.191,-1.002 0.125,-1.534l-1.444,-11.615l3.04,-0.378l1.454,11.69c0.124,0.997 0.055,1.929 -0.209,2.797c-0.263,0.868 -0.678,1.633 -1.246,2.294c-0.567,0.661 -1.263,1.208 -2.086,1.639c-0.824,0.432 -1.726,0.708 -2.707,0.83Z" style="fill-rule:nonzero;"/><path d="M141.481,152.026l-2.26,-18.171l5.135,-0.639c0.997,-0.124 1.923,-0.104 2.778,0.06c0.856,0.163 1.601,0.459 2.237,0.886c0.635,0.427 1.156,0.987 1.563,1.679c0.406,0.691 0.666,1.494 0.78,2.408c0.062,0.499 0.074,1.004 0.037,1.514c-0.038,0.511 -0.136,1.013 -0.294,1.505c-0.158,0.492 -0.388,0.955 -0.688,1.389c-0.3,0.434 -0.674,0.822 -1.121,1.165c0.438,0.536 0.866,1.06 1.284,1.574c0.419,0.513 0.841,1.03 1.269,1.55c0.428,0.521 0.87,1.056 1.326,1.607c0.457,0.551 0.953,1.147 1.488,1.789l-3.664,0.456c-0.892,-1.07 -1.735,-2.083 -2.529,-3.039c-0.794,-0.956 -1.556,-1.861 -2.287,-2.715l-0.249,0.031l-2.542,0.316l0.778,6.256l-3.041,0.379Zm1.906,-9.501l2.443,-0.304c0.631,-0.079 1.141,-0.252 1.53,-0.519c0.388,-0.268 0.688,-0.571 0.899,-0.91c0.211,-0.338 0.344,-0.692 0.4,-1.062c0.055,-0.369 0.064,-0.704 0.027,-1.003c-0.035,-0.282 -0.121,-0.596 -0.257,-0.942c-0.136,-0.346 -0.344,-0.662 -0.624,-0.948c-0.28,-0.286 -0.641,-0.511 -1.084,-0.675c-0.442,-0.164 -0.987,-0.206 -1.635,-0.126l-2.468,0.307l0.769,6.182Z" style="fill-rule:nonzero;"/><path d="M167.537,139.825l0.961,7.727c-0.646,0.502 -1.45,0.927 -2.411,1.274c-0.96,0.347 -1.956,0.585 -2.986,0.713c-1.429,0.178 -2.749,0.114 -3.96,-0.191c-1.21,-0.305 -2.271,-0.797 -3.183,-1.477c-0.911,-0.68 -1.65,-1.533 -2.216,-2.559c-0.567,-1.026 -0.929,-2.179 -1.089,-3.459c-0.179,-1.445 -0.086,-2.794 0.282,-4.047c0.367,-1.252 0.934,-2.36 1.7,-3.324c0.766,-0.964 1.697,-1.755 2.793,-2.372c1.096,-0.618 2.283,-1.006 3.563,-1.165c0.432,-0.054 0.888,-0.081 1.369,-0.082c0.481,0 0.961,0.028 1.441,0.087c0.48,0.058 0.945,0.14 1.397,0.244c0.452,0.104 0.865,0.242 1.241,0.415l-1.185,2.678c-0.251,-0.12 -0.546,-0.214 -0.883,-0.282c-0.338,-0.068 -0.686,-0.122 -1.045,-0.161c-0.36,-0.04 -0.712,-0.059 -1.058,-0.058c-0.346,0 -0.668,0.019 -0.967,0.057c-0.848,0.105 -1.637,0.376 -2.367,0.813c-0.73,0.437 -1.359,0.983 -1.884,1.639c-0.526,0.656 -0.918,1.409 -1.175,2.259c-0.257,0.851 -0.328,1.733 -0.215,2.647c0.104,0.831 0.36,1.6 0.768,2.309c0.409,0.708 0.932,1.314 1.568,1.817c0.636,0.503 1.366,0.876 2.189,1.12c0.824,0.243 1.701,0.307 2.631,0.192c0.332,-0.042 0.744,-0.123 1.236,-0.243c0.491,-0.12 0.951,-0.283 1.382,-0.488l-0.385,-3.091l-3.39,0.422l-0.328,-2.642l6.206,-0.772Z" style="fill-rule:nonzero;"/></g></svg>