<?xml version="1.0" encoding="utf-8"?>
<!-- Generator: Adobe Illustrator 25.4.1, SVG Export Plug-In . SVG Version: 6.00 Build 0)  -->
<svg version="1.1" id="logo__x26__colors" xmlns="http://www.w3.org/2000/svg" xmlns:xlink="http://www.w3.org/1999/xlink" x="0px"
	 y="0px" viewBox="0 0 473.97815 132.85254" style="enable-background:new 0 0 473.97815 132.85254;" xml:space="preserve">
<style type="text/css">
	.st0{fill:#FFFFFF;}
</style>
<g>
	<g>
		<path class="st0" d="M149.86096,68.50309h-9.71973v15.05957h-8.58008V40.48454h17.09961
			c10.19922,0,17.09961,4.25977,17.09961,14.03955c0,5.87939-2.33984,9.71924-6.83984,11.5791v0.36035
			c4.91992,3.71973,7.25977,9.05957,7.25977,17.15918h-9.83984C156.34045,77.02311,154.42053,71.98307,149.86096,68.50309z
			 M149.6803,60.76334c4.2002,0,6.66016-2.15967,6.66016-6.23926c0-4.2002-3-5.93994-7.25977-5.93994h-8.93945v12.1792H149.6803z"/>
		<path class="st0" d="M171.401,68.50309c0-9.83936,6.41992-15.95898,16.55957-15.95898
			c10.08008,0,16.49902,6.11963,16.49902,15.95898c0,9.65967-6.2998,15.95947-16.49902,15.95947S171.401,78.16276,171.401,68.50309z
			 M195.64026,68.50309c0-5.15967-3.05957-8.2793-7.7998-8.2793c-4.55957,0-7.61914,3.11963-7.61914,8.2793
			c0,5.27979,3.2998,8.27979,7.73926,8.27979C192.58069,76.78288,195.64026,73.78288,195.64026,68.50309z"/>
		<path class="st0" d="M209.50159,68.50309c0-9.83936,6.41992-15.95898,16.55957-15.95898
			c0.90039,0.06006,5.82031,0.11963,9.59961,2.63965v8.09961c-3.54004-2.33984-7.13965-2.93994-9.71973-2.93994
			c-4.55957,0-7.61914,3-7.61914,8.15967c0,5.27979,3.2998,8.15967,7.73926,8.15967c2.94043,0,6.59961-1.01953,9.12012-2.81982
			v8.09961c-2.75977,1.97998-7.74023,2.52002-9.12012,2.52002C215.86194,84.46256,209.50159,78.16276,209.50159,68.50309z"/>
		<path class="st0" d="M242.85999,39.46452h8.58008V64.4235h3.05957l7.08008-11.09961h9.83984L260.9801,68.20329l11.2793,15.35938
			h-10.25977l-8.09961-11.63965h-2.45996v11.63965h-8.58008V39.46452z"/>
		<path class="st0" d="M273.94104,68.3234c0-9.47998,6.35938-15.83936,15.35938-15.83936
			c9.17969,0,14.2793,5.93945,14.2793,14.15918c0,2.22021-0.24023,3.77979-0.41992,4.7998h-20.33887
			c0,2.28027,2.15918,5.87988,8.93945,5.87988c2.58008,0,6.59961-0.35986,10.01953-1.62012v6.71973
			c-3.54004,1.43994-6.47949,2.1001-10.62012,2.1001C279.82092,84.52262,273.94104,77.98307,273.94104,68.3234z M294.81995,65.62321
			c0.06055-0.23975,0.06055-0.65967,0.06055-0.8999c0-2.51953-1.56055-5.03955-5.75977-5.03955
			c-3.54004,0-6.36035,2.57959-6.36035,5.93945H294.81995z"/>
		<path class="st0" d="M328.35999,76.84293v6.65967c-1.2002,0.47998-4.14062,0.95996-5.58008,0.95996
			c-3.59961,0-10.67969-0.95996-10.67969-10.85938V60.88346h-3.35938v-7.49951h3.7793c0.54004-3.2998,1.44043-5.87988,1.7998-6.8999
			h6.36035v6.8999h6.89941v7.49951h-6.89941v11.51953c0,4.67969,2.45996,4.73975,4.85938,4.73975
			C325.95959,77.14274,327.94006,76.90299,328.35999,76.84293z"/>
		<path class="st0" d="M335.73987,40.36442h15.41992c11.21875,0,14.39941,4.7998,14.39941,11.09961
			c0,4.7998-1.74023,8.15967-6.12012,9.59961v0.35986c4.74023,1.43994,7.7998,4.31982,7.7998,10.01953
			c0,8.87988-6.54004,12.11963-16.49902,12.11963h-15V40.36442z M350.61975,76.06315c4.85938,0,7.7998-0.84033,7.7998-5.27979
			c0-3.72021-2.45996-5.58008-7.32031-5.58008h-6.7793v10.85986H350.61975z M350.73987,57.88346
			c3.59961,0,5.99902-1.73975,5.99902-5.09961c0-3.47998-2.15918-4.91992-6.53906-4.91992h-5.82031v10.01953H350.73987z"/>
		<path class="st0" d="M372.70081,68.68327c0-9.53955,5.81934-16.13916,14.51953-16.13916c4.37988,0,7.85938,1.97998,9.53906,4.7998
			h0.36035c0.36035-1.26025,0.89941-2.45996,1.43945-3.95996h5.52051v19.61914c0,4.07959,0.65918,4.85986,2.21973,4.85986
			c0.41992,0,0.83984-0.06006,1.25977-0.12012v5.87988c-1.2002,0.47998-2.93945,0.83984-4.37988,0.83984
			c-3.59961,0-5.69922-1.62012-6.05957-4.67969h-0.41992c-1.67969,3.11963-5.45996,4.73975-10.01953,4.73975
			C378.22034,84.52262,372.70081,77.98307,372.70081,68.68327z M396.09924,68.56315c0-5.27979-2.81934-8.45947-7.31934-8.45947
			c-4.2002,0-7.25977,3.17969-7.25977,8.45947c0,5.16016,3,8.45996,7.31934,8.45996
			C393.45959,77.02311,396.09924,73.7233,396.09924,68.56315z"/>
		<path class="st0" d="M413.01917,81.52262l0.06055-7.49951c2.87988,1.7998,8.99902,3.59961,13.0791,3.59961
			c2.40039,0,4.25977-0.65967,4.25977-2.33984c0-2.04004-2.87988-2.69971-6.47949-3.53955
			c-5.09961-1.2002-10.97949-3.06006-10.97949-9.65967c0-5.52002,4.67969-9.59961,12.83887-9.59961
			c3.83984,0,8.28027,0.65967,11.33984,1.67969v7.5c-2.81934-1.2002-7.55957-2.3999-11.03906-2.3999
			c-2.40039,0-4.08008,0.59961-4.08008,2.27979c0,2.09961,2.51953,2.52002,6.7793,3.47998
			c4.56055,1.02002,10.67969,2.69971,10.67969,9.41943c0,5.15967-3.35938,10.01953-13.49902,10.01953
			C419.49963,84.46256,414.09924,82.18278,413.01917,81.52262z"/>
		<path class="st0" d="M444.33948,68.3234c0-9.47998,6.35938-15.83936,15.35938-15.83936
			c9.17969,0,14.2793,5.93945,14.2793,14.15918c0,2.22021-0.24023,3.77979-0.41992,4.7998h-20.33887
			c0,2.28027,2.15918,5.87988,8.93945,5.87988c2.58008,0,6.59961-0.35986,10.01953-1.62012v6.71973
			c-3.54004,1.43994-6.47949,2.1001-10.62012,2.1001C450.21936,84.52262,444.33948,77.98307,444.33948,68.3234z M465.21838,65.62321
			c0.06055-0.23975,0.06055-0.65967,0.06055-0.8999c0-2.51953-1.56055-5.03955-5.75977-5.03955
			c-3.54004,0-6.36035,2.57959-6.36035,5.93945H465.21838z"/>
	</g>
	<g>
		<path class="st0" d="M111.11414,126.85254H80.87122c0.02612-0.24176,0.04187-10.09229,0.04187-10.09229h22.53223
			c3.72034,0,6.73633-3.01593,6.73633-6.73633V95.05957c0-2.74121-1.06738-5.31885-3.00684-7.25732L80.57288,61.20032
			c0.11548-4.31641,0.20642-8.63397,0.28125-12.9527c0.73547-13.1712-3.00342-26.7558-11.75061-36.83685
			c-2.24988-2.58862-4.75305-5.01471-7.76086-6.84509c-1.40845-0.7937-2.73975-1.52374-4.53516-1.55688
			c-1.79883,0.04791-3.11755,0.77979-4.51917,1.5835c-2.98706,1.85278-5.46228,4.29596-7.68286,6.89905
			c-0.30615,0.3634-0.59827,0.73718-0.89258,1.10925V3c0-1.65674-1.34277-3-3-3H11.39355c-1.65723,0-3,1.34326-3,3v82.84912
			l-1.95312,1.95312c-1.93945,1.93848-3.00684,4.51611-3.00684,7.25732v14.96533c0,3.10431,2.10291,5.71106,4.95996,6.49103
			v10.33661H2.50012C1.11926,126.85254,0,127.97192,0,129.35272v0.99969c0,1.3808,1.11926,2.50012,2.50012,2.50012h108.61401
			c1.38074,0,2.50012-1.11932,2.50012-2.50012v-0.99969C113.61426,127.97192,112.49487,126.85254,111.11414,126.85254z
			 M33.78003,35.31982c-0.15125,0.90161-0.28003,1.80664-0.38391,2.7149l-7.21875,6.30341l-10.32788-9.01831H33.78003z
			 M18.52271,29.31982l7.49646-8.57312l7.49634,8.57312H18.52271z M33.30334,58.43243
			c0.00146,0.06909,0.00244,0.13812,0.00391,0.20721H18.27771l7.60327-8.70728L33.30334,58.43243z M33.16223,50.43744
			l-4.38147-3.82599l4.32593-4.9541c-0.00305,0.06909-0.00977,0.13794-0.01257,0.20703
			C33.09961,44.72223,33.12622,47.5799,33.16223,50.43744z M37.80518,22.23401c-0.32849,0.71021-0.63721,1.42908-0.93213,2.15393
			l-7.95532-6.95618l8.79517-10.05841v14.15497C37.71289,21.77258,37.75012,22.00665,37.80518,22.23401z M36.19421,6
			l-10.17505,8.89716L15.84412,6H36.19421z M14.39355,7.45142l8.72693,9.98035l-8.72693,7.63092V7.45142z M14.39355,36.77679
			l8.84399,10.1283l-8.84399,7.7226V36.77679z M14.39355,64.63965h15.20947L14.39355,79.84912V64.63965z M14.39355,116.76025
			h18.30859c0,0,0.01575,9.85052,0.04187,10.09229H14.39355V116.76025z M59.81934,126.85254
			c0.02893-3.24054,0.01831-6.48114-0.04932-9.72168c-0.04968-3.90723-0.15845-7.81439-0.30481-11.72162
			c-0.28479-7.81439-0.67407-15.62878-1.7439-23.44318c-0.05493-0.3996-0.36951-0.73126-0.7887-0.78864
			c-0.50464-0.06915-0.96973,0.284-1.03882,0.78864c-1.06995,7.81439-1.45911,15.62878-1.7439,23.44318
			c-0.14648,3.90723-0.25513,7.81439-0.30493,11.72162c-0.0675,3.24054-0.07825,6.48114-0.04932,9.72168H39.4375
			c-0.40442,0-0.73535-0.33087-0.73535-0.73535v-12.85675c0-1.3808-1.11938-2.50018-2.50012-2.50018H10.16895
			c-0.40442,0-0.73535-0.33087-0.73535-0.73535V95.05957c0-1.1308,0.44922-2.21533,1.2489-3.01495l2.82971-2.82971
			c0.00171-0.00171,0.00342-0.00342,0.00513-0.00513l20.06226-20.06232c0.31287,9.65405,0.76306,19.30719,1.3208,28.96008
			c0.02441,0.39868,0.34253,0.72601,0.75146,0.75146c0.4425,0.02753,0.82361-0.3089,0.85107-0.75146
			c1.10193-17.65649,1.54504-35.3158,1.85217-52.97626c0.08838-10.73053,3.89795-21.50781,10.95923-29.60065
			c2.17163-2.36517,4.5376-4.82043,7.48218-6.03186c2.92456,1.25305,5.26782,3.72162,7.41016,6.11249
			c2.5011,2.91095,4.56116,6.2301,6.24438,9.71674c3.48364,7.07892,4.64038,15.0777,4.52124,22.91956
			c0.28857,16.6377,0.79443,33.25879,2.16919,49.85999c0.03137,0.36884,0.32434,0.67285,0.70557,0.70557
			c0.42627,0.03662,0.80151-0.2793,0.83813-0.70557c0.79126-9.55426,1.28906-19.11517,1.62866-28.68182l22.6189,22.6189
			c0.79968,0.79962,1.2489,1.88416,1.2489,3.01495v14.96436c0,0.40668-0.32971,0.73633-0.73633,0.73633h-26.0321
			c-1.38086,0-2.50012,1.11938-2.50012,2.50018v12.85675c0,0.40448-0.33093,0.73535-0.73535,0.73535H59.81934z"/>
	</g>
</g>
</svg>
