<?xml version="1.0" encoding="UTF-8" standalone="no"?>
<!DOCTYPE svg PUBLIC "-//W3C//DTD SVG 1.1//EN" "http://www.w3.org/Graphics/SVG/1.1/DTD/svg11.dtd">
<svg width="100%" height="100%" viewBox="0 0 101 101" version="1.1" xmlns="http://www.w3.org/2000/svg" xmlns:xlink="http://www.w3.org/1999/xlink" xml:space="preserve" xmlns:serif="http://www.serif.com/" style="fill-rule:evenodd;clip-rule:evenodd;stroke-linecap:round;stroke-linejoin:round;">
    <g transform="matrix(1,0,0,1,-136,0)">
        <g id="design" transform="matrix(1,0,0,1.00503,136.57,-0.00251256)">
            <rect x="0" y="0.5" width="100" height="99.5" style="fill:none;"/>
            <g transform="matrix(4.03179,0,0,4.03179,1.61849,0.0958687)">
                <g transform="matrix(1,0,0,0.995,0,0.5)">
                    <path d="M9.55,6.5L2.5,6.5C1.403,6.5 0.5,7.403 0.5,8.5L0.5,21.5C0.5,22.597 1.403,23.5 2.5,23.5L21.5,23.5C22.597,23.5 23.5,22.597 23.5,21.5L23.5,8.5C23.5,7.403 22.597,6.5 21.5,6.5L19.449,6.5" style="fill:none;fill-rule:nonzero;stroke:black;stroke-width:1px;"/>
                </g>
                <g transform="matrix(1,0,0,0.995,0,0.5)">
                    <path d="M6.636,10.5L5.5,10.5C4.951,10.5 4.5,10.951 4.5,11.5L4.5,15.5C4.5,16.049 4.951,16.5 5.5,16.5L11.5,16.5C12.049,16.5 12.5,16.049 12.5,15.5L12.5,13.5" style="fill:none;fill-rule:nonzero;stroke:black;stroke-width:1px;"/>
                </g>
                <g transform="matrix(1,0,0,0.995,0,0.5)">
                    <path d="M12.5,13.5L13.5,13.5C14.049,13.5 14.5,13.951 14.5,14.5L14.5,18.5C14.5,19.049 14.049,19.5 13.5,19.5L7.5,19.5C6.951,19.5 6.5,19.049 6.5,18.5L6.5,16.5" style="fill:none;fill-rule:nonzero;stroke:black;stroke-width:1px;"/>
                </g>
                <g transform="matrix(1,0,0,0.995,0,0.5)">
                    <path d="M19.5,11.5C19.5,12.049 19.049,12.5 18.5,12.5L17.5,12.5C16.951,12.5 16.5,12.049 16.5,11.5C16.5,10.951 16.951,10.5 17.5,10.5L18.5,10.5C19.049,10.5 19.5,10.951 19.5,11.5Z" style="fill:none;fill-rule:nonzero;stroke:black;stroke-width:1px;"/>
                </g>
                <g transform="matrix(1,0,0,0.995,0,0.5)">
                    <path d="M19.5,14.748C19.5,14.611 19.389,14.5 19.252,14.5L16.748,14.5C16.611,14.5 16.5,14.611 16.5,14.748L16.5,19.252C16.5,19.389 16.611,19.5 16.748,19.5L19.252,19.5C19.389,19.5 19.5,19.389 19.5,19.252L19.5,14.748Z" style="fill:none;stroke:black;stroke-width:1px;"/>
                </g>
                <g transform="matrix(1,0,0,0.995,0,0.5)">
                    <path d="M20.061,0.939C19.78,0.658 19.398,0.499 19,0.499C18.602,0.499 18.22,0.658 17.939,0.939L8.854,10.025L8,13L10.975,12.146L20.061,3.061C20.342,2.78 20.501,2.398 20.501,2C20.501,1.602 20.342,1.22 20.061,0.939Z" style="fill:none;fill-rule:nonzero;stroke:black;stroke-width:1px;"/>
                </g>
            </g>
        </g>
    </g>
</svg>
