<?xml version="1.0" encoding="UTF-8" standalone="no"?>
<!DOCTYPE svg PUBLIC "-//W3C//DTD SVG 1.1//EN" "http://www.w3.org/Graphics/SVG/1.1/DTD/svg11.dtd">
<svg width="100%" height="100%" viewBox="0 0 101 100" version="1.1" xmlns="http://www.w3.org/2000/svg" xmlns:xlink="http://www.w3.org/1999/xlink" xml:space="preserve" xmlns:serif="http://www.serif.com/" style="fill-rule:evenodd;clip-rule:evenodd;stroke-linecap:round;stroke-linejoin:round;">
    <g transform="matrix(1,0,0,1,-260,0)">
        <g id="development" transform="matrix(1,0,0,1.00503,260.158,-0.502513)">
            <rect x="0" y="0.5" width="100" height="99.5" style="fill:none;"/>
            <g transform="matrix(3.9978,0,0,3.97781,2.0264,2.51626)">
                <path d="M6.5,10.5L9,13L6.5,15.5" style="fill:none;fill-rule:nonzero;stroke:black;stroke-width:1px;"/>
                <path d="M12.5,13.5L16.5,13.5" style="fill:none;fill-rule:nonzero;stroke:black;stroke-width:1px;"/>
                <path d="M14,4.75C14.137,4.75 14.25,4.863 14.25,5C14.25,5.137 14.137,5.25 14,5.25C13.863,5.25 13.75,5.137 13.75,5C13.75,4.863 13.863,4.75 14,4.75" style="fill:none;fill-rule:nonzero;stroke:black;stroke-width:1px;"/>
                <path d="M17,4.75C17.137,4.75 17.25,4.863 17.25,5C17.25,5.137 17.137,5.25 17,5.25C16.863,5.25 16.75,5.137 16.75,5C16.75,4.863 16.863,4.75 17,4.75" style="fill:none;fill-rule:nonzero;stroke:black;stroke-width:1px;"/>
                <path d="M20,4.75C20.137,4.75 20.25,4.863 20.25,5C20.25,5.137 20.137,5.25 20,5.25C19.863,5.25 19.75,5.137 19.75,5C19.75,4.863 19.863,4.75 20,4.75" style="fill:none;fill-rule:nonzero;stroke:black;stroke-width:1px;"/>
                <path d="M23.5,2.75C23.5,2.612 23.388,2.5 23.25,2.5L0.75,2.5C0.612,2.5 0.5,2.612 0.5,2.75L0.5,21.25C0.5,21.388 0.612,21.5 0.75,21.5L23.25,21.5C23.388,21.5 23.5,21.388 23.5,21.25L23.5,2.75Z" style="fill:none;stroke:black;stroke-width:1px;"/>
                <path d="M0.5,7.5L23.5,7.5" style="fill:none;fill-rule:nonzero;stroke:black;stroke-width:1px;"/>
            </g>
        </g>
    </g>
</svg>
