<?xml version="1.0" encoding="UTF-8" standalone="no"?>
<!DOCTYPE svg PUBLIC "-//W3C//DTD SVG 1.1//EN" "http://www.w3.org/Graphics/SVG/1.1/DTD/svg11.dtd">
<svg width="100%" height="100%" viewBox="0 0 100 101" version="1.1" xmlns="http://www.w3.org/2000/svg" xmlns:xlink="http://www.w3.org/1999/xlink" xml:space="preserve" xmlns:serif="http://www.serif.com/" style="fill-rule:evenodd;clip-rule:evenodd;stroke-linejoin:round;stroke-miterlimit:2;">
    <g transform="matrix(1,0,0,1,0,-582)">
        <g id="email" transform="matrix(1,0,0,1.00503,0,581.906)">
            <rect x="0" y="0.5" width="100" height="99.5" style="fill:none;"/>
            <g transform="matrix(0.182248,0,0,0.181337,3.34259,3.82855)">
                <path d="M485,29.72C496.45,44.85 501.61,69.93 504.15,100.42C507.51,145.92 508.86,200.52 510.15,256.94C508.48,314.41 507.8,372.37 504.15,413.46C501.27,445 495.15,466.12 484.93,478.93C471.93,491.72 446.99,502.52 411.43,505.08C368.18,508.77 314.82,508.73 255.95,510.18C190.51,509.06 146.13,509.54 99.57,505.1C63.25,502.58 39.49,491.91 24.87,479.03C14.04,464.49 10.87,449.03 7.87,412.79C4.12,370.94 3.29,314.23 1.87,257.25C4,200.57 4.13,143.44 7.9,100.74C10.43,67.05 14.42,44.4 24.65,30C39,17.77 63.48,11.69 100,8.69C150,2.84 202.06,1.69 255.88,1.82C311.27,1.91 364.44,3.49 411.88,8.16C443.88,10.72 470.36,16.23 484.95,29.72L485,29.72Z" style="fill:rgb(255,63,0);"/>
            </g>
            <g transform="matrix(6.86261,0,0,6.8283,-59.7379,-78.7195)">
                <path d="M15.997,14.042C13.307,14.042 11.117,16.216 11.117,18.888C11.117,21.56 13.306,23.733 15.997,23.733C17.042,23.733 18.038,23.41 18.878,22.798C19.102,22.636 19.15,22.322 18.988,22.1C18.826,21.875 18.511,21.829 18.29,21.99C17.622,22.476 16.829,22.733 15.997,22.733C13.857,22.733 12.117,21.008 12.117,18.888C12.117,16.768 13.857,15.042 15.997,15.042C17.973,15.042 19.63,16.507 19.851,18.441C19.913,19.071 19.752,19.663 19.423,20.025C19.205,20.264 18.933,20.385 18.611,20.385C18.335,20.385 18.239,20.282 18.208,20.249C18.05,20.078 18.034,19.748 18.041,19.649C18.042,19.643 18.037,19.638 18.038,19.632C18.038,19.623 18.043,19.615 18.043,19.606L18.042,18.436C18.045,18.391 18.09,17.336 17.286,16.737C16.643,16.256 15.694,16.232 14.466,16.667C14.206,16.76 14.07,17.045 14.161,17.306C14.254,17.567 14.537,17.702 14.8,17.611C15.676,17.301 16.328,17.274 16.684,17.536C16.9,17.695 16.981,17.942 17.016,18.137C16.234,17.998 14.973,17.89 14.278,18.481C14.017,18.703 13.721,19.117 13.799,19.829C13.904,20.791 14.576,21.387 15.556,21.387L15.572,21.387C16.182,21.383 16.856,21.148 17.345,20.769C17.382,20.823 17.423,20.874 17.47,20.925C17.663,21.136 18.018,21.387 18.612,21.387C19.218,21.387 19.755,21.149 20.164,20.699C20.686,20.123 20.935,19.266 20.847,18.339C20.565,15.888 18.48,14.042 15.997,14.042ZM15.565,20.385L15.554,20.385C14.937,20.385 14.824,20.005 14.792,19.718C14.76,19.423 14.845,19.309 14.923,19.242C15.109,19.085 15.461,19.024 15.864,19.024C16.248,19.024 16.667,19.085 17.042,19.163L17.042,19.564C17.006,19.873 16.284,20.381 15.565,20.385Z" style="fill:white;fill-rule:nonzero;"/>
            </g>
        </g>
    </g>
</svg>
