<?xml version="1.0" encoding="UTF-8" standalone="no"?>
<!DOCTYPE svg PUBLIC "-//W3C//DTD SVG 1.1//EN" "http://www.w3.org/Graphics/SVG/1.1/DTD/svg11.dtd">
<svg width="100%" height="100%" viewBox="0 0 100 101" version="1.1" xmlns="http://www.w3.org/2000/svg" xmlns:xlink="http://www.w3.org/1999/xlink" xml:space="preserve" xmlns:serif="http://www.serif.com/" style="fill-rule:evenodd;clip-rule:evenodd;stroke-linejoin:round;stroke-miterlimit:2;">
    <g transform="matrix(1,0,0,1,0,-439)">
        <g id="github" transform="matrix(1,0,0,1.00503,0,438.87)">
            <rect x="0" y="0.5" width="100" height="99.5" style="fill:none;"/>
            <g transform="matrix(0.182248,0,0,0.181337,3.67611,4.15859)">
                <g transform="matrix(1,0,0,1,-1.83,-1.82)">
                    <path d="M485,29.72C496.45,44.85 501.61,69.93 504.15,100.42C507.51,145.92 508.86,200.52 510.15,256.94C508.48,314.41 507.8,372.37 504.15,413.46C501.27,445 495.15,466.12 484.93,478.93C471.93,491.72 446.99,502.52 411.43,505.08C368.18,508.77 314.82,508.73 255.95,510.18C190.51,509.06 146.13,509.54 99.57,505.1C63.25,502.58 39.49,491.91 24.87,479.03C14.04,464.49 10.87,449.03 7.87,412.79C4.12,370.94 3.29,314.23 1.87,257.25C4,200.57 4.13,143.44 7.9,100.74C10.43,67.05 14.42,44.4 24.65,30C39,17.77 63.48,11.69 100,8.69C150,2.84 202.06,1.69 255.88,1.82C311.27,1.91 364.44,3.49 411.88,8.16C443.88,10.72 470.36,16.23 484.95,29.72L485,29.72Z" style="fill:rgb(36,41,46);"/>
                </g>
                <g transform="matrix(1,0,0,1,-1.83,-1.82)">
                    <path d="M249.83,102.87C167.643,102.896 100.027,170.533 100.027,252.72C100.027,317.043 141.443,374.516 202.46,394.87C209.95,396.26 212.7,391.62 212.7,387.66C212.7,384.09 212.56,372.28 212.5,359.76C170.81,368.83 162,342.09 162,342.09C155.18,324.77 145.36,320.17 145.36,320.17C131.76,310.87 146.36,311.06 146.36,311.06C161.36,312.12 169.36,326.5 169.36,326.5C182.72,349.4 204.41,342.78 212.96,338.95C214.3,329.27 218.19,322.66 222.47,318.95C189.19,315.16 154.2,302.31 154.2,244.95C153.992,230.063 159.524,215.653 169.64,204.73C168.08,200.95 162.96,185.73 171.09,165.08C171.09,165.08 183.67,161.08 212.3,180.44C236.847,173.724 262.753,173.724 287.3,180.44C316,161 328.53,165 328.53,165C336.69,185.64 331.53,200.88 330,204.65C340.12,215.569 345.647,229.984 345.42,244.87C345.42,302.42 310.37,315.09 277,318.8C282.37,323.45 287.16,332.57 287.16,346.55C287.16,366.55 286.99,382.73 286.99,387.67C286.99,391.67 289.69,396.33 297.28,394.86C358.297,374.506 399.713,317.033 399.713,252.71C399.713,170.505 332.068,102.86 249.863,102.86C249.852,102.86 249.841,102.86 249.83,102.86L249.83,102.87Z" style="fill:white;fill-rule:nonzero;"/>
                </g>
                <g transform="matrix(1,0,0,1,-1.83,-1.82)">
                    <path d="M156.75,318C156.42,318.75 155.25,319 154.18,318.46C153.11,317.92 152.48,316.96 152.84,316.21C153.2,315.46 154.33,315.21 155.42,315.74C156.51,316.27 157.13,317.25 156.75,318Z" style="fill:white;fill-rule:nonzero;"/>
                </g>
                <g transform="matrix(1,0,0,1,-1.83,-1.82)">
                    <path d="M162.82,324.76C162.11,325.42 160.71,325.11 159.76,324.07C158.81,323.03 158.6,321.63 159.32,320.96C160.04,320.29 161.41,320.61 162.39,321.65C163.37,322.69 163.56,324.09 162.82,324.76Z" style="fill:white;fill-rule:nonzero;"/>
                </g>
                <g transform="matrix(1,0,0,1,-1.83,-1.82)">
                    <path d="M168.73,333.39C167.81,334.03 166.31,333.39 165.38,332.1C164.45,330.81 164.46,329.17 165.38,328.53C166.3,327.89 167.79,328.47 168.73,329.79C169.67,331.11 169.65,332.79 168.73,333.4L168.73,333.39Z" style="fill:white;fill-rule:nonzero;"/>
                </g>
                <g transform="matrix(1,0,0,1,-1.83,-1.82)">
                    <path d="M176.82,341.73C176,342.64 174.25,342.39 172.97,341.16C171.69,339.93 171.3,338.24 172.12,337.33C172.94,336.42 174.71,336.68 176,337.9C177.29,339.12 177.7,340.83 176.82,341.73Z" style="fill:white;fill-rule:nonzero;"/>
                </g>
                <g transform="matrix(1,0,0,1,-1.83,-1.82)">
                    <path d="M188,346.57C187.64,347.74 186,348.28 184.26,347.78C182.52,347.28 181.46,345.89 181.8,344.71C182.14,343.53 183.8,342.97 185.55,343.51C187.3,344.05 188.35,345.39 188,346.58L188,346.57Z" style="fill:white;fill-rule:nonzero;"/>
                </g>
                <g transform="matrix(1,0,0,1,-1.83,-1.82)">
                    <path d="M200.25,347.47C200.25,348.71 198.85,349.73 197.07,349.75C195.29,349.77 193.83,348.75 193.81,347.57C193.79,346.39 195.22,345.31 197.01,345.28C198.8,345.25 200.25,346.28 200.25,347.47Z" style="fill:white;fill-rule:nonzero;"/>
                </g>
                <g transform="matrix(1,0,0,1,-1.83,-1.82)">
                    <path d="M211.66,345.52C211.87,346.72 210.66,347.96 208.87,348.29C207.08,348.62 205.52,347.86 205.3,346.67C205.08,345.48 206.3,344.2 208.08,343.88C209.86,343.56 211.44,344.3 211.66,345.52Z" style="fill:white;fill-rule:nonzero;"/>
                </g>
            </g>
        </g>
    </g>
</svg>
