<?xml version="1.0" encoding="UTF-8" standalone="no"?>
<!DOCTYPE svg PUBLIC "-//W3C//DTD SVG 1.1//EN" "http://www.w3.org/Graphics/SVG/1.1/DTD/svg11.dtd">
<svg width="100%" height="100%" viewBox="0 0 101 100" version="1.1" xmlns="http://www.w3.org/2000/svg" xmlns:xlink="http://www.w3.org/1999/xlink" xml:space="preserve" xmlns:serif="http://www.serif.com/" style="fill-rule:evenodd;clip-rule:evenodd;stroke-linecap:round;stroke-linejoin:round;">
    <g transform="matrix(1,0,0,1,-381,0)">
        <g id="hosting" transform="matrix(1,0,0,1.00503,381.433,-0.502513)">
            <rect x="0" y="0.5" width="100" height="99.5" style="fill:none;"/>
            <g transform="matrix(3.95795,0,0,3.93816,2.51227,2.99231)">
                <circle cx="17.75" cy="17.031" r="1.438" style="fill:none;stroke:black;stroke-width:1px;"/>
                <path d="M18.971,11.47L19.395,12.862C19.538,13.339 20.034,13.627 20.52,13.515L21.931,13.188C22.024,13.167 22.118,13.157 22.213,13.157C22.917,13.157 23.496,13.736 23.496,14.44C23.496,14.764 23.373,15.077 23.152,15.314L22.164,16.378C21.828,16.743 21.828,17.313 22.164,17.678L23.151,18.743C23.372,18.98 23.495,19.293 23.495,19.617C23.495,20.321 22.916,20.9 22.212,20.9C22.117,20.9 22.023,20.89 21.93,20.869L20.519,20.542C20.034,20.434 19.541,20.723 19.4,21.2L18.976,22.592C18.814,23.129 18.316,23.5 17.755,23.5C17.194,23.5 16.696,23.129 16.534,22.592L16.105,21.2C15.962,20.723 15.466,20.435 14.98,20.547L13.569,20.874C13.476,20.895 13.382,20.905 13.287,20.905C12.583,20.905 12.004,20.326 12.004,19.622C12.004,19.298 12.127,18.985 12.348,18.748L13.335,17.683C13.671,17.318 13.671,16.748 13.335,16.383L12.348,15.318C12.127,15.081 12.004,14.768 12.004,14.444C12.004,13.74 12.583,13.161 13.287,13.161C13.382,13.161 13.476,13.171 13.569,13.192L14.98,13.519C15.466,13.631 15.961,13.343 16.105,12.866L16.529,11.474C16.69,10.936 17.189,10.564 17.751,10.564C18.311,10.564 18.809,10.934 18.971,11.47Z" style="fill:none;fill-rule:nonzero;stroke:black;stroke-width:1px;"/>
                <path d="M5.5,20.5L8.5,20.5" style="fill:none;fill-rule:nonzero;stroke:black;stroke-width:1px;"/>
                <path d="M8.501,15.5L8.501,20.5" style="fill:none;fill-rule:nonzero;stroke:black;stroke-width:1px;"/>
                <path d="M3.25,20C3.113,20 3,20.113 3,20.25C3,20.387 3.113,20.5 3.25,20.5C3.387,20.5 3.5,20.387 3.5,20.25C3.5,20.113 3.387,20 3.25,20" style="fill:none;fill-rule:nonzero;stroke:black;stroke-width:1px;"/>
                <path d="M0.75,20C0.613,20 0.5,20.113 0.5,20.25C0.5,20.387 0.613,20.5 0.75,20.5C0.887,20.5 1,20.387 1,20.25C1,20.113 0.887,20 0.75,20" style="fill:none;fill-rule:nonzero;stroke:black;stroke-width:1px;"/>
                <path d="M4.25,12.75C4.113,12.75 4,12.863 4,13C4,13.137 4.113,13.25 4.25,13.25C4.387,13.25 4.5,13.137 4.5,13C4.5,12.863 4.387,12.75 4.25,12.75" style="fill:none;fill-rule:nonzero;stroke:black;stroke-width:1px;"/>
                <path d="M6.75,12.75C6.613,12.75 6.5,12.863 6.5,13C6.5,13.137 6.613,13.25 6.75,13.25C6.887,13.25 7,13.137 7,13C7,12.863 6.887,12.75 6.75,12.75" style="fill:none;fill-rule:nonzero;stroke:black;stroke-width:1px;"/>
                <path d="M12.5,10.5L3,10.5C1.629,10.5 0.5,11.629 0.5,13C0.5,14.371 1.629,15.5 3,15.5L9.5,15.5" style="fill:none;fill-rule:nonzero;stroke:black;stroke-width:1px;"/>
                <path d="M4.25,7.75C4.113,7.75 4,7.863 4,8C4,8.137 4.113,8.25 4.25,8.25C4.387,8.25 4.5,8.137 4.5,8C4.5,7.863 4.387,7.75 4.25,7.75" style="fill:none;fill-rule:nonzero;stroke:black;stroke-width:1px;"/>
                <path d="M6.75,7.75C6.613,7.75 6.5,7.863 6.5,8C6.5,8.137 6.613,8.25 6.75,8.25C6.887,8.25 7,8.137 7,8C7,7.863 6.887,7.75 6.75,7.75" style="fill:none;fill-rule:nonzero;stroke:black;stroke-width:1px;"/>
                <path d="M17.5,8C17.5,6.629 16.371,5.5 15,5.5L3,5.5C1.629,5.5 0.5,6.629 0.5,8C0.5,9.371 1.629,10.5 3,10.5L12.5,10.5" style="fill:none;fill-rule:nonzero;stroke:black;stroke-width:1px;"/>
                <path d="M4.25,2.75C4.113,2.75 4,2.863 4,3C4,3.137 4.113,3.25 4.25,3.25C4.387,3.25 4.5,3.137 4.5,3C4.5,2.863 4.387,2.75 4.25,2.75" style="fill:none;fill-rule:nonzero;stroke:black;stroke-width:1px;"/>
                <path d="M6.75,2.75C6.613,2.75 6.5,2.863 6.5,3C6.5,3.137 6.613,3.25 6.75,3.25C6.887,3.25 7,3.137 7,3C7,2.863 6.887,2.75 6.75,2.75" style="fill:none;fill-rule:nonzero;stroke:black;stroke-width:1px;"/>
                <path d="M17.5,3C17.5,1.629 16.371,0.5 15,0.5L3,0.5C1.629,0.5 0.5,1.629 0.5,3C0.5,4.371 1.629,5.5 3,5.5L15,5.5C16.371,5.5 17.5,4.371 17.5,3Z" style="fill:none;fill-rule:nonzero;stroke:black;stroke-width:1px;"/>
            </g>
        </g>
    </g>
</svg>
