<?xml version="1.0" encoding="UTF-8" standalone="no"?>
<!DOCTYPE svg PUBLIC "-//W3C//DTD SVG 1.1//EN" "http://www.w3.org/Graphics/SVG/1.1/DTD/svg11.dtd">
<svg width="100%" height="100%" viewBox="0 0 101 101" version="1.1" xmlns="http://www.w3.org/2000/svg" xmlns:xlink="http://www.w3.org/1999/xlink" xml:space="preserve" xmlns:serif="http://www.serif.com/" style="fill-rule:evenodd;clip-rule:evenodd;stroke-linecap:round;stroke-linejoin:round;">
    <g transform="matrix(1,0,0,1,-263,-289)">
        <g id="legal" transform="matrix(1,0,0,1.00503,263.737,288.683)">
            <rect x="0" y="0.5" width="100" height="99.5" style="fill:none;"/>
            <g transform="matrix(3.95751,0,0,3.93772,2.50987,2.99732)">
                <path d="M15.5,13L15.5,23.5" style="fill:none;fill-rule:nonzero;stroke:black;stroke-width:1px;"/>
                <path d="M7.5,18.5L10,11.5L12.5,18.5" style="fill:none;fill-rule:nonzero;stroke:black;stroke-width:1px;"/>
                <circle cx="15.5" cy="11.5" r="1.5" style="fill:none;stroke:black;stroke-width:1px;"/>
                <path d="M17,11.5L22,11.5" style="fill:none;fill-rule:nonzero;stroke:black;stroke-width:1px;"/>
                <path d="M9,11.5L14,11.5" style="fill:none;fill-rule:nonzero;stroke:black;stroke-width:1px;"/>
                <path d="M12.5,23.5L18.5,23.5" style="fill:none;fill-rule:nonzero;stroke:black;stroke-width:1px;"/>
                <path d="M12.5,18.5C12.5,19.871 11.371,21 10,21C8.629,21 7.5,19.871 7.5,18.5L12.5,18.5Z" style="fill:none;fill-rule:nonzero;stroke:black;stroke-width:1px;"/>
                <path d="M23.5,18.5L21,11.5L18.5,18.5" style="fill:none;fill-rule:nonzero;stroke:black;stroke-width:1px;"/>
                <path d="M18.5,18.5C18.5,19.871 19.629,21 21,21C22.371,21 23.5,19.871 23.5,18.5L18.5,18.5Z" style="fill:none;fill-rule:nonzero;stroke:black;stroke-width:1px;"/>
                <path d="M9.5,23.5L1.5,23.5C0.951,23.5 0.5,23.049 0.5,22.5L0.5,1.5C0.5,0.951 0.951,0.5 1.5,0.5L10.5,0.5C11.133,0.534 11.735,0.784 12.207,1.207L15.793,4.793C16.216,5.265 16.466,5.867 16.5,6.5L16.5,8" style="fill:none;fill-rule:nonzero;stroke:black;stroke-width:1px;"/>
                <path d="M11.5,0.745L11.5,4.5C11.5,5.049 11.951,5.5 12.5,5.5L16.255,5.5" style="fill:none;fill-rule:nonzero;stroke:black;stroke-width:1px;"/>
                <path d="M3.5,5.5L6,5.5" style="fill:none;fill-rule:nonzero;stroke:black;stroke-width:1px;"/>
                <path d="M3.5,8.5L9,8.5" style="fill:none;fill-rule:nonzero;stroke:black;stroke-width:1px;"/>
            </g>
        </g>
    </g>
</svg>
