<?xml version="1.0" encoding="UTF-8" standalone="no"?>
<!DOCTYPE svg PUBLIC "-//W3C//DTD SVG 1.1//EN" "http://www.w3.org/Graphics/SVG/1.1/DTD/svg11.dtd">
<svg width="100%" height="100%" viewBox="0 0 101 101" version="1.1" xmlns="http://www.w3.org/2000/svg" xmlns:xlink="http://www.w3.org/1999/xlink" xml:space="preserve" xmlns:serif="http://www.serif.com/" style="fill-rule:evenodd;clip-rule:evenodd;stroke-linecap:round;stroke-linejoin:round;">
    <g transform="matrix(1,0,0,1,-385,-157)">
        <g id="tools" transform="matrix(1,0,0,1.00503,385.284,157.401)">
            <rect x="0" y="0.5" width="100" height="99.5" style="fill:none;"/>
            <g transform="matrix(4.10931,0,0,4.08876,0.954733,1.17873)">
                <path d="M19.169,2.135L17.814,0.78C17.442,0.409 16.831,0.409 16.459,0.78L12.394,4.845C12.214,5.024 12.113,5.268 12.113,5.522C12.113,5.777 12.214,6.021 12.394,6.2L13.749,7.555C14.121,7.926 14.732,7.926 15.104,7.555L19.17,3.49C19.54,3.117 19.539,2.507 19.169,2.135Z" style="fill:none;fill-rule:nonzero;stroke:black;stroke-width:1px;"/>
                <path d="M22.053,14.646C23.799,11.994 23.441,8.449 21.2,6.2L19.168,4.166C18.982,3.98 18.676,3.98 18.49,4.166L15.78,6.876C15.594,7.062 15.594,7.368 15.78,7.554L18.129,9.9C19.302,11.079 20.066,12.604 20.306,14.25C20.363,14.643 20.657,14.962 21.044,15.05C21.43,15.137 21.832,14.978 22.053,14.65L22.053,14.646Z" style="fill:none;fill-rule:nonzero;stroke:black;stroke-width:1px;"/>
                <path d="M6.988,19.348C6.709,19.628 6.329,19.786 5.934,19.786C5.538,19.786 5.158,19.628 4.879,19.348L3.632,18.115C3.352,17.836 3.194,17.456 3.194,17.06C3.194,16.665 3.352,16.285 3.632,16.006C3.91,15.721 4.294,15.562 4.693,15.568C5.088,15.562 5.468,15.721 5.741,16.006L6.988,17.24C7.268,17.519 7.425,17.899 7.425,18.294C7.425,18.689 7.268,19.069 6.988,19.348Z" style="fill:none;fill-rule:nonzero;stroke:black;stroke-width:1px;"/>
                <path d="M4.849,15.085C4.583,14.807 4.435,14.437 4.435,14.053C4.435,13.235 5.108,12.561 5.927,12.561C6.311,12.561 6.68,12.709 6.958,12.975L9.133,15.151C9.413,15.428 9.571,15.806 9.571,16.2C9.57,16.597 9.413,16.978 9.133,17.26C8.544,17.814 7.613,17.814 7.024,17.26L4.849,15.085Z" style="fill:none;fill-rule:nonzero;stroke:black;stroke-width:1px;"/>
                <path d="M11.214,15.122C10.935,15.402 10.555,15.56 10.16,15.56C9.764,15.56 9.384,15.402 9.105,15.122L6.93,12.947C6.65,12.668 6.492,12.288 6.492,11.892C6.492,11.497 6.65,11.117 6.93,10.838C7.206,10.557 7.584,10.399 7.978,10.4C8.376,10.4 8.758,10.557 9.039,10.838L11.214,13.013C11.494,13.292 11.652,13.672 11.652,14.068C11.652,14.463 11.494,14.843 11.214,15.122Z" style="fill:none;fill-rule:nonzero;stroke:black;stroke-width:1px;"/>
                <path d="M12.809,12.092L12.809,12.217C12.822,12.492 12.662,12.749 12.409,12.858C11.844,13.098 11.186,12.98 10.74,12.558L9.508,11.311C9.223,11.037 9.065,10.657 9.072,10.262C9.067,9.863 9.226,9.48 9.512,9.202C10.101,8.648 11.032,8.648 11.621,9.202L12.801,10.402L12.832,10.436" style="fill:none;fill-rule:nonzero;stroke:black;stroke-width:1px;"/>
                <path d="M4.845,19.315L0.714,23.451" style="fill:none;fill-rule:nonzero;stroke:black;stroke-width:1px;"/>
                <path d="M16.187,7.961L14.279,9.871" style="fill:none;fill-rule:nonzero;stroke:black;stroke-width:1px;"/>
                <path d="M9.224,23.451L7.137,21.365" style="fill:none;fill-rule:nonzero;stroke:black;stroke-width:1px;"/>
                <path d="M5.013,23.46L14.642,13.96L12.98,12.3C12.711,12.031 12.559,11.665 12.559,11.284C12.559,10.496 13.207,9.848 13.996,9.848C14.376,9.848 14.742,9.999 15.011,10.268L17.042,12.3C17.762,13.019 18.166,13.995 18.166,15.012C18.166,16.029 17.762,17.005 17.042,17.724L16.708,18.058C15.595,19.173 15.595,21.006 16.708,22.121L17.944,23.501" style="fill:none;fill-rule:nonzero;stroke:black;stroke-width:1px;"/>
                <path d="M16.674,11.929L18.406,10.196" style="fill:none;fill-rule:nonzero;stroke:black;stroke-width:1px;"/>
            </g>
        </g>
    </g>
</svg>
