<?xml version="1.0" encoding="UTF-8" standalone="no"?>
<!DOCTYPE svg PUBLIC "-//W3C//DTD SVG 1.1//EN" "http://www.w3.org/Graphics/SVG/1.1/DTD/svg11.dtd">
<svg width="100%" height="100%" viewBox="0 0 101 101" version="1.1" xmlns="http://www.w3.org/2000/svg" xmlns:xlink="http://www.w3.org/1999/xlink" xml:space="preserve" xmlns:serif="http://www.serif.com/" style="fill-rule:evenodd;clip-rule:evenodd;stroke-linejoin:round;stroke-miterlimit:2;">
    <g transform="matrix(1,0,0,1,-263,-439)">
        <g id="xing" transform="matrix(1,0,0,1.00503,263.737,438.87)">
            <rect x="0" y="0.5" width="100" height="99.5" style="fill:none;"/>
            <g id="surface1" transform="matrix(2.5736,0,0,2.56073,-11.7663,-11.2075)">
                <path d="M42,37C42,39.743 39.743,42 37,42L11,42C8.257,42 6,39.743 6,37L6,11C6,8.257 8.257,6 11,6L37,6C39.743,6 42,8.257 42,11L42,37Z" style="fill:rgb(0,96,100);fill-rule:nonzero;"/>
                <path d="M16.648,30L12.61,30C12.399,30.009 12.198,29.905 12.083,29.727C11.973,29.537 11.973,29.303 12.083,29.113L16.376,21.59C16.38,21.578 16.38,21.574 16.376,21.566L13.646,16.867C13.528,16.648 13.513,16.426 13.622,16.254C13.724,16.086 13.927,16 14.169,16L18.208,16C18.829,16 19.134,16.398 19.333,16.754L22.11,21.566C21.946,21.852 17.751,29.223 17.751,29.223C17.544,29.593 17.251,30 16.649,30L16.648,30Z" style="fill:white;fill-rule:nonzero;"/>
                <path d="M35.914,11.883L26.973,27.688C26.969,27.699 26.969,27.707 26.973,27.715L32.664,38.117C32.777,38.344 32.781,38.57 32.676,38.742C32.57,38.906 32.383,39 32.141,39L28.105,39C27.488,39 27.18,38.59 26.98,38.23C26.98,38.23 21.254,27.73 21.238,27.703C21.528,27.199 30.223,11.77 30.223,11.77C30.441,11.383 30.703,11 31.305,11L35.387,11C35.629,11 35.82,11.09 35.922,11.258C36.027,11.43 36.023,11.656 35.914,11.883Z" style="fill:rgb(205,220,57);fill-rule:nonzero;"/>
            </g>
        </g>
    </g>
</svg>
