<svg xmlns="http://www.w3.org/2000/svg" width="112" height="39" viewBox="0 0 112 39">
    <path fill="#B24332" fill-rule="evenodd" d="M75.896 3.763c.57.059.627.608.627.724V35.31h-1.684V9.117c0-.435-.258-.724-.656-.724h-25.86c-.398 0-.656.29-.656.724V35.31h-1.57V4.516c0-.694.544-.753.628-.753zm29.397.03c.371 0 .656.348.656.665v30.824h-1.255V4.458c0-.317.286-.666.599-.666zM81.116 18.9h19.583c.341 0 .654.29.654.608 0 .377-.313.666-.654.666H81.116V33.98h19.583c.284 0 .592.24.646.544l.008.094c0 .348-.341.636-.654.636H80.432c-.342-.03-.6-.3-.6-.494V4.398c0-.347.317-.665.628-.665H100.7c.341 0 .654.29.654.637 0 .347-.313.637-.654.637H81.117L81.116 18.9zM20.923 3.763c.362 0 .641.304.654.695 0 8.392-4.536 15.253-10.187 15.716v15.051h-1.285v-15.08C4.482 19.625 0 12.795 0 4.458v.055L0 4.487c0-.406.287-.724.658-.724.335 0 .615.304.628.695 0 7.929 4.28 14.384 9.503 14.384 5.224 0 9.477-6.455 9.477-14.384h.029l.005-.08c.046-.352.312-.615.623-.615zm11.044.19l.255.004c5.932.193 10.716 7.11 10.716 15.55 0 8.565-4.922 15.528-10.97 15.528l-.255-.004c-5.904-.192-10.686-7.08-10.686-15.524 0-8.561 4.92-15.554 10.94-15.554zm0 1.342l-.24.005c-5.188.189-9.398 6.478-9.398 14.207 0 7.823 4.341 14.216 9.638 14.216l.241-.005c5.215-.19 9.398-6.507 9.398-14.21 0-7.849-4.312-14.213-9.639-14.213zM109.833.03c.606 0 1.127.2 1.561.628.405.427.637.941.637 1.54 0 .6-.232 1.086-.637 1.514-.434.427-.955.627-1.561.627-.61 0-1.13-.2-1.565-.627-.404-.428-.638-.914-.638-1.514 0-.599.234-1.113.638-1.54.436-.429.955-.628 1.565-.628zm0 .284c-.524 0-.987.173-1.334.543-.377.372-.578.828-.578 1.34 0 .516.201.945.578 1.314.347.371.81.572 1.334.572.519 0 .982-.2 1.33-.572.375-.37.58-.798.58-1.313 0-.513-.205-.969-.58-1.341-.348-.37-.811-.543-1.33-.543zm0 .686l.135.001c.085.002.163.009.24.028.086 0 .2.027.29.086.113.057.202.142.232.198.056.086.085.2.085.316 0 .17-.058.285-.146.398-.084.115-.23.2-.405.258l.986 1h-.58l-.838-.886h-.406v.885h-.406V1h.813zm.201.313h-.608v.77h.483c.047-.003.086-.01.125-.028.058 0 .115-.028.173-.085.057-.03.087-.085.115-.114.03-.057.03-.114.03-.2 0-.057 0-.115-.03-.172-.028-.027-.058-.085-.115-.112-.058-.03-.115-.03-.173-.059z"/>
</svg>
