<?xml version="1.0" encoding="UTF-8" standalone="no"?>
<!DOCTYPE svg PUBLIC "-//W3C//DTD SVG 1.1//EN" "http://www.w3.org/Graphics/SVG/1.1/DTD/svg11.dtd">
<svg width="100%" height="100%" viewBox="0 0 2363 1182" version="1.1" xmlns="http://www.w3.org/2000/svg" xmlns:xlink="http://www.w3.org/1999/xlink" xml:space="preserve" xmlns:serif="http://www.serif.com/" style="fill-rule:evenodd;clip-rule:evenodd;stroke-linejoin:round;stroke-miterlimit:2;">
    <g id="path2523" transform="matrix(3.83621,0,0,3.83621,-25445.7,-29718.9)">
        <path d="M7053,7939.01C7046.47,7929.9 7041.68,7919.67 7038.85,7908.82L7004.02,7908.82C7004.07,7908.96 7004.16,7909.32 7004.16,7909.32C7008.37,7928.29 7017.51,7945.82 7030.65,7960.14C7015.67,7975.86 7005.3,7995.42 7000.69,8016.64L7034.62,8016.64C7038.47,8004.93 7044.73,7994.16 7053,7985.01C7061.29,7994.15 7067.57,8004.92 7071.43,8016.64L7105.4,8016.64C7100.79,7995.42 7090.42,7975.86 7075.44,7960.14C7088.69,7945.69 7097.88,7927.98 7102.07,7908.82L7067.19,7908.82C7064.36,7919.67 7059.55,7929.91 7053,7939.01ZM6977.31,7933.06C6977.17,7933.1 6977.04,7933.11 6976.9,7933.11C6976.18,7933.15 6975.46,7933.2 6974.74,7933.2C6973.97,7933.2 6973.25,7933.15 6972.57,7933.11C6972.42,7933.12 6972.27,7933.1 6972.12,7933.06C6966.84,7932.63 6961.77,7930.8 6957.44,7927.74L6957.44,8016.64L6991.99,8016.64L6991.99,7927.74C6987.66,7930.8 6982.59,7932.63 6977.31,7933.06ZM6926.8,7906.61C6912.91,7906.66 6899.17,7909.48 6886.38,7914.9L6886.38,8016.64L6920.94,8016.64L6920.94,7937.7C6924.55,7936.27 6928.42,7935.62 6932.29,7935.81C6935.81,7935.61 6939.32,7936.28 6942.52,7937.75L6947.48,7908.91C6946.75,7908.66 6946.02,7908.45 6945.27,7908.28C6939.19,7907.04 6933,7906.49 6926.8,7906.61ZM6821.46,7906.61C6806.05,7906.78 6790.79,7909.68 6776.4,7915.18L6776.4,8052.6L6811.5,8052.6L6811.5,8017.09C6816.13,8018.44 6820.96,8019 6825.78,8018.76C6857.19,8018.76 6878.27,7996.41 6878.27,7961.94C6878.27,7927.11 6855.97,7906.61 6821.46,7906.61ZM6820.42,7989.92C6817.38,7990.04 6814.35,7989.55 6811.5,7988.48L6811.5,7936.89C6814.08,7936.27 6816.73,7935.92 6819.38,7935.86C6835.92,7935.86 6842.54,7945.86 6842.54,7962.98C6842.54,7981.18 6835.92,7989.92 6820.42,7989.92ZM7038.85,7896.25L7038.85,7818.57C7042.91,7817.15 7047.17,7816.44 7051.47,7816.46C7061.38,7816.46 7067.15,7821.46 7067.15,7834.84L7067.15,7896.25L7102.29,7896.25L7102.29,7832.32C7102.29,7802.67 7083.28,7787.26 7051.87,7787.26C7035.45,7787.35 7019.16,7790.24 7003.71,7795.82L7003.71,7896.25L7038.85,7896.25ZM6974.74,7872.73C6978.96,7872.73 6983.14,7873.62 6986.99,7875.35C6992.51,7865.62 6995.28,7854.58 6995.01,7843.4C6995.01,7809.56 6973.84,7787.26 6940.18,7787.26C6906.52,7787.26 6885.12,7809.56 6885.12,7843.4C6885.12,7877.42 6906.52,7899.77 6940.18,7899.77C6941.53,7899.77 6942.79,7899.72 6944.1,7899.68C6944.32,7899.63 6944.55,7899.63 6944.78,7899.59C6946.46,7884.39 6959.45,7872.75 6974.74,7872.73ZM6921.75,7843.4C6921.75,7826.46 6928.74,7816.5 6940.18,7816.5C6951.62,7816.5 6958.38,7826.46 6958.38,7843.4C6958.38,7860.52 6951.62,7870.52 6940.18,7870.52C6928.74,7870.52 6921.75,7860.52 6921.75,7843.4ZM6823.08,7787.26C6819.21,7787.19 6815.34,7787.4 6811.5,7787.89L6811.5,7749.19L6776.4,7749.19L6776.4,7891.84C6786.9,7897.69 6805.33,7899.77 6821.64,7899.77C6856.15,7899.77 6878.27,7877.82 6878.27,7842.36C6878.27,7808.12 6856.15,7787.26 6823.08,7787.26ZM6819.97,7870.52C6817.09,7870.63 6814.22,7870.2 6811.5,7869.26L6811.5,7817.54C6814.28,7816.91 6817.12,7816.57 6819.97,7816.5C6836.51,7816.5 6842.54,7826.46 6842.54,7843.58C6842.54,7860.52 6835.92,7870.52 6819.97,7870.52Z" style="fill:rgb(210,25,41);fill-rule:nonzero;"/>
    </g>
</svg>
