<?xml version="1.0" encoding="UTF-8" standalone="no"?>
<!DOCTYPE svg PUBLIC "-//W3C//DTD SVG 1.1//EN" "http://www.w3.org/Graphics/SVG/1.1/DTD/svg11.dtd">
<svg width="100%" height="100%" viewBox="0 0 2363 1182" version="1.1" xmlns="http://www.w3.org/2000/svg" xmlns:xlink="http://www.w3.org/1999/xlink" xml:space="preserve" xmlns:serif="http://www.serif.com/" style="fill-rule:evenodd;clip-rule:evenodd;stroke-linejoin:round;stroke-miterlimit:2;">
    <g transform="matrix(8.71993,0,0,8.71993,-5948.31,-622.557)">
        <g transform="matrix(2.66667,0,0,2.66667,748.267,49.4679)">
            <g>
                <path d="M25.5,27.7L25.5,10.6L8.4,27.7L25.5,27.7Z" style="fill:rgb(130,131,133);fill-rule:nonzero;"/>
            </g>
            <g>
                <path d="M26.5,27.7L26.5,10.6L43.6,27.7L26.5,27.7Z" style="fill:rgb(191,190,194);fill-rule:nonzero;"/>
            </g>
            <g>
                <path d="M25.5,27.7L25.5,44.8L8.4,27.7L25.5,27.7Z" style="fill:rgb(221,221,219);fill-rule:nonzero;"/>
            </g>
            <g>
                <path d="M26.5,27.7L26.5,44.8L43.6,27.7L26.5,27.7Z" style="fill:rgb(221,221,219);fill-rule:nonzero;"/>
            </g>
        </g>
        <g transform="matrix(1.15199,0,0,1.15199,695.888,120.74)">
            <g transform="matrix(22.3367,0,0,22.3367,30,69)">
                <path d="M0.099,-0L0.099,-0.711L0.273,-0.711C0.411,-0.711 0.516,-0.682 0.588,-0.624C0.661,-0.565 0.697,-0.476 0.697,-0.354C0.697,-0.241 0.664,-0.154 0.596,-0.092C0.529,-0.031 0.432,-0 0.305,-0L0.099,-0ZM0.192,-0.079L0.31,-0.079C0.405,-0.079 0.477,-0.103 0.526,-0.151C0.574,-0.199 0.599,-0.267 0.599,-0.354C0.599,-0.449 0.573,-0.519 0.521,-0.564C0.469,-0.61 0.389,-0.632 0.282,-0.632L0.192,-0.632L0.192,-0.079Z" style="fill:rgb(130,131,133);fill-rule:nonzero;"/>
            </g>
            <g transform="matrix(22.3367,0,0,22.3367,46.7853,69)">
                <path d="M0.099,-0L0.099,-0.711L0.524,-0.711L0.524,-0.632L0.192,-0.632L0.192,-0.409L0.506,-0.409L0.506,-0.33L0.192,-0.33L0.192,-0.079L0.539,-0.079L0.539,-0L0.099,-0Z" style="fill:rgb(130,131,133);fill-rule:nonzero;"/>
            </g>
            <g transform="matrix(22.3367,0,0,22.3367,59.9168,69)">
                <path d="M0.099,-0L0.099,-0.711L0.192,-0.711L0.192,-0.079L0.522,-0.079L0.522,-0L0.099,-0Z" style="fill:rgb(130,131,133);fill-rule:nonzero;"/>
            </g>
            <g transform="matrix(22.3367,0,0,22.3367,72.0123,69)">
                <path d="M0.232,-0L0.232,-0.632L0.005,-0.632L0.005,-0.711L0.554,-0.711L0.554,-0.632L0.325,-0.632L0.325,-0L0.232,-0Z" style="fill:rgb(130,131,133);fill-rule:nonzero;"/>
            </g>
            <g transform="matrix(22.3367,0,0,22.3367,84.5003,69)">
                <path d="M0.214,-0.266L0.465,-0.266C0.424,-0.383 0.382,-0.499 0.34,-0.613C0.298,-0.497 0.256,-0.381 0.214,-0.266ZM0.015,-0L0.291,-0.711L0.391,-0.711L0.668,-0L0.566,-0L0.493,-0.19L0.188,-0.19L0.117,-0L0.015,-0Z" style="fill:rgb(130,131,133);fill-rule:nonzero;"/>
            </g>
            <g transform="matrix(22.3367,0,0,22.3367,99.7587,69)">
                <rect x="0.03" y="-0.307" width="0.271" height="0.069" style="fill:rgb(130,131,133);fill-rule:nonzero;"/>
            </g>
            <g transform="matrix(22.3367,0,0,22.3367,107.164,69)">
                <path d="M0.293,-0.068C0.313,-0.068 0.33,-0.07 0.346,-0.073C0.362,-0.077 0.375,-0.082 0.387,-0.089C0.399,-0.095 0.409,-0.104 0.417,-0.114C0.425,-0.123 0.431,-0.135 0.435,-0.148C0.438,-0.161 0.44,-0.175 0.44,-0.19C0.44,-0.207 0.439,-0.222 0.435,-0.233C0.431,-0.245 0.425,-0.256 0.415,-0.266C0.404,-0.277 0.391,-0.286 0.373,-0.294C0.356,-0.302 0.333,-0.311 0.304,-0.32C0.301,-0.321 0.294,-0.323 0.283,-0.326C0.272,-0.329 0.264,-0.331 0.261,-0.333C0.193,-0.352 0.143,-0.377 0.112,-0.407C0.081,-0.437 0.065,-0.48 0.065,-0.536C0.065,-0.576 0.076,-0.611 0.097,-0.639C0.118,-0.668 0.145,-0.689 0.18,-0.703C0.215,-0.717 0.256,-0.724 0.301,-0.724C0.397,-0.724 0.47,-0.699 0.521,-0.649L0.474,-0.586C0.458,-0.603 0.435,-0.617 0.407,-0.628C0.378,-0.639 0.347,-0.645 0.313,-0.645C0.268,-0.645 0.232,-0.636 0.205,-0.618C0.178,-0.6 0.165,-0.574 0.165,-0.539C0.165,-0.516 0.168,-0.497 0.174,-0.483C0.18,-0.47 0.192,-0.458 0.209,-0.448C0.226,-0.438 0.251,-0.427 0.285,-0.417C0.285,-0.416 0.291,-0.414 0.303,-0.411C0.315,-0.408 0.322,-0.406 0.326,-0.405C0.368,-0.392 0.402,-0.38 0.429,-0.366C0.456,-0.353 0.477,-0.337 0.494,-0.32C0.51,-0.303 0.521,-0.284 0.528,-0.263C0.534,-0.242 0.538,-0.217 0.538,-0.188C0.538,-0.155 0.531,-0.125 0.519,-0.1C0.506,-0.074 0.489,-0.054 0.467,-0.038C0.445,-0.022 0.419,-0.01 0.391,-0.001C0.362,0.007 0.331,0.011 0.297,0.011C0.244,0.011 0.196,0.002 0.155,-0.015C0.113,-0.033 0.082,-0.051 0.063,-0.069L0.104,-0.137C0.125,-0.12 0.153,-0.104 0.187,-0.09C0.22,-0.075 0.256,-0.068 0.293,-0.068Z" style="fill:rgb(130,131,133);fill-rule:nonzero;"/>
            </g>
            <g transform="matrix(22.3367,0,0,22.3367,120.405,69)">
                <path d="M0.192,-0.401L0.321,-0.401C0.378,-0.401 0.419,-0.409 0.446,-0.426C0.473,-0.443 0.487,-0.473 0.487,-0.516C0.487,-0.532 0.485,-0.546 0.482,-0.558C0.479,-0.57 0.474,-0.58 0.467,-0.589C0.46,-0.598 0.451,-0.605 0.442,-0.611C0.433,-0.616 0.421,-0.621 0.408,-0.624C0.394,-0.627 0.38,-0.629 0.365,-0.63C0.351,-0.632 0.333,-0.632 0.314,-0.632L0.192,-0.632L0.192,-0.401ZM0.099,-0L0.099,-0.711L0.303,-0.711C0.339,-0.711 0.37,-0.709 0.397,-0.707C0.423,-0.704 0.449,-0.698 0.473,-0.689C0.498,-0.681 0.517,-0.67 0.532,-0.656C0.548,-0.641 0.56,-0.623 0.569,-0.599C0.578,-0.576 0.582,-0.548 0.582,-0.516C0.582,-0.48 0.576,-0.45 0.564,-0.424C0.553,-0.399 0.535,-0.379 0.512,-0.364C0.49,-0.35 0.463,-0.339 0.432,-0.332C0.401,-0.326 0.364,-0.322 0.323,-0.322L0.192,-0.322L0.192,-0L0.099,-0Z" style="fill:rgb(130,131,133);fill-rule:nonzero;"/>
            </g>
            <g transform="matrix(22.3367,0,0,22.3367,134.147,69)">
                <path d="M0.398,0.011C0.291,0.011 0.206,-0.022 0.145,-0.088C0.083,-0.154 0.052,-0.244 0.052,-0.356C0.052,-0.429 0.066,-0.492 0.093,-0.548C0.12,-0.603 0.16,-0.646 0.213,-0.677C0.266,-0.708 0.328,-0.724 0.399,-0.724C0.504,-0.724 0.587,-0.69 0.649,-0.622C0.711,-0.555 0.742,-0.466 0.742,-0.356C0.742,-0.244 0.712,-0.155 0.65,-0.089C0.589,-0.022 0.505,0.011 0.398,0.011ZM0.397,-0.068C0.477,-0.068 0.537,-0.094 0.579,-0.145C0.62,-0.196 0.641,-0.266 0.641,-0.356C0.641,-0.444 0.62,-0.514 0.578,-0.566C0.537,-0.619 0.477,-0.645 0.398,-0.645C0.32,-0.645 0.26,-0.619 0.217,-0.566C0.173,-0.513 0.152,-0.443 0.152,-0.356C0.152,-0.267 0.173,-0.196 0.215,-0.145C0.258,-0.094 0.318,-0.068 0.397,-0.068Z" style="fill:rgb(130,131,133);fill-rule:nonzero;"/>
            </g>
            <g transform="matrix(22.3367,0,0,22.3367,151.881,69)">
                <path d="M0.191,-0.395L0.324,-0.395C0.371,-0.395 0.408,-0.404 0.434,-0.423C0.46,-0.441 0.473,-0.473 0.473,-0.517C0.473,-0.535 0.471,-0.55 0.467,-0.563C0.463,-0.576 0.458,-0.587 0.451,-0.596C0.444,-0.605 0.435,-0.612 0.423,-0.617C0.412,-0.623 0.399,-0.627 0.384,-0.629C0.37,-0.631 0.353,-0.632 0.333,-0.632L0.191,-0.632L0.191,-0.395ZM0.099,-0L0.099,-0.711L0.326,-0.711C0.355,-0.711 0.382,-0.709 0.405,-0.706C0.428,-0.703 0.45,-0.697 0.471,-0.689C0.493,-0.681 0.51,-0.669 0.524,-0.656C0.538,-0.642 0.55,-0.624 0.558,-0.601C0.566,-0.579 0.57,-0.552 0.57,-0.522C0.57,-0.477 0.559,-0.44 0.536,-0.41C0.513,-0.38 0.479,-0.36 0.432,-0.351C0.459,-0.342 0.48,-0.327 0.495,-0.306C0.511,-0.285 0.527,-0.255 0.542,-0.215L0.626,-0L0.526,-0L0.448,-0.209C0.437,-0.239 0.427,-0.261 0.418,-0.275C0.408,-0.289 0.396,-0.299 0.381,-0.306C0.366,-0.313 0.346,-0.316 0.319,-0.316L0.192,-0.316L0.192,-0L0.099,-0Z" style="fill:rgb(130,131,133);fill-rule:nonzero;"/>
            </g>
            <g transform="matrix(22.3367,0,0,22.3367,166.736,69)">
                <path d="M0.232,-0L0.232,-0.632L0.005,-0.632L0.005,-0.711L0.554,-0.711L0.554,-0.632L0.325,-0.632L0.325,-0L0.232,-0Z" style="fill:rgb(130,131,133);fill-rule:nonzero;"/>
            </g>
        </g>
    </g>
</svg>
