<?xml version="1.0" encoding="UTF-8" standalone="no"?>
<!DOCTYPE svg PUBLIC "-//W3C//DTD SVG 1.1//EN" "http://www.w3.org/Graphics/SVG/1.1/DTD/svg11.dtd">
<svg width="100%" height="100%" viewBox="0 0 756 378" version="1.1" xmlns="http://www.w3.org/2000/svg" xmlns:xlink="http://www.w3.org/1999/xlink" xml:space="preserve" xmlns:serif="http://www.serif.com/" style="fill-rule:evenodd;clip-rule:evenodd;stroke-linejoin:round;stroke-miterlimit:2;">
    <g transform="matrix(0.32,0,0,0.32,0,0)">
        <g id="Peek---Cloppenburg" serif:id="Peek &amp; Cloppenburg" transform="matrix(2.48851,0,0,2.48851,-25.9005,279.488)">
            <path d="M46.5,63.469L46.5,158.906L68.813,158.906L68.813,131.156C68.813,127.196 72.813,127.188 72.813,127.188L91.969,127.188C97.451,127.188 101.875,122.758 101.875,117.281L101.875,73.375C101.875,67.898 97.451,63.469 91.969,63.469L46.5,63.469ZM333.875,63.469C328.646,63.469 324.406,67.708 324.406,72.938L324.406,150.219C324.406,155.441 328.646,159.688 333.875,159.688L367.813,159.688C373.042,159.688 377.281,155.441 377.281,150.219L377.281,123.188L357.156,123.188L357.156,145.094C357.156,146.609 355.904,147.875 354.375,147.875L348.469,147.875C346.941,147.875 345.719,146.609 345.719,145.094L345.719,78.844C345.719,77.321 346.941,76.094 348.469,76.094L354.375,76.094C355.904,76.094 357.156,77.321 357.156,78.844L357.156,98.063L377.281,98.063L377.281,72.938C377.281,67.708 373.042,63.469 367.813,63.469L333.875,63.469ZM226.219,71L226.219,158.938L246.5,158.938L246.5,133L253.438,133C257.293,133 257.563,136.375 257.563,136.375L257.563,158.938L277.875,158.938L277.875,130.375C277.875,130.375 277.86,122.656 268.188,122.656L262.656,122.656L276.75,93.531L258.719,93.531L246.5,118.625L246.5,71L226.219,71ZM385.219,71L385.219,158.938L405.5,158.938L405.5,71L385.219,71ZM714.125,72.5L714.125,158.938L734.406,158.938L734.406,154.406C734.406,154.406 737.992,158.938 743.438,158.938L755.469,158.938C760.445,158.938 764.469,154.895 764.469,149.906L764.469,102.563C764.469,97.581 760.445,93.531 755.469,93.531L741.938,93.531C736.114,93.531 734.406,96.75 734.406,96.75L734.406,72.5L714.125,72.5ZM70.813,76L76.906,76C77.531,76 78.031,76.531 78.031,77.156L78.031,114.469C78.031,115.094 77.531,115.625 76.906,115.625L70.813,115.625C70.188,115.625 69.688,115.094 69.688,114.469L69.688,77.156C69.688,76.531 70.188,76 70.813,76ZM869.063,92.031C861.173,92.031 853.656,105.563 853.656,105.563L853.656,93.531L833.375,93.531L833.375,158.938L853.656,158.938L853.656,117.969C853.656,116.521 854.833,115.344 856.281,115.344C864.821,112.244 869.063,114.219 869.063,114.219L869.063,92.031ZM115.438,93.531C110.45,93.531 106.406,97.581 106.406,102.563L106.406,149.906C106.406,154.895 110.45,158.938 115.438,158.938L148.594,158.938C153.569,158.938 157.594,154.895 157.594,149.906L157.594,137.5L136.313,137.531L136.313,145.813C136.313,147.26 135.698,147.594 134.25,147.594L130.063,147.656C128.608,147.656 128,147.33 128,145.875L128,130.781L157.594,130.781L157.594,102.563C157.594,97.581 153.569,93.531 148.594,93.531L115.438,93.531ZM175.563,93.531C170.581,93.531 166.563,97.581 166.563,102.563L166.563,149.906C166.563,154.895 170.581,158.938 175.563,158.938L208.75,158.938C213.732,158.938 217.75,154.895 217.75,149.906L217.75,137.5L196.469,137.531L196.469,145.813C196.469,147.26 195.861,147.594 194.406,147.594L190.219,147.656C188.771,147.656 188.156,147.33 188.156,145.875L188.156,130.781L217.75,130.781L217.75,102.563C217.75,97.581 213.732,93.531 208.75,93.531L175.563,93.531ZM424.281,93.531C419.299,93.531 415.25,97.581 415.25,102.563L415.25,149.906C415.25,154.895 419.299,158.938 424.281,158.938L456.594,158.938C461.576,158.938 465.625,154.895 465.625,149.906L465.625,102.563C465.625,97.581 461.576,93.531 456.594,93.531L424.281,93.531ZM602.656,93.531C597.674,93.531 593.625,97.581 593.625,102.563L593.625,149.906C593.625,154.895 597.674,158.938 602.656,158.938L635.813,158.938C640.794,158.938 644.844,154.895 644.844,149.906L644.844,137.5L623.531,137.531L623.531,145.813C623.531,147.26 622.918,147.594 621.469,147.594L617.281,147.656C615.821,147.656 615.219,147.33 615.219,145.875L615.219,130.781L644.844,130.781L644.844,102.563C644.844,97.581 640.794,93.531 635.813,93.531L602.656,93.531ZM654.063,93.531L654.063,158.938L674.344,158.938L674.344,108.188C674.344,106.74 675.521,105.563 676.969,105.563L682.625,105.563C684.085,105.563 685.25,106.74 685.25,108.188L685.25,158.938L704.406,158.938L704.406,102.563C704.406,97.581 700.381,93.531 695.406,93.531L683.375,93.531C677.923,93.531 674.344,98.063 674.344,98.063L674.344,93.531L654.063,93.531ZM772.969,93.531L772.969,149.906C772.969,154.895 777.024,158.938 782,158.938L794,158.938C799.459,158.938 803.031,154.406 803.031,154.406L803.031,158.938L823.344,158.938L823.344,93.531L803.031,93.531L803.031,144.281C803.031,145.729 801.861,146.906 800.406,146.906L794.781,146.906C793.334,146.906 792.156,145.729 792.156,144.281L792.156,93.531L772.969,93.531ZM882.219,93.531C877.231,93.531 873.188,97.581 873.188,102.563L873.188,149.906C873.187,154.895 877.231,158.938 882.219,158.938L895.75,158.938C901.574,158.938 903.25,155.719 903.25,155.719L903.25,172.625C903.25,174.073 902.08,175.25 900.625,175.25L896.125,175.25C893.687,175.25 892.262,175.249 892.281,172.625L892.281,167.375L873.188,167.375L873.188,177.5C873.187,182.482 877.231,186.531 882.219,186.531L914.531,186.531C919.507,186.531 923.563,182.482 923.563,177.5L923.563,93.531L903.25,93.531L903.25,98.063C903.25,98.062 899.702,93.531 894.25,93.531L882.219,93.531ZM475.344,93.656L475.344,180.094L495.656,180.094L495.656,155.875C495.656,155.875 497.332,159.063 503.156,159.063L516.688,159.063C521.663,159.062 525.719,155.013 525.719,150.031L525.719,102.688C525.719,97.706 521.663,93.656 516.688,93.656L504.656,93.656C499.21,93.656 495.656,98.188 495.656,98.188L495.656,93.656L475.344,93.656ZM534.656,93.656L534.656,180.094L554.938,180.094L554.938,155.875C554.938,155.875 556.645,159.063 562.469,159.063L576,159.063C580.982,159.062 585.031,155.013 585.031,150.031L585.031,102.688C585.031,97.706 580.982,93.656 576,93.656L563.969,93.656C558.524,93.656 554.938,98.188 554.938,98.188L554.938,93.656L534.656,93.656ZM497.625,106.656L503.688,106.656C504.319,106.656 504.844,107.188 504.844,107.813L504.844,145.625C504.844,146.25 504.319,146.781 503.688,146.781L497.625,146.781C497.006,146.781 496.469,146.25 496.469,145.625L496.469,107.813C496.469,107.188 497.006,106.656 497.625,106.656ZM556.906,106.656L563,106.656C563.619,106.656 564.156,107.188 564.156,107.813L564.156,145.625C564.156,146.25 563.619,146.781 563,146.781L556.906,146.781C556.287,146.781 555.781,146.25 555.781,145.625L555.781,107.813C555.781,107.188 556.287,106.656 556.906,106.656ZM736.781,106.656L742.844,106.656C743.474,106.656 744,107.188 744,107.813L744,145.625C744,146.25 743.474,146.781 742.844,146.781L736.781,146.781C736.149,146.781 735.656,146.25 735.656,145.625L735.656,107.813C735.656,107.188 736.149,106.656 736.781,106.656ZM894.719,106.656L900.781,106.656C901.406,106.656 901.938,107.188 901.938,107.813L901.938,145.625C901.937,146.25 901.406,146.781 900.781,146.781L894.719,146.781C894.101,146.781 893.594,146.25 893.594,145.625L893.594,107.813C893.594,107.188 894.101,106.656 894.719,106.656ZM129.094,106.719L135.156,106.719C135.788,106.719 136.313,107.219 136.313,107.844L136.313,118.094C136.313,118.719 135.788,119.25 135.156,119.25L129.094,119.25C128.469,119.25 127.938,118.719 127.938,118.094L127.938,107.844C127.938,107.219 128.469,106.719 129.094,106.719ZM189.25,106.719L195.313,106.719C195.937,106.719 196.469,107.219 196.469,107.844L196.469,118.094C196.469,118.719 195.937,119.25 195.313,119.25L189.25,119.25C188.625,119.25 188.094,118.719 188.094,118.094L188.094,107.844C188.094,107.219 188.625,106.719 189.25,106.719ZM437.375,106.719L443.469,106.719C444.094,106.719 444.594,107.219 444.594,107.844L444.594,145.688C444.594,146.312 444.094,146.813 443.469,146.813L437.375,146.813C436.744,146.812 436.25,146.312 436.25,145.688L436.25,107.844C436.25,107.219 436.744,106.719 437.375,106.719ZM616.313,106.719L622.406,106.719C623.037,106.719 623.531,107.219 623.531,107.844L623.531,118.094C623.531,118.719 623.037,119.25 622.406,119.25L616.313,119.25C615.694,119.25 615.188,118.719 615.188,118.094L615.188,107.844C615.187,107.219 615.694,106.719 616.313,106.719ZM300.906,116.969C297.058,116.969 292.125,119.147 292.125,125.719C292.125,129.197 294.612,134.615 296.531,136.688C293.084,139.664 289,142.803 289,148.75C289,156.894 295.014,159 300.188,159C304.272,159 308.907,154.082 308.875,154.125L312.125,158.344L319.625,158.344L313.844,150.563C314.214,149.77 315.187,149.455 316.25,148.125L312.188,142.875C311.203,144.05 310.277,144.227 309.969,144.938L304.594,137.156C307.403,135.189 310.25,130.428 310.25,125.719C310.25,119.147 304.756,116.969 300.906,116.969ZM300.781,122.594C302.421,122.594 304.438,123.424 304.438,125.781C304.437,129.631 302.064,131.503 301.031,132.5C298.827,129.931 297.938,128.309 297.938,126.063C297.938,124.095 299.136,122.594 300.781,122.594ZM299.906,141.969L305.125,149.25C306.325,147.753 302.986,152.719 300.344,152.719C297.782,152.719 295.594,151.609 295.594,148.125C295.594,145.037 298.304,143.875 299.906,141.969Z" style="fill:rgb(0,45,101);fill-rule:nonzero;"/>
        </g>
    </g>
</svg>
