<svg xmlns="http://www.w3.org/2000/svg" id="uuid-1a168e7c-039f-4581-b32c-955c211a3c7f" width="581.19" height="182.67" viewBox="0 0 581.19 182.67"><g id="uuid-fc372344-df57-408c-b18f-1f7d8ffc5630"><rect x="161.09" y="36.24" width="59.14" height="25.51" fill="#818180"></rect><path d="m390.89,0H14.22C6.37,0,0,6.37,0,14.23v106.22c0,7.86,6.37,14.22,14.22,14.22h342.9l47.99,48V14.23c0-7.86-6.37-14.23-14.23-14.23ZM122.82,44.79h-22.76v-8.55h-59.14v18.26h60.45c5.89,0,10.94,2.1,15.15,6.31,4.2,4.2,6.31,9.25,6.31,15.15v20.58c0,5.9-2.1,10.94-6.31,15.15s-9.25,6.31-15.15,6.31h-61.46c-5.9,0-10.94-2.08-15.15-6.23-4.2-4.15-6.31-9.23-6.31-15.22v-9.71h22.47v8.55h59.14v-18.26h-60.16c-5.9,0-10.94-2.08-15.15-6.23-4.2-4.15-6.31-9.23-6.31-15.22v-20.58c0-5.99,2.1-11.06,6.31-15.22,4.2-4.15,9.25-6.23,15.15-6.23h61.46c5.89,0,10.94,2.1,15.15,6.31,4.2,4.2,6.31,9.25,6.31,15.15v9.71Zm120.17,73.21h-22.76v-33.63h-59.14v33.63h-22.47V35.08c0-5.99,2.08-11.06,6.23-15.22,4.15-4.15,9.23-6.23,15.22-6.23h61.32c5.99,0,11.09,2.1,15.29,6.31,4.2,4.2,6.31,9.25,6.31,15.15v82.92Zm133.65,0h-22.61V47.98l-35.95,42.91-36.09-42.76v69.87h-22.47V13.63h23.19l35.37,42.18,35.23-42.18h23.34v104.37Z" fill="#818180"></path><path d="m441.5,10.72c-2.55-2.29-4.74-2.45-5.71-2.45-1.07,0-2.4.15-3.31,1.17-.51.51-.87,1.28-.87,2.14,0,.82.25,1.43.76,1.89.82.76,1.99,1.07,4.28,1.94l2.55.97c1.48.56,3.32,1.33,4.64,2.6,1.99,1.89,2.5,4.33,2.5,6.32,0,3.52-1.22,6.58-3.01,8.41-3.01,3.16-7.39,3.47-9.64,3.47-2.45,0-4.59-.36-6.73-1.43-1.73-.87-3.72-2.45-5-3.72l4.08-5.61c.87.87,2.24,2.04,3.16,2.6,1.33.82,2.7,1.22,4.28,1.22,1.02,0,2.45-.2,3.57-1.17.66-.56,1.22-1.48,1.22-2.75,0-1.12-.46-1.84-1.17-2.45-.92-.76-3.01-1.53-3.98-1.89l-2.8-.97c-1.58-.56-3.42-1.28-4.74-2.7-1.79-1.89-2.04-4.28-2.04-5.92,0-3.01.92-5.56,2.96-7.65,2.4-2.45,5.25-3.11,8.41-3.11,2.35,0,6.12.41,10.1,3.37l-3.52,5.71Z" fill="#22abe3"></path><path d="m450.43,36.42l5.46-34.01h6.53l8.46,20.35,8.46-20.35h6.53l5.46,34.01h-7.85l-2.7-20.3-8.52,20.3h-2.75l-8.52-20.3-2.7,20.3h-7.85Z" fill="#22abe3"></path><path d="m517.18,30h-12.85l-2.6,6.43h-8.16l13.72-34.01h7.19l13.41,34.01h-8.16l-2.55-6.43Zm-2.14-6.02l-4.18-11.42-4.23,11.42h8.42Z" fill="#22abe3"></path><path d="m543.65,2.41c4.33,0,7.04,1.43,8.67,2.96,1.43,1.38,2.96,3.82,2.96,7.6,0,2.14-.46,4.79-2.65,6.94-1.17,1.12-2.86,2.14-4.74,2.6l10.45,13.92h-9.59l-9.18-13.41v13.41h-7.85V2.41h11.93Zm-4.08,15.45h1.78c1.43,0,3.37-.15,4.69-1.48.56-.56,1.28-1.63,1.28-3.31,0-1.94-.92-2.96-1.58-3.47-1.27-.97-3.31-1.07-4.33-1.07h-1.84v9.33Z" fill="#22abe3"></path><path d="m573.54,9.04v27.38h-7.85V9.04h-7.39V2.41h22.64v6.63h-7.39Z" fill="#22abe3"></path><path d="m443.95,80h-12.85l-2.6,6.43h-8.16l13.72-34.01h7.19l13.41,34.01h-8.16l-2.55-6.43Zm-2.14-6.02l-4.18-11.42-4.23,11.42h8.42Z" fill="#ca3075"></path><path d="m482.05,85.35c-3.01,1.53-5.46,1.84-7.5,1.84-6.27,0-10.5-2.14-13.36-4.95-3.06-2.96-5.3-7.45-5.3-12.9s2.24-9.84,5.3-12.8c3.01-2.91,7.39-4.9,12.7-4.9,2.24,0,4.84.46,8.16,1.89v9.08c-1.73-1.84-4.33-3.62-7.96-3.62-2.86,0-5.15.92-6.93,2.65-1.89,1.84-3.21,4.59-3.21,7.85,0,3.52,1.43,6.02,2.96,7.5.71.71,3.16,2.86,7.34,2.86,2.04,0,4.79-.56,7.8-3.52v9.03Z" fill="#ca3075"></path><path d="m500.25,59.04v27.38h-7.85v-27.38h-7.39v-6.63h22.64v6.63h-7.39Z" fill="#ca3075"></path><path d="m519.79,52.41v34.01h-7.85v-34.01h7.85Z" fill="#ca3075"></path><path d="m532.33,52.41l8.62,21.78,8.62-21.78h8.46l-14.43,34.01h-5.3l-14.43-34.01h8.46Z" fill="#ca3075"></path><path d="m581.19,59.04h-11.37v6.58h10.81v6.63h-10.81v7.55h11.37v6.63h-19.22v-34.01h19.22v6.63Z" fill="#ca3075"></path><path d="m422.38,136.42l5.46-34.01h6.53l8.46,20.35,8.46-20.35h6.53l5.46,34.01h-7.85l-2.7-20.3-8.52,20.3h-2.75l-8.52-20.3-2.7,20.3h-7.85Z" fill="#818180"></path><path d="m488.37,109.04h-11.37v6.58h10.81v6.63h-10.81v7.55h11.37v6.63h-19.22v-34.01h19.22v6.63Z" fill="#818180"></path><path d="m505.51,102.41c4.49,0,9.23.66,13.41,4.69,3.01,2.91,4.9,6.88,4.9,12.19s-1.84,9.23-4.64,12.04c-4.69,4.74-10.56,5.1-13.41,5.1h-11.01v-34.01h10.76Zm-2.91,27.38h2.09c1.63,0,5.2-.15,7.75-2.29,1.84-1.53,3.31-4.44,3.31-8.21s-1.48-6.02-2.8-7.34c-2.55-2.55-5.86-2.91-8.26-2.91h-2.09v20.75Z" fill="#818180"></path><path d="m537.69,102.41v34.01h-7.85v-34.01h7.85Z" fill="#818180"></path><path d="m565.28,130h-12.85l-2.6,6.43h-8.16l13.72-34.01h7.19l13.41,34.01h-8.16l-2.55-6.43Zm-2.14-6.02l-4.18-11.42-4.23,11.42h8.42Z" fill="#818180"></path></g></svg>