<?xml version="1.0" encoding="UTF-8" standalone="no"?>
<!DOCTYPE svg PUBLIC "-//W3C//DTD SVG 1.1//EN" "http://www.w3.org/Graphics/SVG/1.1/DTD/svg11.dtd">
<svg width="100%" height="100%" viewBox="0 0 756 378" version="1.1" xmlns="http://www.w3.org/2000/svg" xmlns:xlink="http://www.w3.org/1999/xlink" xml:space="preserve" xmlns:serif="http://www.serif.com/" style="fill-rule:evenodd;clip-rule:evenodd;stroke-linejoin:round;stroke-miterlimit:2;">
    <g transform="matrix(0.32,0,0,0.32,0,0)">
        <g id="g1682" transform="matrix(64.9,0,0,-64.9,1189.96,267.122)">
            <path id="path1684" d="M0,0C-0.021,0.473 -0.318,0.827 -1.035,1.047C-1.751,1.286 -2.746,1.377 -3.621,1.377C-4.815,1.377 -6.764,1.231 -6.764,0.496C-6.605,-0.441 -2.547,-0.643 1.473,-1.157C5.491,-1.672 9.471,-2.535 9.471,-4.941L9.47,-4.997C8.583,-3.046 4.254,-2.549 -0.075,-2.139C-4.89,-1.68 -9.744,-1.331 -9.744,0.781C-9.744,2.949 -5.168,3.573 -1.945,3.573C3.308,3.573 6.969,2.347 7.168,0.106C7.168,0.106 3.634,-0.691 0,0" style="fill:rgb(197,29,35);fill-rule:nonzero;"/>
        </g>
        <g id="g1686" transform="matrix(64.9,0,0,-64.9,571.854,740.7)">
            <path id="path1688" d="M0,0C-0.058,-1.27 0.847,-1.826 2.081,-1.826C3.929,-1.826 4.075,-0.694 4.075,-0.336C4.075,0.518 3.462,0.84 2.724,1.037L1.453,1.351C1.03,1.453 0.665,1.658 0.665,2.147C0.665,2.921 1.293,3.184 1.972,3.184C2.709,3.184 3.367,2.783 3.396,1.987L3.892,1.987C3.9,3.052 2.994,3.608 1.964,3.608C0.497,3.608 0.168,2.651 0.168,2.14C0.168,1.329 0.73,1.037 1.344,0.884L2.505,0.599C2.987,0.482 3.579,0.248 3.579,-0.343C3.579,-1.103 2.746,-1.402 2.198,-1.402C1.249,-1.402 0.475,-1.073 0.497,0L0,0ZM5.565,3.184L5.105,3.184L5.105,2.052L4.448,2.052L4.448,1.665L5.105,1.665L5.105,-0.913C5.097,-1.555 5.309,-1.76 5.923,-1.76C6.062,-1.76 6.193,-1.746 6.332,-1.746L6.332,-1.351C6.2,-1.366 6.069,-1.373 5.938,-1.373C5.609,-1.351 5.565,-1.176 5.565,-0.876L5.565,1.665L6.332,1.665L6.332,2.052L5.565,2.052" style="fill-rule:nonzero;"/>
        </g>
        <g id="g1690" transform="matrix(64.9,0,0,-64.9,1056.66,682.42)">
            <path id="path1692" d="M0,0C0.014,0.613 0.438,0.877 1.008,0.877C1.548,0.877 1.994,0.723 1.994,0.102C1.994,-0.314 1.782,-0.365 1.402,-0.409C0.409,-0.526 -0.621,-0.562 -0.621,-1.621C-0.621,-2.381 -0.051,-2.724 0.642,-2.724C1.366,-2.724 1.694,-2.447 2.016,-1.957L2.03,-1.957C2.03,-2.352 2.103,-2.615 2.571,-2.615C2.695,-2.615 2.768,-2.607 2.87,-2.585L2.87,-2.198L2.724,-2.228C2.541,-2.228 2.454,-2.125 2.454,-1.95L2.454,0.051C2.454,1.059 1.731,1.264 1.066,1.264C0.205,1.264 -0.417,0.884 -0.46,0L0,0ZM1.994,-1.154C2.001,-1.892 1.38,-2.337 0.679,-2.337C0.248,-2.337 -0.161,-2.052 -0.161,-1.592C-0.161,-0.854 0.81,-0.862 1.592,-0.723C1.716,-0.701 1.921,-0.665 1.979,-0.555L1.994,-0.555L1.994,-1.154ZM6.615,1.154L6.155,1.154L6.155,0.504L6.141,0.504C5.958,0.92 5.49,1.264 4.943,1.264C3.855,1.264 3.241,0.402 3.241,-0.635C3.241,-1.709 3.738,-2.571 4.943,-2.571C5.483,-2.571 5.929,-2.257 6.141,-1.797L6.155,-1.797L6.155,-2.308C6.155,-3.228 5.79,-3.732 4.943,-3.732C4.431,-3.732 3.942,-3.535 3.84,-2.98L3.38,-2.98C3.445,-3.783 4.191,-4.119 4.943,-4.119C6.177,-4.119 6.608,-3.432 6.615,-2.308L6.615,1.154ZM4.943,-2.183C4.095,-2.183 3.701,-1.446 3.701,-0.686C3.701,0.095 4.066,0.876 4.943,0.876C5.812,0.876 6.155,0.051 6.155,-0.686C6.155,-1.453 5.738,-2.183 4.943,-2.183M7.819,-0.467C7.892,0.219 8.308,0.877 9.06,0.877C9.806,0.877 10.236,0.227 10.258,-0.467L7.819,-0.467ZM10.718,-0.854C10.755,0.205 10.273,1.264 9.06,1.264C7.863,1.264 7.359,0.263 7.359,-0.73C7.359,-1.803 7.863,-2.724 9.06,-2.724C10.01,-2.724 10.507,-2.227 10.704,-1.373L10.243,-1.373C10.098,-1.943 9.732,-2.337 9.06,-2.337C8.177,-2.337 7.826,-1.526 7.819,-0.854"/>
        </g>
        <g id="g1694" transform="matrix(64.9,0,0,-64.9,583.406,1081.1)">
            <path id="path1696" d="M0,0L0.755,0L0.755,0.121L0.145,0.121L0.145,0.497L0.709,0.497L0.709,0.619L0.145,0.619L0.145,0.965L0.75,0.965L0.75,1.087L0,1.087L0,0ZM1.415,0L1.552,0L1.552,0.872L1.555,0.872L2.123,0L2.281,0L2.281,1.087L2.144,1.087L2.144,0.205L2.141,0.205L1.569,1.087L1.415,1.087L1.415,0ZM3.248,0L3.393,0L3.393,0.965L3.755,0.965L3.755,1.087L2.886,1.087L2.886,0.965L3.248,0.965L3.248,0ZM4.362,0L5.117,0L5.117,0.121L4.507,0.121L4.507,0.497L5.071,0.497L5.071,0.619L4.507,0.619L4.507,0.965L5.112,0.965L5.112,1.087L4.362,1.087" style="fill-rule:nonzero;"/>
        </g>
        <g id="g1698" transform="matrix(64.9,0,0,-64.9,958.398,1081.1)">
            <path id="path1700" d="M0,0L0.145,0L0.145,0.464L0.498,0.464C0.638,0.464 0.663,0.374 0.679,0.268C0.7,0.161 0.677,0.044 0.718,0L0.88,0C0.819,0.075 0.825,0.193 0.816,0.3C0.805,0.406 0.779,0.499 0.653,0.523L0.653,0.526C0.784,0.563 0.842,0.671 0.842,0.802C0.842,0.975 0.715,1.087 0.511,1.087L0,1.087L0,0ZM0.145,0.586L0.145,0.965L0.504,0.965C0.639,0.965 0.697,0.886 0.697,0.779C0.697,0.621 0.581,0.586 0.446,0.586"/>
        </g>
        <g id="g1702" transform="matrix(64.9,0,0,-64.9,1071.84,1081.1)">
            <path id="path1704" d="M0,0L0.145,0L0.145,0.965L0.507,0.965L0.507,1.087L-0.362,1.087L-0.362,0.965L0,0.965" style="fill-rule:nonzero;"/>
        </g>
        <g id="g1706" transform="matrix(64.9,0,0,-64.9,1159.2,1019.05)">
            <path id="path1708" d="M0,0L0.003,0L0.184,-0.507L-0.184,-0.507L0,0ZM-0.501,-0.956L-0.352,-0.956L-0.23,-0.628L0.23,-0.628L0.348,-0.956L0.508,-0.956L0.084,0.131L-0.076,0.131"/>
        </g>
        <g id="path1710" transform="matrix(51.92,0,0,51.92,-15784.6,-23140.7)">
            <path d="M327.728,466.522L327.91,466.522L327.91,465.164L327.728,465.164L327.728,466.522ZM328.82,466.522L328.991,466.522L328.991,465.432L328.995,465.432L329.705,466.522L329.902,466.522L329.902,465.164L329.731,465.164L329.731,466.266L329.727,466.266L329.012,465.164L328.82,465.164L328.82,466.522ZM330.807,466.522L330.978,466.522L330.978,465.392L330.982,465.392L331.407,466.522L331.561,466.522L331.985,465.392L331.989,465.392L331.989,466.522L332.16,466.522L332.16,465.164L331.913,465.164L331.483,466.306L331.055,465.164L330.808,465.164L330.808,466.522L330.807,466.522ZM333.068,466.522L334.012,466.522L334.012,466.371L333.25,466.371L333.25,465.901L333.955,465.901L333.955,465.749L333.25,465.749L333.25,465.316L334.006,465.316L334.006,465.164L333.068,465.164L333.068,466.522ZM334.837,466.522L335.008,466.522L335.008,465.432L335.012,465.432L335.722,466.522L335.92,466.522L335.92,465.164L335.749,465.164L335.749,466.266L335.745,466.266L335.03,465.164L334.837,465.164L334.837,466.522ZM337.128,466.522L337.31,466.522L337.31,465.316L337.762,465.316L337.762,465.164L336.676,465.164L336.676,465.316L337.128,465.316" style="fill-rule:nonzero;"/>
        </g>
        <g id="path1712" transform="matrix(51.92,0,0,51.92,-15784.6,-23140.7)">
            <rect x="315.255" y="467.619" width="22.502" height="0.151" style="fill:rgb(197,29,35);fill-rule:nonzero;"/>
        </g>
    </g>
</svg>
