<?xml version="1.0" encoding="UTF-8" standalone="no"?>
<!DOCTYPE svg PUBLIC "-//W3C//DTD SVG 1.1//EN" "http://www.w3.org/Graphics/SVG/1.1/DTD/svg11.dtd">
<svg width="100%" height="100%" viewBox="0 0 215 42" version="1.1" xmlns="http://www.w3.org/2000/svg" xmlns:xlink="http://www.w3.org/1999/xlink" xml:space="preserve" xmlns:serif="http://www.serif.com/" style="fill-rule:evenodd;clip-rule:evenodd;stroke-linejoin:round;stroke-miterlimit:2;">
    <path d="M7.14,16.41C7.14,14.72 8.35,13.81 10.14,13.81C12.32,13.81 13.53,15.27 14.01,17.87L19.76,16.87C18.76,11.79 15.16,8.22 9.84,8.22C4.72,8.25 0.72,11.82 0.72,17C0.72,25.89 13.43,28 13.43,33.63C13.432,33.667 13.432,33.704 13.432,33.742C13.432,35.25 12.191,36.492 10.682,36.492C10.598,36.492 10.514,36.488 10.43,36.48C7.35,36.48 6.38,34.05 5.96,31.33L0,32.93C1,38.61 4.42,42 10.34,42C15.85,42 19.84,39 19.84,33.23C19.84,23.55 7.14,21.5 7.14,16.41Z" style="fill:#122f50;fill-rule:nonzero;"/>
    <path d="M33,0.08L26.25,0.08L26.25,8.85L22.5,8.85L22.5,14.42L26.25,14.42L26.25,34.68C26.25,39.68 29.09,42 34.17,42C35.311,42.045 36.453,41.924 37.56,41.64L37.56,35.83L35.32,35.83C33.75,35.83 33.02,34.83 33.02,33.17L33.02,14.42L37.56,14.42L37.56,8.85L33,8.85L33,0.08Z" style="fill:#122f50;fill-rule:nonzero;"/>
    <path d="M62,17.08C62,11.15 58.43,8.25 52.14,8.25C45.85,8.25 41.61,11.82 41.25,18.41L48,18.41C48.13,15.63 48.79,13.81 51.87,13.81C54.11,13.81 55.2,15.27 55.2,17.99L55.2,19.92C45.46,23.61 40.75,27.54 40.75,34.68C40.75,38.85 43.04,42 47.64,42C50.91,42 53.02,40.91 55.56,38.85C55.62,39.64 55.87,40.49 55.93,41.39L62.4,41.39C62.184,40.271 62.05,39.138 62,38L62,17.08ZM55.22,33.41C54.07,35.04 52.56,36.41 50.68,36.41C48.68,36.41 47.54,35.56 47.54,33.41C47.54,30.57 49.05,28.33 55.22,24.82L55.22,33.41Z" style="fill:#122f50;fill-rule:nonzero;"/>
    <path d="M81.23,14.42L81.23,8.85L76.69,8.85L76.69,0.08L69.92,0.08L69.92,8.85L66.17,8.85L66.17,14.42L69.92,14.42L69.92,34.68C69.92,39.68 72.76,42 77.84,42C78.981,42.045 80.123,41.923 81.23,41.64L81.23,35.83L79,35.83C77.43,35.83 76.7,34.83 76.7,33.17L76.7,14.42L81.23,14.42Z" style="fill:#122f50;fill-rule:nonzero;"/>
    <g>
        <rect x="85.7" y="8.85" width="6.78" height="32.54" style="fill:#122f50;"/>
        <rect x="85.7" y="0" width="6.78" height="6.17" style="fill:#122f50;"/>
    </g>
    <path d="M104.58,16.41C104.58,14.72 105.78,13.81 107.58,13.81C109.76,13.81 110.97,15.27 111.45,17.87L117.2,16.87C116.2,11.79 112.6,8.22 107.28,8.22C102.19,8.22 98.2,11.79 98.2,16.93C98.2,25.82 110.9,27.93 110.9,33.56C110.902,33.597 110.902,33.634 110.902,33.672C110.902,35.18 109.661,36.422 108.152,36.422C108.068,36.422 107.984,36.418 107.9,36.41C104.82,36.41 103.9,33.98 103.42,31.26L97.5,32.9C98.5,38.58 101.91,41.97 107.84,41.97C113.34,41.97 117.34,38.97 117.34,33.2C117.28,23.55 104.58,21.5 104.58,16.41Z" style="fill:#122f50;fill-rule:nonzero;"/>
    <path d="M130.46,0.08L123.69,0.08L123.69,8.85L119.94,8.85L119.94,14.42L123.69,14.42L123.69,34.68C123.69,39.68 126.53,42 131.61,42C132.751,42.045 133.893,41.923 135,41.64L135,35.83L132.76,35.83C131.19,35.83 130.46,34.83 130.46,33.17L130.46,14.42L135,14.42L135,8.85L130.46,8.85L130.46,0.08Z" style="fill:#122f50;fill-rule:nonzero;"/>
    <path d="M159.43,17.08C159.43,11.15 155.86,8.25 149.57,8.25C143.28,8.25 139.05,11.82 138.69,18.41L145.46,18.41C145.58,15.63 146.25,13.81 149.33,13.81C151.57,13.81 152.66,15.27 152.66,17.99L152.66,19.92C142.92,23.61 138.2,27.54 138.2,34.68C138.2,38.85 140.5,42 145.1,42C148.36,42 150.48,40.91 153.02,38.85C153.08,39.64 153.32,40.49 153.38,41.39L159.86,41.39C159.632,40.256 159.488,39.106 159.43,37.95L159.43,17.08ZM152.66,33.41C151.51,35.04 150,36.41 148.12,36.41C146.07,36.41 144.98,35.56 144.98,33.41C144.98,30.57 146.49,28.33 152.66,24.82L152.66,33.41Z" style="fill:#122f50;fill-rule:nonzero;"/>
    <g>
        <path d="M205.13,15.5C202.831,16.847 200.841,18.664 199.29,20.83L197.74,23.07C197.51,23.39 197.29,23.71 197.23,23.78L196.76,24.45L195.33,26.51C195.33,26.51 191.52,32.01 186.12,34.81C180.52,37.72 173.19,37.53 172.59,37.51L172.59,40.51C172.59,40.517 172.59,40.523 172.59,40.53C172.59,41.336 173.253,42 174.06,42L213.06,42C213.866,42 214.53,41.336 214.53,40.53L214.53,13.91C214.406,13.942 214.278,13.959 214.15,13.96C214.022,13.961 207.84,14.08 205.13,15.5Z" style="fill:#122f50;fill-rule:nonzero;"/>
        <path d="M213.07,0L174.07,0C173.264,0 172.6,0.664 172.6,1.47L172.6,28.1L172.81,28.1C172.81,28.1 179.13,27.98 181.81,26.57C184.109,25.218 186.098,23.399 187.65,21.23L189.23,19L189.73,18.29C189.79,18.22 190.05,17.84 190.2,17.62C190.35,17.4 191,16.48 191.63,15.56C194.081,12.175 197.22,9.347 200.84,7.26C206.68,4.26 214.42,4.56 214.42,4.56L214.54,4.56L214.54,1.56C214.542,1.53 214.543,1.5 214.543,1.47C214.543,0.664 213.879,-0 213.073,-0C213.072,-0 213.071,-0 213.07,0Z" style="fill:#122f50;fill-rule:nonzero;"/>
    </g>
</svg>
