<?xml version="1.0" encoding="UTF-8" standalone="no"?>
<!DOCTYPE svg PUBLIC "-//W3C//DTD SVG 1.1//EN" "http://www.w3.org/Graphics/SVG/1.1/DTD/svg11.dtd">
<svg width="100%" height="100%" viewBox="0 0 2363 1182" version="1.1" xmlns="http://www.w3.org/2000/svg" xmlns:xlink="http://www.w3.org/1999/xlink" xml:space="preserve" xmlns:serif="http://www.serif.com/" style="fill-rule:evenodd;clip-rule:evenodd;stroke-linecap:round;stroke-linejoin:round;">
    <g id="Layer_1-2" transform="matrix(6.70537,0,0,6.70537,225.655,454.566)">
        <path d="M71.21,38L55.77,2.58L56.9,2.58L66.13,23.65C69.49,31.35 71.02,34.75 71.66,36.48C72.35,34.9 74.32,30.66 77.38,24.14L87.5,2.58L88.63,2.58L72.05,38L71.21,38Z" style="fill:rgb(35,31,32);fill-rule:nonzero;stroke:rgb(35,31,32);stroke-width:0.84px;"/>
        <path d="M133.54,19.51L111.54,19.51L111.54,37L135.54,37L135.29,37.94L110.5,37.94L110.5,2.58L134.58,2.58L134.58,3.52L111.58,3.52L111.58,18.57L133.58,18.57L133.54,19.51Z" style="fill:rgb(35,31,32);fill-rule:nonzero;stroke:rgb(35,31,32);stroke-width:0.84px;"/>
        <path d="M156,38L156,2.58L157.23,2.58C164.34,11.41 181.8,33.08 184.47,36.48C184.27,34.16 184.32,25.92 184.32,20.24L184.32,2.58L185.32,2.58L185.32,38L184.23,38C177.32,29.36 158.32,5.83 156.84,3.75C157.04,8.39 156.99,14.11 156.99,20.23L156.99,38L156,38Z" style="fill:rgb(35,31,32);fill-rule:nonzero;stroke:rgb(35,31,32);stroke-width:0.84px;"/>
        <path d="M207.91,2.58L207.91,23.11C207.91,34.9 215.07,37.72 221.04,37.72C228.84,37.72 234.31,34.02 234.31,23.01L234.31,2.58L235.31,2.58L235.31,22.82C235.31,34.42 229.59,38.66 221,38.66C212.22,38.66 206.84,33.58 206.84,23.36L206.84,2.58L207.91,2.58Z" style="fill:rgb(35,31,32);fill-rule:nonzero;stroke:rgb(35,31,32);stroke-width:0.84px;"/>
        <path d="M258.05,28.34C259.05,33.72 263.18,37.72 271.05,37.72C279.19,37.72 282.99,33.92 282.99,29.13C282.99,24.34 280.82,21.73 270.65,19.7C262.41,18.07 258.76,16.25 258.76,10.7C258.76,5.15 264,1.89 270.44,1.89C280.44,1.89 282.68,7.66 283.27,10.89L282.27,10.89C281.33,7.14 278.82,2.8 270.48,2.8C265.15,2.8 259.87,5.12 259.87,10.6C259.87,14.89 261.99,17.02 271.02,18.74C282.02,20.86 284.15,24.12 284.15,28.95C284.15,35.66 278.15,38.62 271.15,38.62C263.3,38.62 258.27,35.22 257.04,28.31L258.05,28.34Z" style="fill:rgb(35,31,32);fill-rule:nonzero;stroke:rgb(35,31,32);stroke-width:0.84px;"/>
        <path d="M20.28,0.84C20.277,0.84 20.273,0.84 20.27,0.84C9.606,0.84 0.83,9.616 0.83,20.28C0.83,30.944 9.606,39.72 20.27,39.72C30.934,39.72 39.71,30.944 39.71,20.28C39.699,9.623 30.937,0.856 20.28,0.84ZM20.28,6.72C22.392,6.72 24.13,8.458 24.13,10.57C24.13,12.682 22.392,14.42 20.28,14.42C18.168,14.42 16.43,12.682 16.43,10.57C16.435,8.46 18.17,6.725 20.28,6.72ZM32.45,13.72L32.21,14.11L21.46,32.35L21.39,32.45L20.39,34.24L17.2,28.81L8.12,13.74L7.89,13.36L5.89,10.06L8.67,10.06L10.35,12.88L20.35,29.48L31,11.51L31.86,10L34.64,10L32.45,13.72Z" style="fill:rgb(255,183,0);fill-rule:nonzero;"/>
    </g>
</svg>
