<?xml version="1.0" encoding="UTF-8" standalone="no"?>
<!DOCTYPE svg PUBLIC "-//W3C//DTD SVG 1.1//EN" "http://www.w3.org/Graphics/SVG/1.1/DTD/svg11.dtd">
<svg width="100%" height="100%" viewBox="0 0 2363 1182" version="1.1" xmlns="http://www.w3.org/2000/svg" xmlns:xlink="http://www.w3.org/1999/xlink" xml:space="preserve" xmlns:serif="http://www.serif.com/" style="fill-rule:evenodd;clip-rule:evenodd;stroke-linejoin:round;stroke-miterlimit:2;">
    <g transform="matrix(19.1165,0,0,19.1165,110.283,252.763)">
        <path d="M75.896,3.763C76.466,3.822 76.523,4.371 76.523,4.487L76.523,35.31L74.839,35.31L74.839,9.117C74.839,8.682 74.581,8.393 74.183,8.393L48.323,8.393C47.925,8.393 47.667,8.683 47.667,9.117L47.667,35.31L46.097,35.31L46.097,4.516C46.097,3.822 46.641,3.763 46.725,3.763L75.896,3.763ZM105.293,3.793C105.664,3.793 105.949,4.141 105.949,4.458L105.949,35.282L104.694,35.282L104.694,4.458C104.694,4.141 104.98,3.792 105.293,3.792L105.293,3.793ZM81.116,18.9L100.699,18.9C101.04,18.9 101.353,19.19 101.353,19.508C101.353,19.885 101.04,20.174 100.699,20.174L81.116,20.174L81.116,33.98L100.699,33.98C100.983,33.98 101.291,34.22 101.345,34.524L101.353,34.618C101.353,34.966 101.012,35.254 100.699,35.254L80.432,35.254C80.09,35.224 79.832,34.954 79.832,34.76L79.832,4.398C79.832,4.051 80.149,3.733 80.46,3.733L100.7,3.733C101.041,3.733 101.354,4.023 101.354,4.37C101.354,4.717 101.041,5.007 100.7,5.007L81.117,5.007L81.116,18.9ZM20.923,3.763C21.285,3.763 21.564,4.067 21.577,4.458C21.577,12.85 17.041,19.711 11.39,20.174L11.39,35.225L10.105,35.225L10.105,20.145C4.482,19.625 0,12.795 0,4.458L0,4.513L0,4.487C0,4.081 0.287,3.763 0.658,3.763C0.993,3.763 1.273,4.067 1.286,4.458C1.286,12.387 5.566,18.842 10.789,18.842C16.013,18.842 20.266,12.387 20.266,4.458L20.295,4.458L20.3,4.378C20.346,4.026 20.612,3.763 20.923,3.763ZM31.967,3.953L32.222,3.957C38.154,4.15 42.938,11.067 42.938,19.507C42.938,28.072 38.016,35.035 31.968,35.035L31.713,35.031C25.809,34.839 21.027,27.951 21.027,19.507C21.027,10.946 25.947,3.953 31.967,3.953ZM31.967,5.295L31.727,5.3C26.539,5.489 22.329,11.778 22.329,19.507C22.329,27.33 26.67,33.723 31.967,33.723L32.208,33.718C37.423,33.528 41.606,27.211 41.606,19.508C41.606,11.659 37.294,5.295 31.967,5.295ZM109.833,0.03C110.439,0.03 110.96,0.23 111.394,0.658C111.799,1.085 112.031,1.599 112.031,2.198C112.031,2.798 111.799,3.284 111.394,3.712C110.96,4.139 110.439,4.339 109.833,4.339C109.223,4.339 108.703,4.139 108.268,3.712C107.864,3.284 107.63,2.798 107.63,2.198C107.63,1.599 107.864,1.085 108.268,0.658C108.704,0.229 109.223,0.03 109.833,0.03ZM109.833,0.314C109.309,0.314 108.846,0.487 108.499,0.857C108.122,1.229 107.921,1.685 107.921,2.197C107.921,2.713 108.122,3.142 108.499,3.511C108.846,3.882 109.309,4.083 109.833,4.083C110.352,4.083 110.815,3.883 111.163,3.511C111.538,3.141 111.743,2.713 111.743,2.198C111.743,1.685 111.538,1.229 111.163,0.857C110.815,0.487 110.352,0.314 109.833,0.314ZM109.833,1L109.968,1.001C110.053,1.003 110.131,1.01 110.208,1.029C110.294,1.029 110.408,1.056 110.498,1.115C110.611,1.172 110.7,1.257 110.73,1.313C110.786,1.399 110.815,1.513 110.815,1.629C110.815,1.799 110.757,1.914 110.669,2.027C110.585,2.142 110.439,2.227 110.264,2.285L111.25,3.285L110.67,3.285L109.832,2.399L109.426,2.399L109.426,3.284L109.02,3.284L109.02,1L109.833,1ZM110.034,1.313L109.426,1.313L109.426,2.083L109.909,2.083C109.956,2.08 109.995,2.073 110.034,2.055C110.092,2.055 110.149,2.027 110.207,1.97C110.264,1.94 110.294,1.885 110.322,1.856C110.352,1.799 110.352,1.742 110.352,1.656C110.352,1.599 110.352,1.541 110.322,1.484C110.294,1.457 110.264,1.399 110.207,1.372C110.149,1.342 110.092,1.342 110.034,1.313Z" style="fill:rgb(178,67,50);"/>
    </g>
</svg>
